<svg width="250" height="250" viewBox="0 0 250 250" fill="none" xmlns="http://www.w3.org/2000/svg">
<path d="M122.393 157.826C122.393 157.826 124.745 167.838 137.776 175.284C145.99 179.976 163.26 184.844 172.077 178.328C182.114 170.907 184.278 163.561 184.756 160.857C185.234 158.153 183.8 150.694 183.8 150.694L167.285 144.82C167.285 144.82 139.977 151.486 139.499 151.486C139.034 151.499 122.393 157.826 122.393 157.826Z" fill="#D5D5F7"/>
<path d="M183.85 164.077C184.215 163.134 184.441 162.329 184.605 161.662C181.687 160.882 178.303 159.625 175.234 158.316C175.486 158.203 175.737 158.09 175.976 157.964C177.485 157.197 178.97 156.304 180.039 154.996C181.196 153.587 181.724 151.763 181.661 149.939L167.285 144.82C167.285 144.82 139.977 151.486 139.499 151.486C139.022 151.486 122.393 157.813 122.381 157.826C122.167 157.901 123.928 161.599 124.041 161.788C125.638 164.769 129.311 168.92 131.827 171.171C131.827 171.171 130.67 168.505 132.858 167.511C133.827 167.071 134.997 167.285 135.99 167.675C138.481 168.668 141.6 172.492 149.398 176.592C154.694 179.385 160.14 181.523 161.901 181.448C164.253 181.347 168.517 180.202 168.517 180.202C168.517 180.202 163.083 179.687 154.354 175.624C151.713 174.391 141.94 169.586 141.009 166.907C140.745 166.153 139.801 164.819 141.512 164.065C144.128 162.895 151.26 169.046 157.386 171.863C164.681 175.209 172.63 177.888 172.63 177.888C173.486 177.234 174.291 176.58 175.045 175.926C170.983 174.882 167.008 173.448 163.172 171.775C159.348 170.115 155.599 167.964 152.141 165.599C149.939 164.09 148.417 161.549 150.782 161.222C154.656 160.681 159.662 164.366 164.681 166.97C169.209 169.322 174.643 170.404 179.737 171.045C180.391 170.228 181.46 168.668 181.46 168.668C181.46 168.668 179.536 168.341 173.85 167.083C171.36 166.53 168.945 165.813 166.731 164.568C166.153 164.241 164.127 162.165 166.895 161.209C169.662 160.253 172.291 162.153 176.467 163.121C180.655 164.115 183.812 164.165 183.85 164.077Z" fill="#0D5F9B"/>
<path d="M193.422 112.042C193.422 112.042 193.107 101.853 187.636 92.8347C182.919 85.0614 176.19 84.269 176.19 84.269C176.19 84.269 174.857 79.3761 170.177 75.6278C165.498 71.8796 155.876 68.7476 155.876 68.7476C136.606 60.0687 124.594 67.1753 124.594 67.1753C124.594 67.1753 96.0169 60.3831 73.1373 79.7912C73.1373 79.7912 61.5905 85.2249 56.8737 95.4887C54.2701 101.174 55.3895 110.444 55.3895 110.444C47.3773 119.752 49.5784 134.493 58.5718 141.877C62.8609 145.386 68.1563 147.713 73.6781 148.304C75.8416 148.531 76.9359 148.015 77.8415 150.216C79.1748 153.461 80.2187 156.794 82.8979 159.121C85.6273 161.486 88.8096 163.323 92.1931 164.58C98.7589 167.008 106.18 167.272 112.809 164.895C115.01 164.102 122.066 164.027 122.066 164.027C122.066 164.027 125.802 167.109 139.059 166.618C152.317 166.127 157.914 160.404 160.945 159.335C163.272 158.518 166.127 156.719 168.668 157.184C170.115 157.449 171.41 158.191 172.731 158.82C176.429 160.593 180.58 161.562 184.655 161.184C200.063 159.763 201.686 142.015 200.164 129.814C198.629 117.5 193.422 112.042 193.422 112.042Z" fill="#1466DF"/>
<path d="M79.6149 136.128C79.3005 136.845 76.156 143.713 73.5146 144.82C68.9487 146.744 61.8798 142.166 59.1755 140.908C58.6472 140.657 58.295 141.286 58.295 141.286C57.8548 141.852 58.9994 143.021 59.578 143.436C61.8169 145.046 67.1878 148.694 71.175 149.688C76.3195 150.971 80.181 149.688 80.181 149.688C80.181 149.688 81.5897 139.386 81.7029 138.921C81.8161 138.455 81.7029 134.355 81.7029 134.355L79.6149 136.128Z" fill="#9BD5FF"/>
<path d="M124.557 165.197C124.557 165.197 121.966 164.794 117.991 164.857C114.016 164.92 108.419 166.065 108.419 166.065C108.419 166.065 112.368 164.266 114.129 162.694C115.89 161.109 116.243 157.26 115.953 154.971C115.651 152.631 114.859 151.449 108.872 150.203L126.808 149.21C120.796 153.21 119.702 161.448 124.557 165.197ZM178.856 127.349C175.737 127.764 172.706 127.173 170.014 125.576C168.844 124.871 168.718 123.211 169.75 122.318C170.442 121.727 171.435 121.689 172.203 122.192C176.555 125.047 180.982 123.173 183.347 121.701C189.384 117.941 192.378 111.274 191.975 104.281C193.183 106.419 194.063 108.784 194.277 111.224C194.818 117.148 190.554 121.764 185.787 124.745C183.51 126.179 181.158 127.047 178.856 127.349Z" fill="#00A8BD"/>
<path d="M192.34 133.248C190.982 133.248 189.51 132.959 188.114 132.103C186.68 131.223 185.875 130.041 185.158 128.582C184.567 127.387 183.737 126.645 182.215 126.758C181.146 126.846 180.114 127.45 179.045 127.299C180.466 124.783 182.743 122.771 185.422 121.676C186.655 121.173 188.038 120.859 189.296 121.249C189.435 122.129 188.843 122.947 188.504 123.777C187.913 125.248 188.152 127.009 189.108 128.267C189.762 129.122 191.007 130.041 192.151 129.965C192.906 129.915 193.434 129.273 194.177 129.211C196.478 129.047 197.057 132.418 194.793 132.946C194.063 133.122 193.233 133.248 192.34 133.248ZM170.203 86.6084C169.284 86.7216 168.354 86.621 167.876 85.816C167.259 84.772 167.775 83.4639 168.92 83.0614C172.077 81.9545 175.624 82.1558 178.705 83.3884C181.397 84.4701 183.02 86.3065 184.089 87.5518C185.158 88.797 185.888 91.2623 185.888 91.2623C183.208 88.9354 181.686 85.2751 170.203 86.6084ZM158.153 84.1808C155.436 84.0676 158.077 84.1808 158.052 84.1808C153.75 84.1808 148.606 82.6966 147.914 77.7912C146.669 68.8607 159.851 72.3322 164.681 72.9989C164.681 72.9989 160.87 69.0871 155.876 68.7475C153.549 68.5965 151.147 68.6594 148.883 69.2632C146.392 69.9298 145.134 71.804 142.87 72.7347C141.16 73.4265 139.21 73.1624 137.449 72.6341C135.827 72.1436 130.556 69.3135 130.405 72.8354C130.368 73.8039 131.059 74.634 132.003 74.7724C135.827 75.3133 141.109 77.0239 143.072 80.6715C143.977 82.3444 144.191 84.3695 143.663 86.1933C143.411 87.0864 143.046 88.231 143.789 88.797C144.355 89.2372 145.222 88.9479 145.738 88.4448C146.254 87.9417 146.581 87.2625 147.097 86.7594C148.707 85.1745 150.166 86.3065 151.876 86.9103C153.851 87.6147 155.939 87.9543 158.04 87.9543C158.09 87.9543 154.354 87.5895 158.178 87.9543C161.989 88.3065 160.857 84.294 158.153 84.1808ZM97.6897 80.0804C95.6017 78.1937 94.6081 70.848 100.608 67.062C100.608 67.062 97.3375 67.1752 94.6081 69.3135C92.2811 71.1373 91.8157 74.2944 92.3692 77.6276C92.5075 78.4829 91.8409 79.2628 90.973 79.2125C87.8536 79.049 84.7468 79.615 82.0677 80.8476C81.0489 81.3256 80.6967 82.6086 81.3004 83.5645C81.5494 83.951 81.9309 84.2332 82.3732 84.3583C82.8156 84.4834 83.2884 84.4426 83.7028 84.2437C86.709 82.8601 91.0862 82.118 94.5955 82.9985C98.1551 83.8915 100.658 84.9229 103.45 89.7655C103.928 90.5831 104.96 90.8724 105.74 90.3441C106.343 89.929 106.595 89.1492 106.343 88.47C103.954 81.879 100.507 82.6212 97.6897 80.0804ZM105.476 102.734C105.408 102.493 105.294 102.268 105.138 102.072C104.983 101.876 104.79 101.713 104.571 101.592C104.352 101.472 104.112 101.396 103.863 101.369C103.614 101.343 103.363 101.366 103.123 101.438C100.105 102.344 95.7401 102.08 93.7905 100.117C91.1868 94.0924 89.2121 93.0233 86.0549 91.9541C84.7971 91.5265 83.5393 92.6082 83.6651 93.9163C83.7406 94.6584 84.2311 95.2873 84.9481 95.5012C87.187 96.1678 89.4385 99.174 90.5956 102.243C91.6522 105.023 91.778 108.683 89.3882 111.299C88.7718 111.978 88.646 112.96 89.1869 113.702L89.2121 113.739C89.9039 114.695 91.2874 114.771 92.0924 113.903C92.9478 112.972 93.8408 111.765 94.2182 110.545C94.6081 109.249 94.4949 108.092 95.6143 107.06C96.8596 105.903 98.0419 106.142 99.5387 106.142C101.073 106.142 102.721 105.589 104.167 105.073C105.149 104.759 105.777 103.715 105.476 102.734ZM66.911 119.79C66.4834 119.79 66.0683 119.777 65.6281 119.739C59.8044 119.236 56.7479 115.048 55.3643 110.457C53.9807 105.866 55.1505 100.872 55.1505 100.872C56.9114 114.456 63.9929 115.802 65.9551 115.978C69.6656 116.305 73.2127 114.695 74.1812 112.243C75.7157 108.369 71.0115 104.57 68.7097 102.218C67.1878 100.658 66.6217 98.0042 67.0242 95.9037C67.2255 94.8219 67.7035 93.7654 68.5965 93.0736C69.477 92.3944 71.6907 91.778 71.3889 93.7151C71.3008 94.3188 70.9109 94.8219 70.6719 95.3754C68.9487 99.2997 75.0742 102.935 76.7471 105.84C78.1181 108.192 78.7219 111.035 77.6905 113.626C76.2314 117.324 71.8165 119.79 66.911 119.79Z" fill="#00A8BD"/>
<path d="M65.5652 118.783C66.5841 118.909 67.6281 118.733 68.5463 118.28C69.4267 117.852 70.2191 117.173 71.1877 117.098C71.6531 117.073 72.2317 117.349 72.1562 117.802C72.131 117.966 73.2002 118.268 73.0618 118.356C70.5588 119.915 64.2194 121.462 68.5966 132.695C68.9488 133.588 68.672 134.594 67.8545 135.084C66.8985 135.663 65.6281 135.286 65.1753 134.267C63.9804 131.638 63.4018 128.733 63.4395 125.84C63.4773 123.022 63.7666 120.557 61.8799 118.205C61.6786 117.966 61.4648 117.626 61.6283 117.362C61.7289 117.198 61.9302 117.135 62.1188 117.085C62.8987 116.884 63.7288 116.67 64.5213 116.834C64.8734 116.909 68.8104 119.085 68.8481 119.01M177.775 136.946C175.171 136.632 172.492 136.82 170.027 137.751C167.939 138.543 166.379 140.141 163.976 139.613C162.543 139.298 161.272 138.38 160.379 137.21C158.492 134.757 158.744 132.179 159.448 129.387C160.153 126.619 160.077 123.412 158.832 120.808C158.505 120.117 157.952 119.5 157.235 119.249C156.505 118.997 155.612 119.211 155.184 119.852C154.757 120.506 154.92 121.374 155.071 122.142C155.562 124.494 156.191 127.034 155.486 129.336C154.82 131.525 153.901 133.487 152.329 135.173C149.348 138.38 145.021 139.852 141.286 138.908C138.531 138.216 136.305 136.292 134.808 133.349C134.28 131.047 133.726 128.053 130.871 127.726C130.292 127.663 129.663 127.751 129.223 128.116C128.783 128.494 128.582 129.097 128.582 129.676C128.582 131.122 129.965 132.204 130.217 133.625C131.009 137.977 128.116 142.958 123.726 145.373C120.33 147.248 111.01 148.304 102.658 141.298C102.306 140.996 102.306 140.418 101.966 140.103C101.74 139.902 101.451 139.776 101.161 139.726C99.9161 139.487 98.6206 140.669 98.7338 141.927C98.8344 143.072 99.7777 143.952 100.62 144.732C102.809 146.77 101.828 147.587 101.451 148.681C101.363 148.958 101.199 149.21 101.174 149.499C101.098 150.304 102.331 150.04 103.136 149.977C103.941 149.914 104.671 149.474 105.45 149.247C106.432 148.971 110.922 150.618 111.802 150.807C114.356 151.361 115.236 151.612 117.437 151.612C120.192 151.612 122.532 153.033 124.544 151.147C127.412 148.468 129.638 146.719 132.179 145.851C133.437 145.424 134.946 145.21 136.003 146.027C136.757 146.606 137.097 147.575 137.361 148.48C137.902 150.342 138.305 152.241 139.097 154.015C139.889 155.775 141.147 157.423 142.908 158.216C143.462 158.467 144.09 158.631 144.694 158.492C145.298 158.354 145.826 157.838 145.839 157.235C145.851 156.819 145.638 156.442 145.411 156.103C144.543 154.719 143.512 153.436 142.745 152.002C141.977 150.568 141.474 148.895 141.789 147.298C142.367 144.342 145.789 143.512 148.241 142.77C150.593 142.053 152.945 140.707 155.474 140.845C157.059 140.933 160.417 142.782 161.423 144.015C161.624 144.267 161.712 144.581 161.763 144.908C162.19 147.562 160.241 149.952 158.392 151.889C158.065 152.228 157.725 152.744 158.002 153.134C158.103 153.272 158.253 153.348 158.404 153.398C159.738 153.914 161.297 153.461 162.429 152.593C164.92 150.707 165.788 147.474 167.913 145.235C169.662 143.411 172.014 142.216 174.391 141.436C182.894 138.644 183.334 145.336 184.856 149.084C186.378 152.832 188.63 150.241 188.655 149.21C188.743 144.317 185.611 137.877 177.775 136.946Z" fill="#00A8BD"/>
<path d="M98.1426 156.807C96.8471 156.732 95.9918 155.386 96.52 154.191C97.3628 152.279 98.9476 150.38 100.998 148.921C104.117 146.707 107.237 146.304 110.369 147.197L111.01 150.392C108.985 149.814 105.362 150.455 103.186 152.002C101.614 153.122 100.532 154.493 100.004 155.637C99.6646 156.379 98.9476 156.857 98.1426 156.807Z" fill="#00A8BD"/>
<path d="M179.599 98.8344C179.36 97.237 178.114 95.7528 176.504 95.7025C175.712 95.6773 174.831 96.0924 174.618 96.8596C174.517 97.1993 174.567 97.5766 174.58 97.9288C174.68 100.545 172.58 103.073 169.989 103.438C167.058 103.853 164.895 102.042 162.681 100.532C160.568 99.0986 157.926 98.13 155.486 97.4382C148.983 95.6144 143.386 96.8345 139.122 102.205C137.537 104.205 136.028 106.394 133.802 107.627C130.305 109.564 122.921 109.702 120.745 105.903C117.89 100.935 117.79 85.6651 126.946 87.4009C129.777 87.9418 131.877 90.3945 132.078 92.2183C132.204 93.3755 131.487 94.3818 130.569 95.1616C130.231 95.4518 130.007 95.853 129.938 96.2933C129.869 96.7336 129.959 97.1841 130.192 97.564C130.795 98.5577 132.154 98.7715 133.034 98.0294C135.613 95.8157 136.015 93.4887 135.827 91.8032C135.235 86.4324 129.185 83.4011 124.381 83.2627C123.324 83.225 122.104 82.8853 121.701 81.8917C121.525 81.464 121.55 80.9986 121.513 80.5458C121.261 77.3384 117.978 73.8543 115.412 72.1939C114.469 71.5776 113.199 71.9801 112.708 72.9864C112.293 73.8543 112.62 74.8731 113.425 75.4014C115.865 77.0114 117.349 79.3509 117.84 82.3696C118.393 85.8412 117.639 89.3882 116.18 92.5453C115.45 94.1302 114.557 95.6647 113.513 97.0735C112.62 98.2936 111.35 99.1111 110.771 100.57C110.708 100.734 110.645 100.91 110.696 101.073C110.784 101.388 111.174 101.476 111.501 101.488C112.431 101.526 113.362 101.325 114.192 100.935C113.714 102.784 114.947 104.583 115.966 106.193C116.985 107.803 117.802 109.991 116.645 111.513C116.595 111.576 116.532 111.639 116.481 111.714C114.004 112.758 111.614 114.18 109.752 116.142C106.545 119.538 104.168 122.594 99.4759 124.104C95.3251 125.45 90.7089 125.286 86.6713 123.664C85.8915 123.349 85.0991 122.984 84.2563 123.01C83.4136 123.035 82.5206 123.626 82.4954 124.469C82.4828 124.896 82.6967 125.286 82.8853 125.676C85.0236 130.016 81.0992 132.833 79.4263 136.607C77.8541 140.128 77.0491 143.99 77.0491 147.851C77.0491 152.065 78.4956 155.134 83.7155 160.492C86.0802 162.907 89.1744 164.341 91.7781 165.184C92.5956 165.448 93.1113 164.329 92.3818 163.863C87.0109 160.442 86.1682 157.411 84.5331 154.291C80.6087 146.782 84.8978 135.336 92.2812 129.525C95.1364 127.286 99.1866 127.462 102.633 128.645C106.331 129.915 108.52 132.632 111.299 135.16C112.054 135.852 113.023 136.594 113.991 136.292C114.871 136.028 115.312 134.984 115.211 134.078C115.11 133.173 114.595 132.368 114.104 131.6C113.563 130.758 113.023 129.915 112.469 129.072C111.752 127.965 111.01 126.808 110.784 125.5C110.532 124.079 111.79 119.161 123.739 116.117C125.764 115.601 127.827 115.827 129.865 116.406C132.607 117.186 134.569 119.198 136.871 120.771C137.512 121.211 138.216 121.676 138.996 121.701C139.977 121.739 140.933 120.997 141.135 120.029C141.411 118.695 140.405 117.5 139.738 116.318C137.525 112.419 140.103 107.211 143.361 104.721C146.279 102.507 150.115 101.69 153.75 102.067C159.285 102.633 164.744 106.331 166.014 111.74C166.303 112.96 166.656 114.532 167.901 114.695C169.284 114.884 170.027 113.035 169.888 111.639C169.75 110.243 169.297 108.671 170.165 107.564C170.567 107.061 171.171 106.771 171.762 106.507C173.46 105.765 175.234 105.149 176.756 104.079C178.278 103.023 179.548 101.4 179.661 99.5514C179.649 99.3375 179.636 99.086 179.599 98.8344Z" fill="#9BD5FF"/>
<path d="M111.488 101.476C112.419 101.513 113.35 101.312 114.18 100.922C113.702 102.771 114.934 104.57 115.953 106.18C116.695 107.362 117.727 109.463 116.607 111.614C116.607 111.614 118.293 110.67 121.022 109.878C123.752 109.085 126.418 108.909 126.418 108.909C124.481 108.507 121.613 107.413 120.733 105.891C117.878 100.922 117.777 85.6524 126.934 87.3882C129.764 87.9291 131.865 90.3818 132.066 92.2056C132.192 93.3628 131.475 94.3691 130.556 95.1489C130.218 95.4391 129.994 95.8403 129.925 96.2806C129.856 96.7209 129.946 97.1714 130.179 97.5513C130.783 98.545 132.141 98.7588 133.022 98.0167C135.6 95.803 136.003 93.476 135.814 91.7905C135.223 86.4197 129.173 83.3884 124.368 83.25C123.311 83.2123 122.091 82.8727 121.689 81.879C121.513 81.4513 121.538 80.9859 121.5 80.5331C121.249 77.3257 117.966 73.8416 115.4 72.1812C114.456 71.5649 113.186 71.9674 112.695 72.9737C112.28 73.8416 112.607 74.8604 113.412 75.3887C115.853 76.9987 117.337 79.3382 117.827 82.357C118.381 85.8285 117.626 89.3755 116.167 92.5327C115.437 94.1175 114.544 95.652 113.5 97.0608C112.607 98.2809 111.337 99.0984 110.758 100.557C110.696 100.721 110.633 100.897 110.683 101.061C110.771 101.375 111.161 101.463 111.488 101.476Z" fill="#00A8BD"/>
</svg>
