<svg width="250" height="250" viewBox="0 0 250 250" fill="none" xmlns="http://www.w3.org/2000/svg">
<path d="M155.696 237.276C155.696 228.833 151.876 220.735 145.077 214.764C138.278 208.793 129.056 205.439 119.44 205.439C109.825 205.439 100.603 208.793 93.8039 214.764C87.0047 220.735 83.185 228.833 83.185 237.276M226.759 213.642C226.761 207.66 224.801 201.804 221.113 196.775C217.425 191.746 212.166 187.756 205.963 185.283C199.761 182.81 192.878 181.958 186.139 182.83C179.4 183.702 173.089 186.26 167.963 190.199M10 213.642C9.99733 207.66 11.9572 201.804 15.6451 196.775C19.3331 191.746 24.5929 187.756 30.7954 185.283C36.998 182.81 43.8805 181.958 50.6196 182.83C57.3588 183.702 63.6692 186.26 68.7959 190.199M119.44 194.832C122.127 194.832 124.787 194.367 127.269 193.465C129.751 192.562 132.007 191.238 133.906 189.57C135.806 187.902 137.313 185.921 138.341 183.742C139.369 181.562 139.898 179.226 139.898 176.867C139.898 174.508 139.369 172.171 138.341 169.992C137.313 167.812 135.806 165.832 133.906 164.163C132.007 162.495 129.751 161.172 127.269 160.269C124.787 159.366 122.127 158.901 119.44 158.901C114.015 158.901 108.811 160.794 104.974 164.163C101.138 167.533 98.9822 172.102 98.9822 176.867C98.9822 181.631 101.138 186.201 104.974 189.57C108.811 192.939 114.015 194.832 119.44 194.832ZM191.297 172.129C196.601 172.129 201.689 170.279 205.44 166.985C209.191 163.691 211.298 159.223 211.298 154.565C211.298 149.906 209.191 145.439 205.44 142.145C201.689 138.851 196.601 137 191.297 137C185.992 137 180.904 138.851 177.153 142.145C173.402 145.439 171.295 149.906 171.295 154.565C171.295 159.223 173.402 163.691 177.153 166.985C180.904 170.279 185.992 172.129 191.297 172.129ZM45.462 172.129C50.7668 172.129 55.8544 170.279 59.6055 166.985C63.3566 163.691 65.4639 159.223 65.4639 154.565C65.4639 149.906 63.3566 145.439 59.6055 142.145C55.8544 138.851 50.7668 137 45.462 137C40.1572 137 35.0696 138.851 31.3185 142.145C27.5674 145.439 25.4601 149.906 25.4601 154.565C25.4601 159.223 27.5674 163.691 31.3185 166.985C35.0696 170.279 40.1572 172.129 45.462 172.129Z" stroke="#9BD5FF" stroke-width="10" stroke-linecap="round" stroke-linejoin="round"/>
<ellipse cx="58.8793" cy="81" rx="44.5" ry="36" fill="#0D5F9B"/>
<path d="M16.3932 112.244L22.0104 96.9737L32.4267 109.474L16.3932 112.244Z" fill="#0D5F9B"/>
<path d="M38.1873 87.24L34.2753 78.48C33.8753 77.584 33.5073 76.952 33.1713 76.584C32.8353 76.216 32.4593 76.016 32.0433 75.984V75.528C32.0913 75.528 32.1953 75.528 32.3553 75.528C32.4993 75.512 32.6593 75.504 32.8353 75.504C33.0113 75.488 33.1313 75.48 33.1953 75.48C34.2193 75.48 35.0673 75.688 35.7393 76.104C36.4113 76.504 37.0193 77.296 37.5633 78.48L39.6033 83.064L41.2113 79.224C40.8433 78.376 40.5233 77.728 40.2513 77.28C39.9793 76.816 39.7313 76.488 39.5073 76.296C39.2833 76.104 39.0353 76 38.7633 75.984V75.528C38.8273 75.528 38.9633 75.52 39.1713 75.504C39.3953 75.488 39.5633 75.48 39.6753 75.48C40.6993 75.48 41.5873 75.688 42.3393 76.104C43.0913 76.504 43.7393 77.296 44.2833 78.48L46.4913 83.304L49.4193 75.72H50.6913L46.2753 87.24H45.1713L42.0513 80.496L39.2673 87.24H38.1873ZM56.7526 87.24C55.6326 87.24 54.6966 86.984 53.9446 86.472C53.2086 85.944 52.6486 85.232 52.2646 84.336C51.8966 83.44 51.7126 82.448 51.7126 81.36C51.7126 80.256 51.8966 79.264 52.2646 78.384C52.6486 77.488 53.2246 76.784 53.9926 76.272C54.7606 75.744 55.7206 75.48 56.8726 75.48C57.4166 75.48 57.8966 75.56 58.3126 75.72C58.7446 75.864 59.1046 76.024 59.3926 76.2V74.28C59.3926 73.56 59.2886 72.984 59.0806 72.552C58.8886 72.104 58.4326 71.88 57.7126 71.88H57.4726V71.16H60.3526C60.9126 71.16 61.3446 71.256 61.6486 71.448C61.9686 71.64 62.1926 71.96 62.3206 72.408C62.4486 72.856 62.5126 73.48 62.5126 74.28V87H60.4726L59.6326 85.92H59.5126C59.3046 86.24 58.9606 86.544 58.4806 86.832C58.0166 87.104 57.4406 87.24 56.7526 87.24ZM57.2326 86.16C57.6166 86.16 57.9526 86.072 58.2406 85.896C58.5286 85.72 58.7686 85.512 58.9606 85.272C59.1526 85.016 59.2966 84.792 59.3926 84.6V77.28C59.1686 77.104 58.8806 76.944 58.5286 76.8C58.1766 76.64 57.7846 76.56 57.3526 76.56C56.7606 76.56 56.2886 76.768 55.9366 77.184C55.5846 77.6 55.3286 78.168 55.1686 78.888C55.0246 79.608 54.9526 80.432 54.9526 81.36C54.9526 82.272 55.0246 83.096 55.1686 83.832C55.3126 84.552 55.5526 85.12 55.8886 85.536C56.2246 85.952 56.6726 86.16 57.2326 86.16ZM66.1576 91.8V90.96C66.9896 90.96 67.6856 90.8 68.2456 90.48C68.8056 90.16 69.2616 89.544 69.6136 88.632L70.1176 87.336L65.7976 77.88C65.5416 77.288 65.2216 76.84 64.8376 76.536C64.4696 76.216 64.0456 76.024 63.5656 75.96V75.48H65.6776C66.3976 75.48 67.0296 75.656 67.5736 76.008C68.1176 76.344 68.5256 76.808 68.7976 77.4L71.5576 83.448L74.4856 75.72H75.7576L70.9096 88.56C70.5896 89.424 70.2376 90.088 69.8536 90.552C69.4856 91.032 69.0776 91.36 68.6296 91.536C68.1816 91.712 67.6776 91.8 67.1176 91.8H66.1576ZM81.5845 87.24C80.4965 87.24 79.6405 86.944 79.0165 86.352C78.4085 85.76 78.1045 84.888 78.1045 83.736V76.8H76.6645V75.72H78.1045V73.56L79.3045 72.12H81.2245V75.72H83.8645V76.8H81.2245V83.88C81.2245 84.776 81.3285 85.384 81.5365 85.704C81.7605 86.008 82.0725 86.16 82.4725 86.16C82.8885 86.16 83.2565 86.088 83.5765 85.944C83.8965 85.8 84.1605 85.656 84.3685 85.512L84.7045 86.184C84.3845 86.472 83.9685 86.72 83.4565 86.928C82.9445 87.136 82.3205 87.24 81.5845 87.24Z" fill="#9BD5FF"/>
<ellipse cx="182.518" cy="92.0201" rx="44.5" ry="36" transform="rotate(-179.974 182.518 92.0201)" fill="#0D5F9B"/>
<path d="M143.757 124.539L149.923 109.481L159.88 122.35L143.757 124.539Z" fill="#0D5F9B"/>
<path d="M167.984 98.4623C166.944 98.454 165.986 98.2664 165.109 97.8994C164.245 97.5191 163.489 96.9998 162.841 96.3412C162.206 95.6828 161.712 94.9189 161.359 94.0494C161.006 93.1665 160.834 92.2185 160.842 91.2052C160.852 89.9252 161.134 88.7741 161.689 87.7518C162.244 86.7295 163.017 85.9223 164.009 85.3302C165.013 84.7382 166.176 84.4474 167.496 84.4579C168.749 84.4679 169.774 84.6428 170.572 84.9825C171.369 85.3088 171.953 85.6868 172.323 86.1164C172.587 86.4519 172.737 86.8864 172.772 87.4201C172.808 87.9537 172.824 88.4472 172.821 88.9005L172.221 88.8957C171.977 87.6671 171.517 86.7767 170.842 86.2246C170.166 85.6592 169.249 85.3719 168.089 85.3627C167.289 85.3563 166.607 85.5109 166.045 85.8264C165.496 86.1421 165.039 86.5784 164.674 87.1356C164.323 87.6928 164.065 88.3241 163.899 89.0294C163.734 89.7348 163.648 90.4675 163.642 91.2275C163.629 92.8407 163.812 94.1156 164.191 95.052C164.584 95.9884 165.112 96.6593 165.775 97.0646C166.439 97.4566 167.177 97.6558 167.991 97.6623C168.591 97.6671 169.104 97.6245 169.532 97.5346C169.959 97.4446 170.347 97.3211 170.695 97.1638L170.723 93.6039C170.725 93.3239 170.767 93.0443 170.85 92.7649C170.945 92.4857 171.127 92.2271 171.396 91.9892C171.665 91.738 172.053 91.5411 172.561 91.3985C173.082 91.256 173.769 91.1881 174.622 91.1949L174.618 91.6949C174.165 91.6913 173.837 91.8553 173.634 92.1871C173.432 92.5188 173.328 92.9847 173.323 93.5846L173.295 97.1645C172.518 97.625 171.695 97.9585 170.827 98.1649C169.958 98.3713 169.011 98.4705 167.984 98.4623ZM180.293 98.3603C179.306 98.3524 178.455 98.1323 177.738 97.6999C177.022 97.2542 176.473 96.6565 176.092 95.9068C175.712 95.157 175.525 94.3289 175.532 93.4222C175.539 92.5023 175.739 91.6772 176.132 90.9469C176.524 90.2034 177.082 89.6211 177.806 89.2002C178.529 88.766 179.384 88.5528 180.371 88.5606C181.371 88.5686 182.222 88.7954 182.926 89.241C183.642 89.6734 184.191 90.2644 184.572 91.0142C184.952 91.7505 185.139 92.5787 185.132 93.4987C185.125 94.4053 184.925 95.2304 184.532 95.974C184.139 96.7176 183.581 97.3065 182.858 97.7407C182.148 98.1617 181.293 98.3683 180.293 98.3603ZM180.3 97.4603C180.767 97.4641 181.155 97.2938 181.464 96.9496C181.787 96.6055 182.024 96.134 182.175 95.5352C182.34 94.9232 182.426 94.2372 182.432 93.4772C182.438 92.7039 182.364 92.0166 182.208 91.4153C182.066 90.8142 181.837 90.339 181.52 89.9898C181.216 89.6407 180.83 89.4643 180.364 89.4606C179.897 89.4569 179.502 89.6271 179.18 89.9712C178.87 90.3154 178.633 90.7868 178.468 91.3856C178.317 91.9844 178.238 92.6704 178.232 93.4437C178.226 94.2037 178.294 94.8909 178.436 95.5054C178.591 96.1067 178.82 96.5819 179.124 96.931C179.441 97.2802 179.833 97.4566 180.3 97.4603ZM191.328 98.4482C190.341 98.4403 189.489 98.2202 188.773 97.7878C188.056 97.3421 187.508 96.7444 187.127 95.9947C186.746 95.2449 186.56 94.4168 186.567 93.5101C186.574 92.5902 186.774 91.7651 187.167 91.0348C187.559 90.2913 188.117 89.709 188.841 89.2881C189.564 88.8538 190.419 88.6407 191.406 88.6485C192.406 88.6565 193.257 88.8833 193.96 89.3289C194.677 89.7613 195.226 90.3523 195.606 91.102C195.987 91.8384 196.174 92.6666 196.167 93.5866C196.159 94.4932 195.959 95.3183 195.567 96.0619C195.174 96.8055 194.616 97.3944 193.893 97.8286C193.183 98.2496 192.328 98.4562 191.328 98.4482ZM191.335 97.5482C191.802 97.5519 192.19 97.3817 192.499 97.0375C192.822 96.6934 193.059 96.2219 193.21 95.6231C193.375 95.0111 193.461 94.3251 193.467 93.5651C193.473 92.7918 193.398 92.1045 193.243 91.5032C193.101 90.9021 192.872 90.4269 192.554 90.0777C192.251 89.7286 191.865 89.5522 191.399 89.5485C190.932 89.5448 190.537 89.715 190.215 90.0591C189.905 90.4033 189.668 90.8747 189.503 91.4734C189.352 92.0723 189.273 92.7583 189.267 93.5316C189.261 94.2916 189.329 94.9788 189.47 95.5933C189.626 96.1946 189.855 96.6697 190.159 97.0188C190.476 97.3681 190.868 97.5445 191.335 97.5482ZM201.783 98.5315C200.849 98.524 200.071 98.3045 199.448 97.8729C198.838 97.428 198.376 96.831 198.062 96.0818C197.761 95.3327 197.614 94.5048 197.622 93.5982C197.629 92.6782 197.789 91.8528 198.101 91.1219C198.427 90.3778 198.912 89.795 199.555 89.3734C200.199 88.9386 201.001 88.7249 201.961 88.7326C202.414 88.7362 202.813 88.806 203.159 88.9421C203.518 89.065 203.817 89.2007 204.056 89.3493L204.069 87.7493C204.073 87.1494 203.99 86.6687 203.82 86.3073C203.663 85.9327 203.284 85.743 202.684 85.7382L202.484 85.7367L202.489 85.1367L204.889 85.1558C205.356 85.1595 205.715 85.2424 205.967 85.4044C206.233 85.5665 206.417 85.8346 206.521 86.2088C206.625 86.583 206.674 87.1034 206.668 87.77L206.584 98.3697L204.884 98.3562L204.191 97.4506L204.091 97.4498C203.916 97.7151 203.627 97.9661 203.225 98.203C202.837 98.4265 202.356 98.536 201.783 98.5315ZM202.19 97.6347C202.51 97.6372 202.79 97.5661 203.031 97.4214C203.273 97.2766 203.474 97.1049 203.636 96.9062C203.797 96.6941 203.919 96.5084 204 96.3491L204.049 90.2493C203.863 90.1011 203.624 89.9659 203.332 89.8435C203.04 89.7079 202.713 89.6386 202.353 89.6357C201.86 89.6318 201.465 89.802 201.169 90.1463C200.873 90.4906 200.656 90.9623 200.518 91.5612C200.393 92.1602 200.328 92.8464 200.322 93.6197C200.316 94.3797 200.37 95.0668 200.485 95.681C200.6 96.282 200.797 96.7569 201.074 97.1058C201.351 97.4547 201.723 97.631 202.19 97.6347Z" fill="#9BD5FF"/>
</svg>
