<svg width="1084" height="499" viewBox="0 0 1084 499" fill="none" xmlns="http://www.w3.org/2000/svg">
<rect width="1084" height="499" fill="black"/>
<ellipse cx="508.603" cy="148.694" rx="73.603" ry="64.9438" fill="#68E9E1"/>
<ellipse cx="592.308" cy="137.149" rx="56.2846" ry="85.1485" fill="#68E9E1"/>
<path d="M409.944 313.072L405.336 324.784C404.696 326.576 404.12 328.432 403.608 330.352C403.096 332.272 402.552 333.936 401.976 335.344C401.4 336.816 400.504 337.968 399.288 338.8C398.136 339.632 396.824 340.24 395.352 340.624C393.88 341.072 392.344 341.264 390.744 341.2C389.208 341.136 387.832 340.848 386.616 340.336C383.864 339.056 382.904 336.944 383.736 334C386.68 321.072 389.432 310.704 391.992 302.896C394.616 295.088 396.76 288.944 398.424 284.464C400.152 279.984 401.944 275.248 403.8 270.256C403.992 268.4 404.76 266.736 406.104 265.264C407.448 263.792 409.016 262.576 410.808 261.616C412.664 260.656 414.584 259.984 416.568 259.6C418.552 259.152 420.312 259.088 421.848 259.408C423.384 259.728 424.504 260.432 425.208 261.52C425.976 262.608 426.04 264.176 425.4 266.224C423.096 272.112 421.464 276.272 420.504 278.704C419.544 281.136 418.68 283.312 417.912 285.232L415.224 291.568C416.568 291.632 418.264 291.44 420.312 290.992C424.024 290.16 426.712 289.872 428.376 290.128C428.376 289.808 428.536 289.264 428.856 288.496C430.648 280.688 432.664 273.52 434.904 266.992C436.504 261.616 440.632 258.8 447.288 258.544C449.912 258.544 451.896 259.184 453.24 260.464C454.712 261.808 454.904 263.632 453.816 265.936C447.928 282.448 443.768 295.472 441.336 305.008C438.584 316.016 436.76 323.44 435.864 327.28C435.032 331.12 434.296 333.392 433.656 334.096C433.016 334.8 432.344 335.28 431.64 335.536C431 335.856 430.36 336.144 429.72 336.4C429.08 336.656 428.568 337.296 428.184 338.32H427.896C427.384 339.472 426.264 340.368 424.536 341.008C422.808 341.648 421.048 341.872 419.256 341.68C417.528 341.552 416.056 340.912 414.84 339.76C413.688 338.672 413.4 336.976 413.976 334.672C414.616 331.024 415.672 327.12 417.144 322.96C418.616 318.736 419.768 315.44 420.6 313.072C421.496 310.704 422.232 308.496 422.808 306.448C422.296 306.704 421.784 306.896 421.272 307.024C420.824 307.152 420.248 307.408 419.544 307.792C418.84 308.112 418.104 308.4 417.336 308.656C416.632 308.912 415.928 309.168 415.224 309.424C413.432 310.128 411.96 310.832 410.808 311.536L409.944 313.072ZM420.792 306.64C420.856 306.64 421.176 306.544 421.752 306.352C421.368 306.48 421.048 306.576 420.792 306.64ZM487.406 292.816L487.79 292.912C487.918 292.912 487.982 292.944 487.982 293.008C489.646 292.368 491.022 292.848 492.11 294.448C492.814 295.536 493.358 297.2 493.742 299.44C493.87 302.512 493.55 306.768 492.781 312.208C491.31 323.216 490.51 329.776 490.382 331.888C490.51 334.128 489.134 335.664 486.254 336.496C483.758 337.264 481.262 337.232 478.766 336.4C476.142 335.504 475.054 334.128 475.502 332.272C474.99 333.232 474.478 333.904 473.966 334.288C473.454 334.736 472.43 335.312 470.894 336.016C469.422 336.784 467.31 337.392 464.558 337.84C461.806 338.352 459.054 338.48 456.302 338.224C453.55 338.032 451.022 337.36 448.718 336.208C446.478 335.12 444.974 333.392 444.206 331.024C442.733 326.416 442.925 320.56 444.782 313.456C446.062 308.784 448.366 304.656 451.694 301.072C455.534 296.976 459.886 293.584 464.75 290.896C468.398 288.912 471.918 287.728 475.31 287.344C476.462 287.216 477.454 287.248 478.286 287.44C479.182 287.632 480.11 287.824 481.07 288.016C482.094 288.208 483.054 288.496 483.95 288.88C486.254 289.84 487.406 291.152 487.406 292.816ZM469.646 318.256C470.094 317.36 470.446 316.24 470.702 314.896C471.022 313.552 471.438 312.08 471.95 310.48C466.766 312.592 462.798 315.184 460.046 318.256C457.038 321.648 457.23 323.984 460.622 325.264C463.566 326.032 465.71 325.552 467.054 323.824C467.63 323.056 468.142 322.096 468.59 320.944C469.038 319.792 469.582 318.608 470.222 317.392C470.03 317.712 469.838 318 469.646 318.256ZM507.578 292.432C508.41 290.32 510.394 288.88 513.53 288.112C516.474 287.344 519.226 287.44 521.786 288.4C524.41 289.424 525.594 291.088 525.338 293.392C524.634 295.632 523.738 298.384 522.65 301.648C521.626 304.848 520.634 308.144 519.674 311.536C517.114 320.24 515.642 326.384 515.258 329.968C514.298 335.728 512.698 338.832 510.458 339.28C509.818 339.408 509.21 339.504 508.634 339.568C507.226 339.632 506.33 340.016 505.946 340.72C505.562 341.424 504.922 341.936 504.026 342.256C503.13 342.64 502.138 342.8 501.05 342.736C500.026 342.736 498.97 342.48 497.882 341.968C496.794 341.52 495.866 340.848 495.098 339.952C493.306 337.776 492.954 334.864 494.042 331.216C495.066 324.24 497.658 315.376 501.818 304.624C503.802 299.312 505.722 295.248 507.578 292.432ZM525.722 278.032C522.586 278.672 520.026 278.48 518.042 277.456C516.122 276.432 515.002 275.216 514.682 273.808C514.362 272.336 514.81 270.832 516.026 269.296C517.434 267.376 519.546 266.128 522.362 265.552C523.642 265.424 524.57 265.36 525.146 265.36C525.722 265.36 526.426 265.488 527.258 265.744C529.37 265.936 530.746 266.864 531.386 268.528C532.282 269.936 532.346 271.536 531.578 273.328C530.874 275.12 528.922 276.688 525.722 278.032ZM535.734 294.256C536.63 291.952 537.878 290.224 539.478 289.072C541.142 287.856 542.71 287.12 544.182 286.864C545.718 286.544 546.966 286.704 547.926 287.344C548.95 287.984 549.302 288.976 548.982 290.32C550.198 289.104 551.958 287.984 554.262 286.96C556.566 285.936 558.39 285.232 559.734 284.848C561.078 284.464 562.23 284.272 563.19 284.272C565.302 284.4 565.91 285.552 565.014 287.728C566.102 287.92 566.902 288.624 567.414 289.84C567.926 291.056 567.99 292.4 567.606 293.872C567.222 295.344 566.358 296.784 565.014 298.192C563.67 299.6 561.846 300.56 559.542 301.072C557.302 301.584 555.414 302.768 553.878 304.624C552.406 306.416 551.094 308.656 549.942 311.344C548.022 315.888 546.294 322.32 544.758 330.64C544.246 333.648 542.166 336.176 538.518 338.224C535.062 340.208 531.894 340.784 529.014 339.952C525.75 339.056 524.31 336.656 524.694 332.752C524.822 330 525.654 326.352 527.19 321.808C528.726 317.2 529.91 313.744 530.742 311.44C531.574 309.072 532.15 307.28 532.47 306.064L535.734 294.256ZM582.722 330.256C582.338 331.6 581.89 332.784 581.378 333.808C580.866 334.832 580.098 335.792 579.074 336.688C578.05 337.584 576.834 338.416 575.426 339.184C574.018 340.016 572.674 340.592 571.394 340.912C568.45 341.552 566.914 340.688 566.786 338.32C566.594 337.68 566.178 337.296 565.538 337.168C564.962 337.104 564.418 336.944 563.906 336.688C562.562 336.112 562.178 334.544 562.754 331.984C563.778 328.464 564.898 324.208 566.114 319.216C567.33 314.16 568.898 308.624 570.818 302.608C575.362 288.016 580.994 274.864 587.714 263.152C588.162 262.576 588.674 261.84 589.25 260.944C589.826 259.984 590.562 259.12 591.458 258.352C593.698 256.304 596.45 255.824 599.714 256.912C599.65 257.744 599.842 258.512 600.29 259.216C600.738 259.856 601.25 260.528 601.826 261.232C603.298 262.896 603.97 264.4 603.842 265.744C597.058 281.808 590.946 299.76 585.506 319.6C584.866 321.904 584.354 323.92 583.97 325.648C583.586 327.376 583.17 328.912 582.722 330.256ZM604.797 292.432C605.629 290.32 607.613 288.88 610.749 288.112C613.693 287.344 616.445 287.44 619.005 288.4C621.629 289.424 622.813 291.088 622.557 293.392C621.853 295.632 620.957 298.384 619.869 301.648C618.845 304.848 617.853 308.144 616.893 311.536C614.333 320.24 612.861 326.384 612.477 329.968C611.517 335.728 609.917 338.832 607.677 339.28C607.037 339.408 606.429 339.504 605.853 339.568C604.445 339.632 603.549 340.016 603.165 340.72C602.781 341.424 602.141 341.936 601.245 342.256C600.349 342.64 599.357 342.8 598.269 342.736C597.245 342.736 596.189 342.48 595.101 341.968C594.013 341.52 593.085 340.848 592.317 339.952C590.525 337.776 590.173 334.864 591.261 331.216C592.285 324.24 594.877 315.376 599.037 304.624C601.021 299.312 602.941 295.248 604.797 292.432ZM622.941 278.032C619.805 278.672 617.245 278.48 615.261 277.456C613.341 276.432 612.221 275.216 611.901 273.808C611.581 272.336 612.029 270.832 613.245 269.296C614.653 267.376 616.765 266.128 619.581 265.552C620.861 265.424 621.789 265.36 622.365 265.36C622.941 265.36 623.645 265.488 624.477 265.744C626.589 265.936 627.965 266.864 628.605 268.528C629.501 269.936 629.565 271.536 628.797 273.328C628.093 275.12 626.141 276.688 622.941 278.032ZM636.313 292.24C636.441 291.024 637.209 290.032 638.617 289.264C640.025 288.496 641.593 288.112 643.321 288.112C645.049 288.112 646.713 288.528 648.313 289.36C649.977 290.128 651.097 291.472 651.673 293.392C657.113 288.656 662.073 286.832 666.553 287.92C668.089 288.24 669.401 289.136 670.489 290.608C673.753 287.472 677.369 285.424 681.337 284.464C686.329 284.272 689.913 285.424 692.089 287.92C692.409 288.24 692.729 288.592 693.049 288.976C693.945 289.936 694.457 290.576 694.585 290.896C695.737 292.688 696.057 296.816 695.545 303.28C694.841 311.664 693.241 320.08 690.745 328.528C689.401 332.816 688.185 335.024 687.097 335.152C686.457 335.28 685.849 335.28 685.273 335.152C684.761 335.024 684.281 334.928 683.833 334.864C683.449 334.864 683.225 335.248 683.161 336.016C681.881 337.68 679.929 338.512 677.305 338.512C674.745 338.512 672.569 337.712 670.777 336.112C668.793 334.448 668.089 332.496 668.665 330.256C669.305 327.952 670.009 325.616 670.777 323.248C671.545 320.816 672.377 318.32 673.273 315.76C674.809 311.28 676.505 306.608 678.361 301.744C677.017 303.28 675.193 306.192 672.889 310.48C670.585 314.704 669.145 317.232 668.569 318.064C667.481 320.24 666.585 321.968 665.881 323.248C665.177 324.464 664.217 325.456 663.001 326.224C661.849 326.928 660.761 327.376 659.737 327.568C658.777 327.76 657.849 327.792 656.953 327.664C654.841 327.344 653.337 326.448 652.441 324.976C652.249 324.464 652.057 323.952 651.865 323.44C651.673 322.928 651.513 322.224 651.385 321.328C651.193 319.344 651.449 316.112 652.153 311.632L651.961 311.92C652.729 311.152 652.985 310.96 652.729 311.344C650.169 314.992 648.633 317.328 648.121 318.352C647.609 319.376 647.065 320.528 646.489 321.808C645.913 323.024 645.241 324.464 644.473 326.128C643.705 327.728 643.097 329.168 642.649 330.448C642.201 331.728 641.657 332.976 641.017 334.192C638.137 339.184 633.081 341.2 625.849 340.24C624.313 340.048 623.001 339.664 621.913 339.088C620.825 338.576 620.377 337.776 620.569 336.688C621.081 334.128 622.265 329.872 624.121 323.92C627.769 312.144 629.945 304.56 630.649 301.168C631.097 300.016 631.481 298.832 631.801 297.616C632.185 296.4 632.569 295.344 632.953 294.448C633.721 292.336 634.841 291.6 636.313 292.24ZM669.625 315.952V316.144C669.753 315.888 669.753 315.824 669.625 315.952Z" fill="#A224F2"/>
<path d="M284.856 421.24C284.152 421.24 283.288 421.112 282.264 420.856C281.24 420.568 280.232 419.992 279.24 419.128C278.248 418.232 277.4 416.856 276.696 415L275.496 411.88H262.056L258.216 421H256.056L269.496 389.32H270.936L281.496 415C282.264 416.792 283 418.056 283.704 418.792C284.408 419.496 285.432 419.912 286.776 420.04V421C286.52 421.064 286.216 421.112 285.864 421.144C285.544 421.208 285.208 421.24 284.856 421.24ZM262.776 409.96H274.536L268.776 396.04L262.776 409.96ZM300.925 421V395.08C300.925 393.64 300.717 392.488 300.301 391.624C299.917 390.728 299.005 390.28 297.565 390.28H296.605V389.32H300.925C302.045 389.32 302.909 389.464 303.517 389.752C304.157 390.04 304.605 390.6 304.861 391.432C305.117 392.264 305.245 393.48 305.245 395.08V400.36C305.853 399.752 306.685 399.208 307.741 398.728C308.797 398.216 310.045 397.96 311.485 397.96C312.509 397.96 313.501 398.088 314.461 398.344C315.453 398.6 316.333 399.048 317.101 399.688C317.869 400.296 318.477 401.176 318.925 402.328C319.405 403.448 319.645 404.872 319.645 406.6V421H315.325V406.6C315.325 405 315.069 403.736 314.557 402.808C314.045 401.848 313.389 401.16 312.589 400.744C311.789 400.328 310.941 400.12 310.045 400.12C309.085 400.12 308.189 400.376 307.357 400.888C306.557 401.4 305.853 401.992 305.245 402.664V421H300.925ZM331.707 421.48C331.035 421.48 330.299 421.368 329.499 421.144C328.731 420.952 327.979 420.6 327.243 420.088C326.507 419.576 325.899 418.888 325.419 418.024C324.971 417.16 324.747 416.072 324.747 414.76C324.747 413 325.307 411.64 326.427 410.68C327.579 409.72 329.083 409.048 330.939 408.664C332.827 408.248 334.843 408.04 336.987 408.04H338.427C338.427 405.8 338.203 404.104 337.755 402.952C337.307 401.768 336.699 400.968 335.931 400.552C335.195 400.104 334.347 399.88 333.387 399.88C332.043 399.88 330.907 400.168 329.979 400.744C329.083 401.32 328.459 402.392 328.107 403.96H325.947C325.947 403.128 325.995 402.36 326.091 401.656C326.187 400.92 326.539 400.248 327.147 399.64C327.755 399.032 328.747 398.6 330.123 398.344C331.499 398.088 332.907 397.96 334.347 397.96C335.435 397.96 336.475 398.088 337.467 398.344C338.491 398.6 339.387 399.08 340.155 399.784C340.955 400.456 341.579 401.464 342.027 402.808C342.507 404.12 342.747 405.864 342.747 408.04V421H340.347L338.667 418.84H338.427C337.947 419.448 337.163 420.04 336.075 420.616C334.987 421.192 333.531 421.48 331.707 421.48ZM333.867 419.32C335.051 419.32 335.979 419.032 336.651 418.456C337.355 417.848 337.947 417.176 338.427 416.44V409.96H336.987C334.587 409.96 332.699 410.408 331.323 411.304C329.979 412.168 329.307 413.32 329.307 414.76C329.307 416.328 329.771 417.48 330.699 418.216C331.627 418.952 332.683 419.32 333.867 419.32ZM350.16 421V404.2C350.16 402.76 349.952 401.608 349.536 400.744C349.152 399.848 348.24 399.4 346.8 399.4H345.84V398.44H350.16C351.28 398.44 352.144 398.584 352.752 398.872C353.392 399.16 353.84 399.72 354.096 400.552C354.352 401.384 354.48 402.6 354.48 404.2V421H350.16ZM351.984 395.56C351.248 395.56 350.608 395.256 350.064 394.648C349.552 394.04 349.296 393.32 349.296 392.488C349.296 391.816 349.488 391.288 349.872 390.904C350.288 390.52 350.832 390.328 351.504 390.328C352.24 390.328 352.864 390.632 353.376 391.24C353.92 391.848 354.192 392.568 354.192 393.4C354.192 394.072 353.984 394.6 353.568 394.984C353.184 395.368 352.656 395.56 351.984 395.56ZM361.637 421V404.2C361.637 402.76 361.429 401.608 361.013 400.744C360.629 399.848 359.717 399.4 358.277 399.4H357.797V398.44H361.637C362.853 398.44 363.765 398.616 364.373 398.968C365.013 399.32 365.461 399.864 365.717 400.6C366.261 400.056 367.045 399.48 368.069 398.872C369.125 398.264 370.341 397.96 371.717 397.96C372.197 397.96 372.709 398.024 373.253 398.152C373.797 398.248 374.245 398.424 374.597 398.68C374.949 398.936 375.253 399.24 375.509 399.592C375.765 399.944 376.021 400.36 376.277 400.84L374.357 402.28C374.005 401.8 373.477 401.448 372.773 401.224C372.101 400.968 371.349 400.84 370.517 400.84C369.557 400.84 368.677 401.064 367.877 401.512C367.077 401.928 366.437 402.504 365.957 403.24C365.957 403.4 365.957 403.64 365.957 403.96C365.957 404.248 365.957 404.488 365.957 404.68V421H361.637ZM393.051 430.12V404.2C393.051 402.76 392.843 401.608 392.427 400.744C392.043 399.848 391.131 399.4 389.691 399.4H388.731V398.44H393.051C394.267 398.44 395.179 398.616 395.787 398.968C396.427 399.32 396.875 399.864 397.131 400.6C397.771 399.96 398.635 399.368 399.723 398.824C400.811 398.248 402.187 397.96 403.851 397.96C405.771 397.96 407.371 398.488 408.651 399.544C409.931 400.6 410.891 402.024 411.531 403.816C412.171 405.576 412.491 407.544 412.491 409.72C412.491 411.864 412.155 413.832 411.483 415.624C410.843 417.416 409.851 418.84 408.507 419.896C407.163 420.952 405.451 421.48 403.371 421.48C402.027 421.48 400.875 421.32 399.915 421C398.955 420.712 398.107 420.392 397.371 420.04V430.12H393.051ZM401.931 419.56C403.371 419.56 404.523 419.128 405.387 418.264C406.283 417.368 406.923 416.184 407.307 414.712C407.723 413.208 407.931 411.544 407.931 409.72C407.931 407.864 407.739 406.2 407.355 404.728C406.971 403.256 406.363 402.088 405.531 401.224C404.731 400.328 403.691 399.88 402.411 399.88C401.099 399.88 400.043 400.184 399.243 400.792C398.443 401.368 397.819 402.024 397.371 402.76V418.12C398.107 418.472 398.859 418.808 399.627 419.128C400.427 419.416 401.195 419.56 401.931 419.56ZM418.543 421V404.2C418.543 402.76 418.335 401.608 417.919 400.744C417.535 399.848 416.623 399.4 415.183 399.4H414.703V398.44H418.543C419.759 398.44 420.671 398.616 421.279 398.968C421.919 399.32 422.367 399.864 422.623 400.6C423.167 400.056 423.951 399.48 424.975 398.872C426.031 398.264 427.247 397.96 428.623 397.96C429.103 397.96 429.615 398.024 430.159 398.152C430.703 398.248 431.151 398.424 431.503 398.68C431.855 398.936 432.159 399.24 432.415 399.592C432.671 399.944 432.927 400.36 433.183 400.84L431.263 402.28C430.911 401.8 430.383 401.448 429.679 401.224C429.007 400.968 428.255 400.84 427.423 400.84C426.463 400.84 425.583 401.064 424.783 401.512C423.983 401.928 423.343 402.504 422.863 403.24C422.863 403.4 422.863 403.64 422.863 403.96C422.863 404.248 422.863 404.488 422.863 404.68V421H418.543ZM446.079 421.48C443.839 421.48 441.935 420.952 440.367 419.896C438.799 418.84 437.599 417.416 436.767 415.624C435.935 413.832 435.519 411.864 435.519 409.72C435.519 407.544 435.935 405.576 436.767 403.816C437.599 402.024 438.799 400.6 440.367 399.544C441.935 398.488 443.839 397.96 446.079 397.96C448.319 397.96 450.223 398.488 451.791 399.544C453.359 400.6 454.559 402.024 455.391 403.816C456.223 405.576 456.639 407.544 456.639 409.72C456.639 411.864 456.223 413.832 455.391 415.624C454.559 417.416 453.359 418.84 451.791 419.896C450.223 420.952 448.319 421.48 446.079 421.48ZM446.079 419.56C447.295 419.56 448.351 419.128 449.247 418.264C450.143 417.368 450.831 416.184 451.311 414.712C451.823 413.208 452.079 411.544 452.079 409.72C452.079 407.864 451.823 406.2 451.311 404.728C450.831 403.256 450.143 402.088 449.247 401.224C448.351 400.328 447.295 399.88 446.079 399.88C444.895 399.88 443.839 400.328 442.911 401.224C442.015 402.088 441.311 403.256 440.799 404.728C440.319 406.2 440.079 407.864 440.079 409.72C440.079 411.544 440.319 413.208 440.799 414.712C441.311 416.184 442.015 417.368 442.911 418.264C443.839 419.128 444.895 419.56 446.079 419.56ZM469.709 421.48C467.789 421.48 466.189 420.952 464.909 419.896C463.629 418.84 462.669 417.416 462.029 415.624C461.389 413.832 461.069 411.864 461.069 409.72C461.069 407.544 461.389 405.576 462.029 403.816C462.701 402.024 463.709 400.6 465.053 399.544C466.397 398.488 468.109 397.96 470.189 397.96C471.533 397.96 472.685 398.12 473.645 398.44C474.605 398.728 475.453 399.048 476.189 399.4V395.08C476.189 393.64 475.981 392.488 475.565 391.624C475.181 390.728 474.269 390.28 472.829 390.28H471.869V389.32H476.189C477.309 389.32 478.173 389.464 478.781 389.752C479.421 390.04 479.869 390.6 480.125 391.432C480.381 392.264 480.509 393.48 480.509 395.08V421H478.109L476.429 418.84H476.189C475.677 419.448 474.957 420.04 474.029 420.616C473.101 421.192 471.661 421.48 469.709 421.48ZM471.148 419.56C472.141 419.56 472.941 419.416 473.549 419.128C474.157 418.84 474.653 418.488 475.037 418.072C475.453 417.624 475.837 417.16 476.189 416.68V401.32C475.453 400.968 474.685 400.648 473.885 400.36C473.117 400.04 472.365 399.88 471.629 399.88C470.189 399.88 469.021 400.328 468.125 401.224C467.261 402.088 466.621 403.256 466.205 404.728C465.821 406.2 465.629 407.864 465.629 409.72C465.629 411.544 465.821 413.208 466.205 414.712C466.589 416.184 467.181 417.368 467.981 418.264C468.813 419.128 469.869 419.56 471.148 419.56ZM495.648 421.48C494.304 421.48 493.008 421.24 491.76 420.76C490.512 420.28 489.488 419.416 488.688 418.168C487.888 416.92 487.488 415.144 487.488 412.84V404.2C487.488 402.76 487.28 401.608 486.864 400.744C486.48 399.848 485.568 399.4 484.128 399.4H483.648V398.44H487.488C488.608 398.44 489.472 398.584 490.08 398.872C490.72 399.16 491.168 399.72 491.424 400.552C491.68 401.384 491.808 402.6 491.808 404.2V412.84C491.808 414.44 492.064 415.72 492.576 416.68C493.088 417.608 493.744 418.28 494.544 418.696C495.376 419.112 496.224 419.32 497.088 419.32C497.728 419.32 498.336 419.208 498.912 418.984C499.488 418.728 500.032 418.408 500.544 418.024C501.056 417.64 501.504 417.224 501.888 416.776V398.44H506.208V421H503.808L502.128 419.08H501.888C501.28 419.688 500.448 420.248 499.392 420.76C498.336 421.24 497.088 421.48 495.648 421.48ZM522.392 421.48C520.024 421.48 518.056 420.952 516.488 419.896C514.92 418.84 513.752 417.416 512.984 415.624C512.216 413.832 511.832 411.864 511.832 409.72C511.832 407.544 512.216 405.576 512.984 403.816C513.752 402.024 514.92 400.6 516.488 399.544C518.056 398.488 520.024 397.96 522.392 397.96C524.088 397.96 525.512 398.088 526.664 398.344C527.848 398.6 528.744 399.032 529.352 399.64C529.96 400.248 530.312 401 530.408 401.896C530.504 402.76 530.552 404.088 530.552 405.88H529.592C529.464 403.832 528.808 402.328 527.624 401.368C526.472 400.376 525.048 399.88 523.352 399.88C521.752 399.88 520.44 400.328 519.416 401.224C518.392 402.088 517.624 403.256 517.112 404.728C516.632 406.2 516.392 407.864 516.392 409.72C516.392 411.544 516.632 413.208 517.112 414.712C517.624 416.184 518.392 417.368 519.416 418.264C520.44 419.128 521.752 419.56 523.352 419.56C525.048 419.56 526.424 419.224 527.48 418.552C528.536 417.88 529.48 416.936 530.312 415.72L531.272 416.44C530.568 417.656 529.768 418.632 528.872 419.368C527.976 420.104 526.984 420.648 525.896 421C524.84 421.32 523.672 421.48 522.392 421.48ZM543.003 421.48C541.307 421.48 539.915 420.984 538.827 419.992C537.771 419 537.243 417.416 537.243 415.24V400.36H533.883V398.44H537.243V394.12L539.643 391.24H541.563V398.44H547.323V400.36H541.563V415.24C541.563 416.68 541.835 417.768 542.379 418.504C542.955 419.208 543.803 419.56 544.923 419.56C545.755 419.56 546.443 419.464 546.987 419.272C547.531 419.08 548.043 418.856 548.523 418.6L549.003 419.56C548.491 419.944 547.787 420.36 546.891 420.808C545.995 421.256 544.699 421.48 543.003 421.48ZM560.086 421.48C558.166 421.48 556.598 421.32 555.382 421C554.166 420.648 553.254 420.168 552.646 419.56C552.038 418.952 551.686 418.264 551.59 417.496C551.494 416.728 551.446 415.736 551.446 414.52H552.406C552.662 416.088 553.334 417.32 554.422 418.216C555.51 419.112 557.078 419.56 559.126 419.56C560.95 419.56 562.278 419.24 563.11 418.6C563.974 417.96 564.406 417.16 564.406 416.2C564.406 415.24 564.038 414.44 563.302 413.8C562.598 413.128 561.526 412.488 560.086 411.88L557.206 410.68C555.382 409.944 553.958 409.08 552.934 408.088C551.942 407.064 551.446 405.768 551.446 404.2C551.446 402.184 552.198 400.648 553.702 399.592C555.206 398.504 557.094 397.96 559.366 397.96C561.19 397.96 562.694 398.136 563.878 398.488C565.062 398.808 565.958 399.272 566.566 399.88C567.174 400.488 567.526 401.176 567.622 401.944C567.718 402.712 567.766 403.704 567.766 404.92H566.806C566.55 403.352 565.878 402.12 564.79 401.224C563.734 400.328 562.246 399.88 560.326 399.88C558.758 399.88 557.558 400.2 556.726 400.84C555.926 401.48 555.526 402.28 555.526 403.24C555.526 404.072 555.862 404.84 556.534 405.544C557.206 406.216 558.15 406.808 559.366 407.32L562.246 408.52C564.294 409.352 565.846 410.264 566.902 411.256C567.958 412.248 568.486 413.576 568.486 415.24C568.486 417.256 567.686 418.808 566.086 419.896C564.486 420.952 562.486 421.48 560.086 421.48ZM595.236 421.48C592.996 421.48 591.092 420.952 589.524 419.896C587.956 418.84 586.756 417.416 585.924 415.624C585.092 413.832 584.676 411.864 584.676 409.72C584.676 407.544 585.092 405.576 585.924 403.816C586.756 402.024 587.956 400.6 589.524 399.544C591.092 398.488 592.996 397.96 595.236 397.96C597.476 397.96 599.38 398.488 600.948 399.544C602.516 400.6 603.716 402.024 604.548 403.816C605.38 405.576 605.796 407.544 605.796 409.72C605.796 411.864 605.38 413.832 604.548 415.624C603.716 417.416 602.516 418.84 600.948 419.896C599.38 420.952 597.476 421.48 595.236 421.48ZM595.236 419.56C596.452 419.56 597.508 419.128 598.404 418.264C599.3 417.368 599.988 416.184 600.468 414.712C600.98 413.208 601.236 411.544 601.236 409.72C601.236 407.864 600.98 406.2 600.468 404.728C599.988 403.256 599.3 402.088 598.404 401.224C597.508 400.328 596.452 399.88 595.236 399.88C594.052 399.88 592.996 400.328 592.068 401.224C591.172 402.088 590.468 403.256 589.956 404.728C589.476 406.2 589.236 407.864 589.236 409.72C589.236 411.544 589.476 413.208 589.956 414.712C590.468 416.184 591.172 417.368 592.068 418.264C592.996 419.128 594.052 419.56 595.236 419.56ZM612.145 421V404.2C612.145 402.76 611.937 401.608 611.521 400.744C611.137 399.848 610.225 399.4 608.785 399.4H607.825V398.44H612.145C613.361 398.44 614.273 398.616 614.881 398.968C615.521 399.288 615.969 399.752 616.225 400.36C616.865 399.816 617.745 399.288 618.865 398.776C619.985 398.232 621.265 397.96 622.705 397.96C624.081 397.96 625.377 398.2 626.593 398.68C627.841 399.16 628.865 400.024 629.665 401.272C630.465 402.488 630.865 404.264 630.865 406.6V421H626.545V406.6C626.545 405 626.289 403.736 625.777 402.808C625.265 401.848 624.609 401.16 623.809 400.744C623.009 400.328 622.161 400.12 621.265 400.12C620.305 400.12 619.409 400.376 618.577 400.888C617.777 401.4 617.073 401.992 616.465 402.664V421H612.145ZM637.726 421V395.08C637.726 393.64 637.518 392.488 637.102 391.624C636.718 390.728 635.806 390.28 634.366 390.28H633.406V389.32H637.726C638.846 389.32 639.71 389.464 640.318 389.752C640.958 390.04 641.406 390.6 641.662 391.432C641.918 392.264 642.046 393.48 642.046 395.08V421H637.726ZM649.879 421V404.2C649.879 402.76 649.671 401.608 649.255 400.744C648.871 399.848 647.959 399.4 646.519 399.4H645.559V398.44H649.879C650.999 398.44 651.863 398.584 652.471 398.872C653.111 399.16 653.559 399.72 653.815 400.552C654.071 401.384 654.199 402.6 654.199 404.2V421H649.879ZM651.703 395.56C650.967 395.56 650.327 395.256 649.783 394.648C649.271 394.04 649.015 393.32 649.015 392.488C649.015 391.816 649.207 391.288 649.591 390.904C650.007 390.52 650.551 390.328 651.223 390.328C651.959 390.328 652.583 390.632 653.095 391.24C653.639 391.848 653.911 392.568 653.911 393.4C653.911 394.072 653.703 394.6 653.287 394.984C652.903 395.368 652.375 395.56 651.703 395.56ZM661.692 421V404.2C661.692 402.76 661.484 401.608 661.068 400.744C660.684 399.848 659.772 399.4 658.332 399.4H657.372V398.44H661.692C662.908 398.44 663.82 398.616 664.428 398.968C665.068 399.288 665.516 399.752 665.772 400.36C666.412 399.816 667.292 399.288 668.412 398.776C669.532 398.232 670.812 397.96 672.252 397.96C673.628 397.96 674.924 398.2 676.14 398.68C677.388 399.16 678.412 400.024 679.212 401.272C680.012 402.488 680.412 404.264 680.412 406.6V421H676.092V406.6C676.092 405 675.836 403.736 675.324 402.808C674.812 401.848 674.156 401.16 673.356 400.744C672.556 400.328 671.708 400.12 670.812 400.12C669.852 400.12 668.956 400.376 668.124 400.888C667.324 401.4 666.62 401.992 666.012 402.664V421H661.692ZM695.865 421.48C693.625 421.48 691.753 420.952 690.249 419.896C688.777 418.84 687.657 417.416 686.889 415.624C686.153 413.832 685.785 411.864 685.785 409.72C685.785 407.544 686.169 405.576 686.937 403.816C687.705 402.024 688.809 400.6 690.249 399.544C691.689 398.488 693.401 397.96 695.385 397.96C697.561 397.96 699.353 398.376 700.761 399.208C702.201 400.008 703.257 401.192 703.929 402.76C704.633 404.328 704.985 406.248 704.985 408.52L704.889 410.44H690.345C690.345 413.064 690.905 415.24 692.025 416.968C693.177 418.696 694.777 419.56 696.825 419.56C698.393 419.56 699.689 419.224 700.713 418.552C701.769 417.88 702.713 416.936 703.545 415.72L704.505 416.44C703.801 417.656 703.001 418.632 702.105 419.368C701.241 420.104 700.281 420.648 699.225 421C698.201 421.32 697.081 421.48 695.865 421.48ZM690.345 408.52H700.425C700.425 405.736 700.009 403.608 699.177 402.136C698.345 400.632 697.081 399.88 695.385 399.88C694.425 399.88 693.561 400.264 692.793 401.032C692.057 401.768 691.465 402.792 691.017 404.104C690.569 405.384 690.345 406.856 690.345 408.52ZM730.055 421.48C728.135 421.48 726.567 421.32 725.351 421C724.135 420.648 723.223 420.168 722.615 419.56C722.007 418.952 721.655 418.264 721.559 417.496C721.463 416.728 721.415 415.736 721.415 414.52H722.375C722.631 416.088 723.303 417.32 724.391 418.216C725.479 419.112 727.047 419.56 729.095 419.56C730.919 419.56 732.247 419.24 733.079 418.6C733.943 417.96 734.375 417.16 734.375 416.2C734.375 415.24 734.007 414.44 733.271 413.8C732.567 413.128 731.495 412.488 730.055 411.88L727.175 410.68C725.351 409.944 723.927 409.08 722.903 408.088C721.911 407.064 721.415 405.768 721.415 404.2C721.415 402.184 722.167 400.648 723.671 399.592C725.175 398.504 727.063 397.96 729.335 397.96C731.159 397.96 732.663 398.136 733.847 398.488C735.031 398.808 735.927 399.272 736.535 399.88C737.143 400.488 737.495 401.176 737.591 401.944C737.687 402.712 737.735 403.704 737.735 404.92H736.775C736.519 403.352 735.847 402.12 734.759 401.224C733.703 400.328 732.215 399.88 730.295 399.88C728.727 399.88 727.527 400.2 726.695 400.84C725.895 401.48 725.495 402.28 725.495 403.24C725.495 404.072 725.831 404.84 726.503 405.544C727.175 406.216 728.119 406.808 729.335 407.32L732.215 408.52C734.263 409.352 735.815 410.264 736.871 411.256C737.927 412.248 738.455 413.576 738.455 415.24C738.455 417.256 737.655 418.808 736.055 419.896C734.455 420.952 732.455 421.48 730.055 421.48ZM743.94 421V395.08C743.94 393.64 743.732 392.488 743.316 391.624C742.932 390.728 742.02 390.28 740.58 390.28H739.62V389.32H743.94C745.06 389.32 745.924 389.464 746.532 389.752C747.172 390.04 747.62 390.6 747.876 391.432C748.132 392.264 748.26 393.48 748.26 395.08V400.36C748.868 399.752 749.7 399.208 750.756 398.728C751.812 398.216 753.06 397.96 754.5 397.96C755.524 397.96 756.516 398.088 757.476 398.344C758.468 398.6 759.348 399.048 760.116 399.688C760.884 400.296 761.492 401.176 761.94 402.328C762.42 403.448 762.66 404.872 762.66 406.6V421H758.34V406.6C758.34 405 758.084 403.736 757.572 402.808C757.06 401.848 756.404 401.16 755.604 400.744C754.804 400.328 753.956 400.12 753.06 400.12C752.1 400.12 751.204 400.376 750.372 400.888C749.572 401.4 748.868 401.992 748.26 402.664V421H743.94ZM778.611 421.48C776.371 421.48 774.467 420.952 772.899 419.896C771.331 418.84 770.131 417.416 769.299 415.624C768.467 413.832 768.051 411.864 768.051 409.72C768.051 407.544 768.467 405.576 769.299 403.816C770.131 402.024 771.331 400.6 772.899 399.544C774.467 398.488 776.371 397.96 778.611 397.96C780.851 397.96 782.755 398.488 784.323 399.544C785.891 400.6 787.091 402.024 787.923 403.816C788.755 405.576 789.171 407.544 789.171 409.72C789.171 411.864 788.755 413.832 787.923 415.624C787.091 417.416 785.891 418.84 784.323 419.896C782.755 420.952 780.851 421.48 778.611 421.48ZM778.611 419.56C779.827 419.56 780.883 419.128 781.779 418.264C782.675 417.368 783.363 416.184 783.843 414.712C784.355 413.208 784.611 411.544 784.611 409.72C784.611 407.864 784.355 406.2 783.843 404.728C783.363 403.256 782.675 402.088 781.779 401.224C780.883 400.328 779.827 399.88 778.611 399.88C777.427 399.88 776.371 400.328 775.443 401.224C774.547 402.088 773.843 403.256 773.331 404.728C772.851 406.2 772.611 407.864 772.611 409.72C772.611 411.544 772.851 413.208 773.331 414.712C773.843 416.184 774.547 417.368 775.443 418.264C776.371 419.128 777.427 419.56 778.611 419.56ZM795.52 430.12V404.2C795.52 402.76 795.312 401.608 794.896 400.744C794.512 399.848 793.6 399.4 792.16 399.4H791.2V398.44H795.52C796.736 398.44 797.648 398.616 798.256 398.968C798.896 399.32 799.344 399.864 799.6 400.6C800.24 399.96 801.104 399.368 802.192 398.824C803.28 398.248 804.656 397.96 806.32 397.96C808.24 397.96 809.84 398.488 811.12 399.544C812.4 400.6 813.36 402.024 814 403.816C814.64 405.576 814.96 407.544 814.96 409.72C814.96 411.864 814.624 413.832 813.952 415.624C813.312 417.416 812.32 418.84 810.976 419.896C809.632 420.952 807.92 421.48 805.84 421.48C804.496 421.48 803.344 421.32 802.384 421C801.424 420.712 800.576 420.392 799.84 420.04V430.12H795.52ZM804.4 419.56C805.84 419.56 806.992 419.128 807.856 418.264C808.752 417.368 809.392 416.184 809.776 414.712C810.192 413.208 810.4 411.544 810.4 409.72C810.4 407.864 810.208 406.2 809.824 404.728C809.44 403.256 808.832 402.088 808 401.224C807.2 400.328 806.16 399.88 804.88 399.88C803.568 399.88 802.512 400.184 801.712 400.792C800.912 401.368 800.288 402.024 799.84 402.76V418.12C800.576 418.472 801.328 418.808 802.096 419.128C802.896 419.416 803.664 419.56 804.4 419.56ZM822.452 421.672C821.748 421.672 821.14 421.416 820.628 420.904C820.116 420.392 819.86 419.768 819.86 419.032C819.86 418.328 820.116 417.72 820.628 417.208C821.14 416.696 821.748 416.44 822.452 416.44C823.188 416.44 823.796 416.696 824.276 417.208C824.788 417.72 825.044 418.328 825.044 419.032C825.044 419.768 824.788 420.392 824.276 420.904C823.764 421.416 823.156 421.672 822.452 421.672Z" fill="url(#paint0_radial_446_2)"/>
<defs>
<radialGradient id="paint0_radial_446_2" cx="0" cy="0" r="1" gradientUnits="userSpaceOnUse" gradientTransform="translate(541 293) rotate(89.814) scale(154.001 1176.57)">
<stop stop-color="#3294EE"/>
<stop offset="1" stop-color="#3E5DFF" stop-opacity="0"/>
</radialGradient>
</defs>
</svg>
