<svg width="400" height="400" viewBox="0 0 400 400" fill="none" xmlns="http://www.w3.org/2000/svg">
<rect width="400" height="400" rx="20" fill="#F5F5F5"/>
<path d="M91.296 239.048L88.224 246.856C87.7973 248.051 87.4133 249.288 87.072 250.568C86.7307 251.848 86.368 252.957 85.984 253.896C85.6 254.877 85.0027 255.645 84.192 256.2C83.424 256.755 82.5493 257.16 81.568 257.416C80.5867 257.715 79.5627 257.843 78.496 257.8C77.472 257.757 76.5547 257.565 75.744 257.224C73.9093 256.371 73.2693 254.963 73.824 253C75.7867 244.381 77.6213 237.469 79.328 232.264C81.0773 227.059 82.5067 222.963 83.616 219.976C84.768 216.989 85.9627 213.832 87.2 210.504C87.328 209.267 87.84 208.157 88.736 207.176C89.632 206.195 90.6773 205.384 91.872 204.744C93.1093 204.104 94.3893 203.656 95.712 203.4C97.0347 203.101 98.208 203.059 99.232 203.272C100.256 203.485 101.003 203.955 101.472 204.68C101.984 205.405 102.027 206.451 101.6 207.816C100.064 211.741 98.976 214.515 98.336 216.136C97.696 217.757 97.12 219.208 96.608 220.488L94.816 224.712C95.712 224.755 96.8427 224.627 98.208 224.328C100.683 223.773 102.475 223.581 103.584 223.752C103.584 223.539 103.691 223.176 103.904 222.664C105.099 217.459 106.443 212.68 107.936 208.328C109.003 204.744 111.755 202.867 116.192 202.696C117.941 202.696 119.264 203.123 120.16 203.976C121.141 204.872 121.269 206.088 120.544 207.624C116.619 218.632 113.845 227.315 112.224 233.672C110.389 241.011 109.173 245.96 108.576 248.52C108.021 251.08 107.531 252.595 107.104 253.064C106.677 253.533 106.229 253.853 105.76 254.024C105.333 254.237 104.907 254.429 104.48 254.6C104.053 254.771 103.712 255.197 103.456 255.88H103.264C102.923 256.648 102.176 257.245 101.024 257.672C99.872 258.099 98.6987 258.248 97.504 258.12C96.352 258.035 95.3707 257.608 94.56 256.84C93.792 256.115 93.6 254.984 93.984 253.448C94.4107 251.016 95.1147 248.413 96.096 245.64C97.0773 242.824 97.8453 240.627 98.4 239.048C98.9973 237.469 99.488 235.997 99.872 234.632C99.5307 234.803 99.1893 234.931 98.848 235.016C98.5493 235.101 98.1653 235.272 97.696 235.528C97.2267 235.741 96.736 235.933 96.224 236.104C95.7547 236.275 95.2853 236.445 94.816 236.616C93.6213 237.085 92.64 237.555 91.872 238.024L91.296 239.048ZM98.528 234.76C98.5707 234.76 98.784 234.696 99.168 234.568C98.912 234.653 98.6987 234.717 98.528 234.76ZM142.937 225.544L143.193 225.608C143.278 225.608 143.321 225.629 143.321 225.672C144.43 225.245 145.348 225.565 146.073 226.632C146.542 227.357 146.905 228.467 147.161 229.96C147.246 232.008 147.033 234.845 146.521 238.472C145.54 245.811 145.006 250.184 144.921 251.592C145.006 253.085 144.089 254.109 142.169 254.664C140.505 255.176 138.841 255.155 137.177 254.6C135.428 254.003 134.702 253.085 135.001 251.848C134.66 252.488 134.318 252.936 133.977 253.192C133.636 253.491 132.953 253.875 131.929 254.344C130.948 254.856 129.54 255.261 127.705 255.56C125.87 255.901 124.036 255.987 122.201 255.816C120.366 255.688 118.681 255.24 117.145 254.472C115.652 253.747 114.649 252.595 114.137 251.016C113.156 247.944 113.284 244.04 114.521 239.304C115.374 236.189 116.91 233.437 119.129 231.048C121.689 228.317 124.59 226.056 127.833 224.264C130.265 222.941 132.612 222.152 134.873 221.896C135.641 221.811 136.302 221.832 136.857 221.96C137.454 222.088 138.073 222.216 138.713 222.344C139.396 222.472 140.036 222.664 140.633 222.92C142.169 223.56 142.937 224.435 142.937 225.544ZM131.097 242.504C131.396 241.907 131.63 241.16 131.801 240.264C132.014 239.368 132.292 238.387 132.633 237.32C129.177 238.728 126.532 240.456 124.697 242.504C122.692 244.765 122.82 246.323 125.081 247.176C127.044 247.688 128.473 247.368 129.369 246.216C129.753 245.704 130.094 245.064 130.393 244.296C130.692 243.528 131.054 242.739 131.481 241.928C131.353 242.141 131.225 242.333 131.097 242.504ZM156.385 225.288C156.94 223.88 158.263 222.92 160.354 222.408C162.316 221.896 164.151 221.96 165.858 222.6C167.607 223.283 168.396 224.392 168.226 225.928C167.756 227.421 167.159 229.256 166.434 231.432C165.751 233.565 165.09 235.763 164.45 238.024C162.743 243.827 161.762 247.923 161.506 250.312C160.866 254.152 159.799 256.221 158.306 256.52C157.879 256.605 157.474 256.669 157.09 256.712C156.151 256.755 155.554 257.011 155.298 257.48C155.042 257.949 154.615 258.291 154.018 258.504C153.42 258.76 152.759 258.867 152.034 258.824C151.351 258.824 150.647 258.653 149.922 258.312C149.196 258.013 148.578 257.565 148.066 256.968C146.871 255.517 146.636 253.576 147.361 251.144C148.044 246.493 149.772 240.584 152.546 233.416C153.868 229.875 155.148 227.165 156.385 225.288ZM168.482 215.688C166.391 216.115 164.684 215.987 163.362 215.304C162.082 214.621 161.335 213.811 161.122 212.872C160.908 211.891 161.207 210.888 162.018 209.864C162.956 208.584 164.364 207.752 166.242 207.368C167.095 207.283 167.714 207.24 168.098 207.24C168.482 207.24 168.951 207.325 169.506 207.496C170.914 207.624 171.831 208.243 172.258 209.352C172.855 210.291 172.898 211.357 172.386 212.552C171.916 213.747 170.615 214.792 168.482 215.688ZM175.156 226.504C175.753 224.968 176.585 223.816 177.652 223.048C178.761 222.237 179.807 221.747 180.788 221.576C181.812 221.363 182.644 221.469 183.284 221.896C183.967 222.323 184.201 222.984 183.988 223.88C184.799 223.069 185.972 222.323 187.508 221.64C189.044 220.957 190.26 220.488 191.156 220.232C192.052 219.976 192.82 219.848 193.46 219.848C194.868 219.933 195.273 220.701 194.676 222.152C195.401 222.28 195.935 222.749 196.276 223.56C196.617 224.371 196.66 225.267 196.404 226.248C196.148 227.229 195.572 228.189 194.676 229.128C193.78 230.067 192.564 230.707 191.028 231.048C189.535 231.389 188.276 232.179 187.252 233.416C186.271 234.611 185.396 236.104 184.628 237.896C183.348 240.925 182.196 245.213 181.172 250.76C180.831 252.765 179.444 254.451 177.012 255.816C174.708 257.139 172.596 257.523 170.676 256.968C168.5 256.371 167.54 254.771 167.796 252.168C167.881 250.333 168.436 247.901 169.46 244.872C170.484 241.8 171.273 239.496 171.828 237.96C172.383 236.381 172.767 235.187 172.98 234.376L175.156 226.504ZM206.482 250.504C206.226 251.4 205.927 252.189 205.586 252.872C205.244 253.555 204.732 254.195 204.05 254.792C203.367 255.389 202.556 255.944 201.618 256.456C200.679 257.011 199.783 257.395 198.93 257.608C196.967 258.035 195.943 257.459 195.858 255.88C195.73 255.453 195.452 255.197 195.026 255.112C194.642 255.069 194.279 254.963 193.938 254.792C193.041 254.408 192.785 253.363 193.169 251.656C193.852 249.309 194.599 246.472 195.41 243.144C196.22 239.773 197.266 236.083 198.546 232.072C201.575 222.344 205.33 213.576 209.81 205.768C210.108 205.384 210.45 204.893 210.833 204.296C211.218 203.656 211.708 203.08 212.306 202.568C213.799 201.203 215.634 200.883 217.81 201.608C217.767 202.163 217.895 202.675 218.194 203.144C218.492 203.571 218.834 204.019 219.218 204.488C220.199 205.597 220.647 206.6 220.562 207.496C216.039 218.205 211.964 230.173 208.338 243.4C207.911 244.936 207.57 246.28 207.314 247.432C207.058 248.584 206.78 249.608 206.482 250.504ZM221.198 225.288C221.753 223.88 223.075 222.92 225.166 222.408C227.129 221.896 228.963 221.96 230.67 222.6C232.419 223.283 233.209 224.392 233.038 225.928C232.569 227.421 231.971 229.256 231.246 231.432C230.563 233.565 229.902 235.763 229.262 238.024C227.555 243.827 226.574 247.923 226.318 250.312C225.678 254.152 224.611 256.221 223.118 256.52C222.691 256.605 222.286 256.669 221.902 256.712C220.963 256.755 220.366 257.011 220.11 257.48C219.854 257.949 219.427 258.291 218.83 258.504C218.233 258.76 217.571 258.867 216.846 258.824C216.163 258.824 215.459 258.653 214.734 258.312C214.009 258.013 213.39 257.565 212.878 256.968C211.683 255.517 211.449 253.576 212.174 251.144C212.857 246.493 214.585 240.584 217.358 233.416C218.681 229.875 219.961 227.165 221.198 225.288ZM233.294 215.688C231.203 216.115 229.497 215.987 228.174 215.304C226.894 214.621 226.147 213.811 225.934 212.872C225.721 211.891 226.019 210.888 226.83 209.864C227.769 208.584 229.177 207.752 231.054 207.368C231.907 207.283 232.526 207.24 232.91 207.24C233.294 207.24 233.763 207.325 234.318 207.496C235.726 207.624 236.643 208.243 237.07 209.352C237.667 210.291 237.71 211.357 237.198 212.552C236.729 213.747 235.427 214.792 233.294 215.688ZM242.209 225.16C242.294 224.349 242.806 223.688 243.745 223.176C244.683 222.664 245.729 222.408 246.881 222.408C248.033 222.408 249.142 222.685 250.208 223.24C251.318 223.752 252.065 224.648 252.449 225.928C256.075 222.771 259.382 221.555 262.369 222.28C263.393 222.493 264.267 223.091 264.993 224.072C267.169 221.981 269.579 220.616 272.225 219.976C275.553 219.848 277.942 220.616 279.393 222.28C279.606 222.493 279.819 222.728 280.033 222.984C280.63 223.624 280.971 224.051 281.057 224.264C281.825 225.459 282.038 228.211 281.697 232.52C281.227 238.109 280.161 243.72 278.497 249.352C277.601 252.211 276.79 253.683 276.065 253.768C275.638 253.853 275.233 253.853 274.849 253.768C274.507 253.683 274.187 253.619 273.889 253.576C273.633 253.576 273.483 253.832 273.441 254.344C272.587 255.453 271.286 256.008 269.537 256.008C267.83 256.008 266.379 255.475 265.185 254.408C263.862 253.299 263.393 251.997 263.777 250.504C264.203 248.968 264.673 247.411 265.185 245.832C265.697 244.211 266.251 242.547 266.849 240.84C267.873 237.853 269.003 234.739 270.241 231.496C269.345 232.52 268.129 234.461 266.593 237.32C265.057 240.136 264.097 241.821 263.713 242.376C262.987 243.827 262.39 244.979 261.921 245.832C261.451 246.643 260.811 247.304 260.001 247.816C259.233 248.285 258.507 248.584 257.825 248.712C257.185 248.84 256.566 248.861 255.969 248.776C254.561 248.563 253.558 247.965 252.961 246.984C252.833 246.643 252.705 246.301 252.577 245.96C252.449 245.619 252.342 245.149 252.257 244.552C252.129 243.229 252.299 241.075 252.769 238.088L252.641 238.28C253.153 237.768 253.323 237.64 253.153 237.896C251.446 240.328 250.422 241.885 250.081 242.568C249.739 243.251 249.377 244.019 248.993 244.872C248.609 245.683 248.161 246.643 247.649 247.752C247.137 248.819 246.731 249.779 246.433 250.632C246.134 251.485 245.771 252.317 245.345 253.128C243.425 256.456 240.054 257.8 235.233 257.16C234.209 257.032 233.334 256.776 232.608 256.392C231.883 256.051 231.584 255.517 231.712 254.792C232.054 253.085 232.843 250.248 234.081 246.28C236.513 238.429 237.963 233.373 238.433 231.112C238.731 230.344 238.987 229.555 239.201 228.744C239.457 227.933 239.713 227.229 239.969 226.632C240.481 225.224 241.227 224.733 242.209 225.16ZM264.417 240.968V241.096C264.502 240.925 264.502 240.883 264.417 240.968Z" fill="#A224F2"/>
<ellipse cx="176.169" cy="123.83" rx="37.1695" ry="32.7966" fill="#E96868"/>
<ellipse cx="218.441" cy="118" rx="28.4237" ry="43" fill="#E96868"/>
</svg>
