<svg width="1084" height="418" viewBox="0 0 1084 418" fill="none" xmlns="http://www.w3.org/2000/svg">
<g clip-path="url(#clip0_807_422)">
<rect width="1084" height="418" fill="white"/>
<rect width="1084" height="418" fill="url(#paint0_linear_807_422)"/>
<path d="M337.828 71.612C336.844 71.612 335.872 71.516 334.912 71.324C333.952 71.132 333.076 70.856 332.284 70.496C331.492 70.112 330.856 69.656 330.376 69.128C329.92 68.576 329.692 67.964 329.692 67.292V63.08H330.7C331.084 65.576 331.852 67.352 333.004 68.408C334.18 69.464 335.776 69.992 337.792 69.992C338.704 69.992 339.496 69.86 340.168 69.596C340.864 69.332 341.392 68.948 341.752 68.444C342.136 67.916 342.328 67.268 342.328 66.5C342.328 65.468 341.992 64.616 341.32 63.944C340.672 63.248 339.772 62.552 338.62 61.856L334.192 59.192C332.56 58.232 331.408 57.248 330.736 56.24C330.064 55.232 329.728 54.068 329.728 52.748C329.728 50.852 330.448 49.352 331.888 48.248C333.352 47.144 335.32 46.592 337.792 46.592C338.776 46.592 339.748 46.688 340.708 46.88C341.668 47.072 342.544 47.36 343.336 47.744C344.128 48.104 344.752 48.548 345.208 49.076C345.688 49.604 345.928 50.216 345.928 50.912V55.124H344.92C344.512 52.628 343.744 50.852 342.616 49.796C341.488 48.74 340.012 48.212 338.188 48.212C337.324 48.212 336.568 48.356 335.92 48.644C335.296 48.932 334.816 49.34 334.48 49.868C334.144 50.372 333.976 50.984 333.976 51.704C333.976 52.712 334.312 53.528 334.984 54.152C335.68 54.776 336.592 55.424 337.72 56.096L342.148 58.724C343.78 59.684 344.968 60.632 345.712 61.568C346.48 62.48 346.864 63.596 346.864 64.916C346.864 66.98 346.084 68.612 344.524 69.812C342.964 71.012 340.732 71.612 337.828 71.612ZM351.6 71V51.92C351.6 50.84 351.444 49.976 351.132 49.328C350.844 48.656 350.16 48.32 349.08 48.32H348.72V47.24H353.04C353.88 47.24 354.528 47.384 354.984 47.672C355.464 47.96 355.8 48.44 355.992 49.112C356.184 49.784 356.28 50.72 356.28 51.92V57.86H366V47.24H370.68V66.32C370.68 67.4 370.824 68.276 371.112 68.948C371.424 69.596 372.12 69.92 373.2 69.92H373.56V71H369.24C368.4 71 367.74 70.868 367.26 70.604C366.804 70.316 366.48 69.836 366.288 69.164C366.096 68.468 366 67.52 366 66.32V59.48H356.28V71H351.6ZM396.698 71.144C395.906 71.144 395.066 71.048 394.178 70.856C393.314 70.64 392.474 70.196 391.658 69.524C390.866 68.852 390.182 67.832 389.606 66.464L388.778 64.448H379.202L376.25 71H374.378L384.998 47.24H386.618L394.682 66.464C395.114 67.52 395.642 68.36 396.266 68.984C396.89 69.608 397.61 69.968 398.426 70.064V70.964C398.234 71.012 397.958 71.048 397.598 71.072C397.262 71.12 396.962 71.144 396.698 71.144ZM379.958 62.828H388.094L384.134 53.432L379.958 62.828ZM417.522 71.36C416.682 71.36 415.878 71.192 415.11 70.856C414.342 70.52 413.586 69.98 412.842 69.236C412.122 68.468 411.366 67.436 410.574 66.14L406.974 60.128H405.534V71H400.818V51.92C400.818 50.84 400.662 49.976 400.35 49.328C400.062 48.656 399.378 48.32 398.298 48.32H397.938V47.24H407.874C408.522 47.24 409.266 47.288 410.106 47.384C410.97 47.456 411.834 47.624 412.698 47.888C413.562 48.128 414.366 48.488 415.11 48.968C415.854 49.448 416.454 50.084 416.91 50.876C417.366 51.644 417.594 52.604 417.594 53.756C417.594 55.028 417.306 56.072 416.73 56.888C416.178 57.68 415.458 58.304 414.57 58.76C413.682 59.216 412.746 59.576 411.762 59.84L415.542 66.14C416.454 67.676 417.294 68.696 418.062 69.2C418.83 69.704 419.478 70.004 420.006 70.1V71C419.814 71.096 419.466 71.18 418.962 71.252C418.482 71.324 418.002 71.36 417.522 71.36ZM405.534 58.688H407.694C408.27 58.688 408.846 58.604 409.422 58.436C409.998 58.268 410.514 57.992 410.97 57.608C411.45 57.224 411.834 56.708 412.122 56.06C412.41 55.412 412.554 54.62 412.554 53.684C412.554 52.748 412.41 51.968 412.122 51.344C411.858 50.696 411.486 50.18 411.006 49.796C410.55 49.388 410.034 49.1 409.458 48.932C408.906 48.764 408.342 48.68 407.766 48.68C407.574 48.68 407.286 48.692 406.902 48.716C406.542 48.74 406.086 48.812 405.534 48.932V58.688ZM423.002 71V51.92C423.002 50.84 422.846 49.976 422.534 49.328C422.246 48.656 421.562 48.32 420.482 48.32H420.122V47.24H435.998C436.838 47.24 437.474 47.384 437.906 47.672C438.338 47.936 438.638 48.296 438.806 48.752C438.974 49.184 439.058 49.64 439.058 50.12V53.18H437.978C437.978 51.644 437.582 50.54 436.79 49.868C436.022 49.196 434.918 48.86 433.478 48.86H427.682V57.86H437.042V59.48H427.682V69.38H433.838C435.158 69.38 436.274 69.092 437.186 68.516C438.122 67.916 438.902 66.836 439.526 65.276L440.498 65.636L439.454 68.48C439.19 69.248 438.842 69.86 438.41 70.316C438.002 70.772 437.306 71 436.322 71H423.002ZM480.66 72.62C478.932 72.62 477.528 72.344 476.448 71.792C475.368 71.264 474.576 70.436 474.072 69.308C473.592 68.156 473.352 66.68 473.352 64.88V52.136L465.468 71H464.28L454.632 51.416V71H452.832V47.24H457.224L465.936 64.916L473.316 47.24H478.032V64.88C478.032 67.064 478.212 68.708 478.572 69.812C478.956 70.892 479.652 71.528 480.66 71.72V72.62ZM494.067 71.36C491.907 71.36 490.107 70.964 488.667 70.172C487.227 69.38 486.147 68.192 485.427 66.608C484.707 65 484.347 63.008 484.347 60.632V51.92C484.347 50.888 484.215 50.048 483.951 49.4C483.687 48.752 483.087 48.392 482.151 48.32H481.827V47.24H485.787C486.627 47.24 487.275 47.384 487.731 47.672C488.211 47.96 488.547 48.44 488.739 49.112C488.931 49.784 489.027 50.72 489.027 51.92L489.063 61.712C489.087 64.208 489.567 66.176 490.503 67.616C491.463 69.032 492.891 69.74 494.787 69.74C496.419 69.74 497.751 69.416 498.783 68.768C499.815 68.12 500.571 67.124 501.051 65.78C501.555 64.436 501.807 62.72 501.807 60.632V47.24H503.607V60.632C503.607 62.888 503.295 64.82 502.671 66.428C502.071 68.012 501.075 69.236 499.683 70.1C498.291 70.94 496.419 71.36 494.067 71.36ZM515.859 71.612C514.875 71.612 513.903 71.516 512.943 71.324C511.983 71.132 511.107 70.856 510.315 70.496C509.523 70.112 508.887 69.656 508.407 69.128C507.951 68.576 507.723 67.964 507.723 67.292V63.08H508.731C509.115 65.576 509.883 67.352 511.035 68.408C512.211 69.464 513.807 69.992 515.823 69.992C516.735 69.992 517.527 69.86 518.199 69.596C518.895 69.332 519.423 68.948 519.783 68.444C520.167 67.916 520.359 67.268 520.359 66.5C520.359 65.468 520.023 64.616 519.351 63.944C518.703 63.248 517.803 62.552 516.651 61.856L512.223 59.192C510.591 58.232 509.439 57.248 508.767 56.24C508.095 55.232 507.759 54.068 507.759 52.748C507.759 50.852 508.479 49.352 509.919 48.248C511.383 47.144 513.351 46.592 515.823 46.592C516.807 46.592 517.779 46.688 518.739 46.88C519.699 47.072 520.575 47.36 521.367 47.744C522.159 48.104 522.783 48.548 523.239 49.076C523.719 49.604 523.959 50.216 523.959 50.912V55.124H522.951C522.543 52.628 521.775 50.852 520.647 49.796C519.519 48.74 518.043 48.212 516.219 48.212C515.355 48.212 514.599 48.356 513.951 48.644C513.327 48.932 512.847 49.34 512.511 49.868C512.175 50.372 512.007 50.984 512.007 51.704C512.007 52.712 512.343 53.528 513.015 54.152C513.711 54.776 514.623 55.424 515.751 56.096L520.179 58.724C521.811 59.684 522.999 60.632 523.743 61.568C524.511 62.48 524.895 63.596 524.895 64.916C524.895 66.98 524.115 68.612 522.555 69.812C520.995 71.012 518.763 71.612 515.859 71.612ZM532.295 71C531.455 71 530.795 70.868 530.315 70.604C529.859 70.316 529.535 69.836 529.343 69.164C529.151 68.468 529.055 67.52 529.055 66.32V47.24H533.735V66.32C533.735 67.4 533.879 68.276 534.167 68.948C534.479 69.596 535.175 69.92 536.255 69.92H536.615V71H532.295ZM550.146 71.72C547.626 71.72 545.478 71.18 543.702 70.1C541.926 69.02 540.57 67.556 539.634 65.708C538.722 63.86 538.266 61.784 538.266 59.48C538.266 57.656 538.554 55.964 539.13 54.404C539.73 52.82 540.57 51.44 541.65 50.264C542.73 49.088 543.99 48.176 545.43 47.528C546.87 46.856 548.442 46.52 550.146 46.52C552.402 46.52 554.214 46.82 555.582 47.42C556.974 47.996 558.006 48.668 558.678 49.436C559.158 50.06 559.434 50.864 559.506 51.848C559.578 52.832 559.614 53.852 559.614 54.908H558.534C558.078 52.724 557.238 51.056 556.014 49.904C554.814 48.728 553.218 48.14 551.226 48.14C549.762 48.14 548.43 48.476 547.23 49.148C546.03 49.82 545.07 50.984 544.35 52.64C543.654 54.272 543.306 56.552 543.306 59.48C543.306 60.848 543.45 62.168 543.738 63.44C544.026 64.712 544.482 65.852 545.106 66.86C545.754 67.868 546.57 68.66 547.554 69.236C548.562 69.812 549.786 70.1 551.226 70.1C552.882 70.1 554.418 69.668 555.834 68.804C557.25 67.916 558.39 66.632 559.254 64.952L560.514 65.924C559.386 67.916 558.006 69.38 556.374 70.316C554.742 71.252 552.666 71.72 550.146 71.72ZM580.339 71.324L572.563 51.452C572.011 50.084 571.459 49.136 570.907 48.608C570.355 48.08 569.719 47.768 568.999 47.672V46.952C569.095 46.952 569.335 46.94 569.719 46.916C570.079 46.892 570.343 46.88 570.511 46.88C571.351 46.88 572.215 46.976 573.103 47.168C573.991 47.336 574.831 47.744 575.623 48.392C576.415 49.04 577.087 50.06 577.639 51.452L582.499 63.872L585.739 54.656L584.479 51.452C583.927 50.084 583.327 49.136 582.679 48.608C582.055 48.08 581.383 47.768 580.663 47.672V46.952C580.759 46.952 580.975 46.94 581.311 46.916C581.647 46.892 581.899 46.88 582.067 46.88C582.907 46.88 583.771 46.976 584.659 47.168C585.547 47.36 586.387 47.78 587.179 48.428C587.971 49.052 588.643 50.06 589.195 51.452L594.343 64.556L600.499 47.24H602.227L593.695 71.324H592.255L586.711 57.212L581.779 71.324H580.339ZM608.76 71C607.92 71 607.26 70.868 606.78 70.604C606.324 70.316 606 69.836 605.808 69.164C605.616 68.468 605.52 67.52 605.52 66.32V47.24H610.2V66.32C610.2 67.4 610.344 68.276 610.632 68.948C610.944 69.596 611.64 69.92 612.72 69.92H613.08V71H608.76ZM621.961 71V48.86H619.405C618.133 48.86 617.125 49.184 616.381 49.832C615.637 50.456 615.265 51.572 615.265 53.18H614.185V50.12C614.185 49.64 614.269 49.184 614.437 48.752C614.605 48.296 614.905 47.936 615.337 47.672C615.793 47.384 616.429 47.24 617.245 47.24H634.165V48.86H626.641V71H621.961ZM637.736 71V51.92C637.736 50.84 637.58 49.976 637.268 49.328C636.98 48.656 636.296 48.32 635.216 48.32H634.856V47.24H639.176C640.016 47.24 640.664 47.384 641.12 47.672C641.6 47.96 641.936 48.44 642.128 49.112C642.32 49.784 642.416 50.72 642.416 51.92V57.86H652.136V47.24H656.816V66.32C656.816 67.4 656.96 68.276 657.248 68.948C657.56 69.596 658.256 69.92 659.336 69.92H659.696V71H655.376C654.536 71 653.876 70.868 653.396 70.604C652.94 70.316 652.616 69.836 652.424 69.164C652.232 68.468 652.136 67.52 652.136 66.32V59.48H642.416V71H637.736ZM672.647 71V51.92C672.647 50.84 672.491 49.976 672.179 49.328C671.891 48.656 671.207 48.32 670.127 48.32H669.767V47.24H685.643C686.483 47.24 687.119 47.384 687.551 47.672C687.983 47.936 688.283 48.296 688.451 48.752C688.619 49.184 688.703 49.64 688.703 50.12V53.18H687.623C687.623 51.644 687.227 50.54 686.435 49.868C685.667 49.196 684.563 48.86 683.123 48.86H677.327V57.86H686.687V59.48H677.327V69.38H683.483C684.803 69.38 685.919 69.092 686.831 68.516C687.767 67.916 688.547 66.836 689.171 65.276L690.143 65.636L689.099 68.48C688.835 69.248 688.487 69.86 688.055 70.316C687.647 70.772 686.951 71 685.967 71H672.647ZM713.421 71.144C712.629 71.144 711.789 71.048 710.901 70.856C710.037 70.64 709.197 70.196 708.381 69.524C707.589 68.852 706.905 67.832 706.329 66.464L705.501 64.448H695.925L692.973 71H691.101L701.721 47.24H703.341L711.405 66.464C711.837 67.52 712.365 68.36 712.989 68.984C713.613 69.608 714.333 69.968 715.149 70.064V70.964C714.957 71.012 714.681 71.048 714.321 71.072C713.985 71.12 713.685 71.144 713.421 71.144ZM696.681 62.828H704.817L700.857 53.432L696.681 62.828ZM723.949 71.612C722.965 71.612 721.993 71.516 721.033 71.324C720.073 71.132 719.197 70.856 718.405 70.496C717.613 70.112 716.977 69.656 716.497 69.128C716.041 68.576 715.813 67.964 715.813 67.292V63.08H716.821C717.205 65.576 717.973 67.352 719.125 68.408C720.301 69.464 721.897 69.992 723.913 69.992C724.825 69.992 725.617 69.86 726.289 69.596C726.985 69.332 727.513 68.948 727.873 68.444C728.257 67.916 728.449 67.268 728.449 66.5C728.449 65.468 728.113 64.616 727.441 63.944C726.793 63.248 725.893 62.552 724.741 61.856L720.313 59.192C718.681 58.232 717.529 57.248 716.857 56.24C716.185 55.232 715.849 54.068 715.849 52.748C715.849 50.852 716.569 49.352 718.009 48.248C719.473 47.144 721.441 46.592 723.913 46.592C724.897 46.592 725.869 46.688 726.829 46.88C727.789 47.072 728.665 47.36 729.457 47.744C730.249 48.104 730.873 48.548 731.329 49.076C731.809 49.604 732.049 50.216 732.049 50.912V55.124H731.041C730.633 52.628 729.865 50.852 728.737 49.796C727.609 48.74 726.133 48.212 724.309 48.212C723.445 48.212 722.689 48.356 722.041 48.644C721.417 48.932 720.937 49.34 720.601 49.868C720.265 50.372 720.097 50.984 720.097 51.704C720.097 52.712 720.433 53.528 721.105 54.152C721.801 54.776 722.713 55.424 723.841 56.096L728.269 58.724C729.901 59.684 731.089 60.632 731.833 61.568C732.601 62.48 732.985 63.596 732.985 64.916C732.985 66.98 732.205 68.612 730.645 69.812C729.085 71.012 726.853 71.612 723.949 71.612ZM737.721 71V51.92C737.721 50.84 737.565 49.976 737.253 49.328C736.965 48.656 736.281 48.32 735.201 48.32H734.841V47.24H750.717C751.557 47.24 752.193 47.384 752.625 47.672C753.057 47.936 753.357 48.296 753.525 48.752C753.693 49.184 753.777 49.64 753.777 50.12V53.18H752.697C752.697 51.644 752.301 50.54 751.509 49.868C750.741 49.196 749.637 48.86 748.197 48.86H742.401V57.86H751.761V59.48H742.401V69.38H748.557C749.877 69.38 750.993 69.092 751.905 68.516C752.841 67.916 753.621 66.836 754.245 65.276L755.217 65.636L754.173 68.48C753.909 69.248 753.561 69.86 753.129 70.316C752.721 70.772 752.025 71 751.041 71H737.721Z" fill="white"/>
<path d="M150.04 206V189.04C150.04 188.08 149.901 187.312 149.624 186.736C149.368 186.139 148.76 185.84 147.8 185.84H147.48V184.88H156.184C160.579 184.88 163.875 185.808 166.072 187.664C168.291 189.52 169.4 192.069 169.4 195.312C169.4 197.424 168.92 199.28 167.96 200.88C167.021 202.48 165.635 203.739 163.8 204.656C161.965 205.552 159.704 206 157.016 206H150.04ZM156.92 204.72C158.413 204.72 159.736 204.347 160.888 203.6C162.04 202.853 162.947 201.787 163.608 200.4C164.269 199.013 164.6 197.36 164.6 195.44C164.6 193.563 164.269 191.931 163.608 190.544C162.968 189.157 162.061 188.08 160.888 187.312C159.736 186.544 158.392 186.16 156.856 186.16C156.387 186.16 155.981 186.171 155.64 186.192C155.299 186.213 154.819 186.277 154.2 186.384V204.496C154.669 204.581 155.032 204.645 155.288 204.688C155.565 204.709 155.821 204.72 156.056 204.72C156.291 204.72 156.579 204.72 156.92 204.72ZM173.091 206V195.12C173.091 194.16 172.952 193.392 172.674 192.816C172.419 192.219 171.811 191.92 170.851 191.92H170.53V190.96H174.371C175.117 190.96 175.693 191.088 176.099 191.344C176.525 191.6 176.824 192.027 176.995 192.624C177.165 193.221 177.251 194.053 177.251 195.12V206H173.091ZM175.171 189.232C174.36 189.232 173.752 188.987 173.347 188.496C172.963 188.005 172.771 187.44 172.771 186.8C172.771 186.245 172.941 185.808 173.283 185.488C173.624 185.168 174.04 185.008 174.531 185.008C175.341 185.008 175.939 185.253 176.323 185.744C176.728 186.235 176.931 186.8 176.931 187.44C176.931 187.995 176.76 188.432 176.419 188.752C176.077 189.072 175.661 189.232 175.171 189.232ZM186.422 206.32C185.099 206.32 184.011 206.203 183.158 205.968C182.326 205.733 181.696 205.413 181.27 205.008C180.886 204.645 180.662 204.123 180.598 203.44C180.534 202.757 180.502 202.011 180.502 201.2H181.622C181.792 202.224 182.208 203.099 182.87 203.824C183.531 204.528 184.502 204.88 185.782 204.88C186.976 204.88 187.808 204.677 188.278 204.272C188.747 203.845 188.982 203.323 188.982 202.704C188.982 202.085 188.704 201.595 188.15 201.232C187.595 200.848 186.912 200.475 186.102 200.112L184.438 199.408C183.158 198.853 182.155 198.224 181.43 197.52C180.704 196.816 180.342 195.941 180.342 194.896C180.342 193.509 180.918 192.453 182.07 191.728C183.222 191.003 184.672 190.64 186.422 190.64C187.744 190.64 188.822 190.757 189.654 190.992C190.507 191.227 191.147 191.547 191.574 191.952C191.958 192.315 192.182 192.837 192.246 193.52C192.31 194.203 192.342 194.949 192.342 195.76H191.222C191.051 194.736 190.635 193.872 189.974 193.168C189.312 192.443 188.342 192.08 187.062 192.08C186.102 192.08 185.408 192.293 184.982 192.72C184.555 193.125 184.342 193.637 184.342 194.256C184.342 194.832 184.544 195.301 184.95 195.664C185.355 196.005 185.91 196.325 186.614 196.624L188.534 197.424C190.006 198.043 191.115 198.693 191.862 199.376C192.608 200.037 192.982 200.933 192.982 202.064C192.982 203.451 192.363 204.507 191.126 205.232C189.888 205.957 188.32 206.32 186.422 206.32ZM202.895 206.32C201.188 206.32 199.759 205.968 198.607 205.264C197.476 204.539 196.623 203.579 196.047 202.384C195.492 201.189 195.215 199.888 195.215 198.48C195.215 197.051 195.492 195.749 196.047 194.576C196.623 193.381 197.476 192.432 198.607 191.728C199.759 191.003 201.188 190.64 202.895 190.64C204.111 190.64 205.135 190.725 205.967 190.896C206.82 191.067 207.449 191.355 207.855 191.76C208.26 192.165 208.495 192.709 208.559 193.392C208.623 194.075 208.655 195.024 208.655 196.24H207.695C207.609 194.875 207.183 193.84 206.415 193.136C205.668 192.432 204.655 192.08 203.375 192.08C202.607 192.08 201.935 192.315 201.359 192.784C200.783 193.232 200.335 193.936 200.015 194.896C199.695 195.835 199.535 197.029 199.535 198.48C199.535 199.888 199.684 201.072 199.983 202.032C200.281 202.971 200.719 203.685 201.295 204.176C201.892 204.645 202.639 204.88 203.535 204.88C204.644 204.88 205.54 204.624 206.223 204.112C206.927 203.6 207.556 202.971 208.111 202.224L209.103 202.96C208.804 203.429 208.399 203.931 207.887 204.464C207.396 204.976 206.745 205.413 205.935 205.776C205.145 206.139 204.132 206.32 202.895 206.32ZM218.77 206.32C217.191 206.32 215.826 205.979 214.674 205.296C213.522 204.592 212.636 203.643 212.018 202.448C211.399 201.253 211.09 199.931 211.09 198.48C211.09 197.008 211.399 195.685 212.018 194.512C212.636 193.317 213.522 192.379 214.674 191.696C215.826 190.992 217.191 190.64 218.77 190.64C220.37 190.64 221.735 190.992 222.866 191.696C224.018 192.379 224.903 193.317 225.522 194.512C226.14 195.685 226.45 197.008 226.45 198.48C226.45 199.931 226.14 201.253 225.522 202.448C224.903 203.643 224.018 204.592 222.866 205.296C221.735 205.979 220.37 206.32 218.77 206.32ZM218.77 204.88C219.516 204.88 220.135 204.603 220.626 204.048C221.138 203.493 221.511 202.736 221.746 201.776C222.002 200.795 222.13 199.696 222.13 198.48C222.13 197.243 222.002 196.144 221.746 195.184C221.511 194.224 221.138 193.467 220.626 192.912C220.135 192.357 219.516 192.08 218.77 192.08C218.023 192.08 217.394 192.357 216.882 192.912C216.391 193.467 216.018 194.224 215.762 195.184C215.527 196.144 215.41 197.243 215.41 198.48C215.41 199.696 215.527 200.795 215.762 201.776C216.018 202.736 216.391 203.493 216.882 204.048C217.394 204.603 218.023 204.88 218.77 204.88ZM235.091 206.32L229.683 194.64C229.128 193.467 228.648 192.635 228.243 192.144C227.837 191.653 227.368 191.387 226.835 191.344V190.704C226.92 190.704 227.101 190.693 227.379 190.672C227.656 190.651 227.869 190.64 228.019 190.64C228.872 190.64 229.661 190.747 230.387 190.96C231.133 191.152 231.816 191.536 232.435 192.112C233.075 192.688 233.651 193.531 234.163 194.64L236.979 200.784L241.331 190.96H243.059L236.243 206.32H235.091ZM251.544 206.32C250.051 206.32 248.749 205.979 247.64 205.296C246.531 204.613 245.677 203.685 245.08 202.512C244.483 201.317 244.184 199.973 244.184 198.48C244.184 196.773 244.493 195.344 245.112 194.192C245.731 193.019 246.573 192.133 247.64 191.536C248.707 190.939 249.901 190.64 251.224 190.64C252.547 190.64 253.741 190.907 254.808 191.44C255.875 191.973 256.717 192.72 257.336 193.68C257.955 194.64 258.264 195.76 258.264 197.04L258.136 199.056H248.504C248.504 201.168 248.824 202.672 249.464 203.568C250.125 204.443 250.979 204.88 252.024 204.88C253.133 204.88 254.029 204.624 254.712 204.112C255.416 203.6 256.045 202.971 256.6 202.224L257.592 202.96C257.293 203.429 256.888 203.931 256.376 204.464C255.885 204.976 255.245 205.413 254.456 205.776C253.688 206.139 252.717 206.32 251.544 206.32ZM248.504 197.616H253.944C253.944 195.504 253.688 194.053 253.176 193.264C252.685 192.475 252.035 192.08 251.224 192.08C250.755 192.08 250.307 192.251 249.88 192.592C249.475 192.933 249.144 193.509 248.888 194.32C248.632 195.109 248.504 196.208 248.504 197.616ZM261.841 206V195.12C261.841 194.16 261.713 193.392 261.457 192.816C261.201 192.219 260.593 191.92 259.633 191.92H259.313V190.96H262.481C263.207 190.96 263.772 191.056 264.177 191.248C264.604 191.419 264.935 191.717 265.169 192.144C265.553 191.803 266.076 191.472 266.737 191.152C267.42 190.811 268.241 190.64 269.201 190.64C269.671 190.64 270.097 190.693 270.481 190.8C270.865 190.907 271.196 191.067 271.473 191.28C271.836 191.536 272.103 191.845 272.273 192.208C272.465 192.571 272.561 192.741 272.561 192.72L270.929 193.968C270.737 193.691 270.449 193.413 270.065 193.136C269.703 192.859 269.255 192.72 268.721 192.72C268.039 192.72 267.463 192.816 266.993 193.008C266.524 193.2 266.151 193.435 265.873 193.712C265.916 194.096 265.948 194.405 265.969 194.64C265.991 194.875 266.001 195.077 266.001 195.248V206H261.841Z" fill="#D7FF97"/>
<path d="M509.04 206V189.04C509.04 188.08 508.901 187.312 508.624 186.736C508.368 186.139 507.76 185.84 506.8 185.84H506.48V184.88H510.32C511.067 184.88 511.643 185.008 512.048 185.264C512.475 185.52 512.773 185.947 512.944 186.544C513.115 187.141 513.2 187.973 513.2 189.04V204.56H524.24V206H509.04ZM526.778 206V195.12C526.778 194.16 526.639 193.392 526.362 192.816C526.106 192.219 525.498 191.92 524.538 191.92H524.218V190.96H528.058C528.805 190.96 529.381 191.088 529.786 191.344C530.213 191.6 530.511 192.027 530.682 192.624C530.853 193.221 530.938 194.053 530.938 195.12V206H526.778ZM528.858 189.232C528.047 189.232 527.439 188.987 527.034 188.496C526.65 188.005 526.458 187.44 526.458 186.8C526.458 186.245 526.629 185.808 526.97 185.488C527.311 185.168 527.727 185.008 528.218 185.008C529.029 185.008 529.626 185.253 530.01 185.744C530.415 186.235 530.618 186.8 530.618 187.44C530.618 187.995 530.447 188.432 530.106 188.752C529.765 189.072 529.349 189.232 528.858 189.232ZM540.109 206.32C538.787 206.32 537.699 206.203 536.845 205.968C536.013 205.733 535.384 205.413 534.957 205.008C534.573 204.645 534.349 204.123 534.285 203.44C534.221 202.757 534.189 202.011 534.189 201.2H535.309C535.48 202.224 535.896 203.099 536.557 203.824C537.219 204.528 538.189 204.88 539.469 204.88C540.664 204.88 541.496 204.677 541.965 204.272C542.435 203.845 542.669 203.323 542.669 202.704C542.669 202.085 542.392 201.595 541.837 201.232C541.283 200.848 540.6 200.475 539.789 200.112L538.125 199.408C536.845 198.853 535.843 198.224 535.117 197.52C534.392 196.816 534.029 195.941 534.029 194.896C534.029 193.509 534.605 192.453 535.757 191.728C536.909 191.003 538.36 190.64 540.109 190.64C541.432 190.64 542.509 190.757 543.341 190.992C544.195 191.227 544.835 191.547 545.261 191.952C545.645 192.315 545.869 192.837 545.933 193.52C545.997 194.203 546.029 194.949 546.029 195.76H544.909C544.739 194.736 544.323 193.872 543.661 193.168C543 192.443 542.029 192.08 540.749 192.08C539.789 192.08 539.096 192.293 538.669 192.72C538.243 193.125 538.029 193.637 538.029 194.256C538.029 194.832 538.232 195.301 538.637 195.664C539.043 196.005 539.597 196.325 540.301 196.624L542.221 197.424C543.693 198.043 544.803 198.693 545.549 199.376C546.296 200.037 546.669 200.933 546.669 202.064C546.669 203.451 546.051 204.507 544.813 205.232C543.576 205.957 542.008 206.32 540.109 206.32ZM554.982 206.32C553.531 206.32 552.39 205.925 551.558 205.136C550.747 204.347 550.342 203.184 550.342 201.648V192.4H548.422V190.96H550.342V188.08L551.942 186.16H554.502V190.96H558.022V192.4H554.502V201.84C554.502 203.035 554.641 203.845 554.918 204.272C555.217 204.677 555.633 204.88 556.166 204.88C556.721 204.88 557.211 204.784 557.638 204.592C558.065 204.4 558.417 204.208 558.694 204.016L559.142 204.912C558.715 205.296 558.161 205.627 557.478 205.904C556.795 206.181 555.963 206.32 554.982 206.32ZM567.607 206.32C566.113 206.32 564.812 205.979 563.703 205.296C562.593 204.613 561.74 203.685 561.143 202.512C560.545 201.317 560.247 199.973 560.247 198.48C560.247 196.773 560.556 195.344 561.174 194.192C561.793 193.019 562.636 192.133 563.703 191.536C564.769 190.939 565.964 190.64 567.286 190.64C568.609 190.64 569.804 190.907 570.871 191.44C571.937 191.973 572.78 192.72 573.399 193.68C574.017 194.64 574.327 195.76 574.327 197.04L574.199 199.056H564.567C564.567 201.168 564.887 202.672 565.527 203.568C566.188 204.443 567.041 204.88 568.087 204.88C569.196 204.88 570.092 204.624 570.775 204.112C571.479 203.6 572.108 202.971 572.663 202.224L573.655 202.96C573.356 203.429 572.951 203.931 572.439 204.464C571.948 204.976 571.308 205.413 570.519 205.776C569.751 206.139 568.78 206.32 567.607 206.32ZM564.567 197.616H570.007C570.007 195.504 569.751 194.053 569.239 193.264C568.748 192.475 568.097 192.08 567.286 192.08C566.817 192.08 566.369 192.251 565.943 192.592C565.537 192.933 565.207 193.509 564.951 194.32C564.695 195.109 564.567 196.208 564.567 197.616ZM577.904 206V195.12C577.904 194.16 577.776 193.392 577.52 192.816C577.264 192.219 576.656 191.92 575.696 191.92H575.376V190.96H578.544C579.269 190.96 579.834 191.056 580.24 191.248C580.666 191.419 580.997 191.717 581.232 192.144C581.616 191.781 582.16 191.44 582.864 191.12C583.589 190.8 584.602 190.64 585.904 190.64C587.248 190.64 588.368 190.843 589.264 191.248C590.16 191.653 590.832 192.293 591.28 193.168C591.749 194.021 591.984 195.141 591.984 196.528V206H587.824V196.496C587.824 195.451 587.685 194.619 587.408 194C587.152 193.381 586.8 192.933 586.352 192.656C585.904 192.379 585.381 192.24 584.784 192.24C584.186 192.24 583.653 192.315 583.184 192.464C582.736 192.613 582.362 192.805 582.064 193.04V206H577.904Z" fill="#D7FF97"/>
<path d="M865.92 223.68C864.827 223.68 863.747 223.573 862.68 223.36C861.613 223.147 860.64 222.84 859.76 222.44C858.88 222.013 858.173 221.507 857.64 220.92C857.133 220.307 856.88 219.627 856.88 218.88V214.2H858C858.427 216.973 859.28 218.947 860.56 220.12C861.867 221.293 863.64 221.88 865.88 221.88C866.893 221.88 867.773 221.733 868.52 221.44C869.293 221.147 869.88 220.72 870.28 220.16C870.707 219.573 870.92 218.853 870.92 218C870.92 216.853 870.547 215.907 869.8 215.16C869.08 214.387 868.08 213.613 866.8 212.84L861.88 209.88C860.067 208.813 858.787 207.72 858.04 206.6C857.293 205.48 856.92 204.187 856.92 202.72C856.92 200.613 857.72 198.947 859.32 197.72C860.947 196.493 863.133 195.88 865.88 195.88C866.973 195.88 868.053 195.987 869.12 196.2C870.187 196.413 871.16 196.733 872.04 197.16C872.92 197.56 873.613 198.053 874.12 198.64C874.653 199.227 874.92 199.907 874.92 200.68V205.36H873.8C873.347 202.587 872.493 200.613 871.24 199.44C869.987 198.267 868.347 197.68 866.32 197.68C865.36 197.68 864.52 197.84 863.8 198.16C863.107 198.48 862.573 198.933 862.2 199.52C861.827 200.08 861.64 200.76 861.64 201.56C861.64 202.68 862.013 203.587 862.76 204.28C863.533 204.973 864.547 205.693 865.8 206.44L870.72 209.36C872.533 210.427 873.853 211.48 874.68 212.52C875.533 213.533 875.96 214.773 875.96 216.24C875.96 218.533 875.093 220.347 873.36 221.68C871.627 223.013 869.147 223.68 865.92 223.68ZM879.822 223V201.8C879.822 200.6 879.649 199.64 879.302 198.92C878.982 198.173 878.222 197.8 877.022 197.8H876.622V196.6H881.422C882.355 196.6 883.075 196.76 883.582 197.08C884.115 197.4 884.489 197.933 884.702 198.68C884.915 199.427 885.022 200.467 885.022 201.8V205.32C885.475 204.973 886.089 204.64 886.862 204.32C887.662 203.973 888.515 203.8 889.422 203.8C890.329 203.8 891.222 203.907 892.102 204.12C893.009 204.333 893.835 204.72 894.582 205.28C895.329 205.813 895.915 206.56 896.342 207.52C896.795 208.453 897.022 209.653 897.022 211.12V223H891.822V211.32C891.822 209.933 891.649 208.84 891.302 208.04C890.982 207.24 890.542 206.667 889.982 206.32C889.449 205.973 888.862 205.8 888.222 205.8C887.529 205.8 886.889 205.973 886.302 206.32C885.742 206.667 885.315 206.96 885.022 207.2V223H879.822ZM907.14 223.4C906.02 223.4 905.033 223.267 904.18 223C903.353 222.733 902.646 222.373 902.06 221.92C901.5 221.44 901.073 220.867 900.78 220.2C900.486 219.533 900.34 218.8 900.34 218C900.34 216.72 900.633 215.64 901.22 214.76C901.833 213.853 902.926 213.173 904.5 212.72C906.073 212.24 908.286 212 911.14 212H911.74C911.74 210.4 911.593 209.133 911.3 208.2C911.006 207.267 910.566 206.6 909.98 206.2C909.42 205.8 908.74 205.6 907.94 205.6C907.033 205.6 906.22 205.827 905.5 206.28C904.78 206.733 904.26 207.707 903.94 209.2H901.74C901.74 208.507 901.78 207.8 901.86 207.08C901.966 206.36 902.26 205.733 902.74 205.2C903.22 204.667 904.006 204.307 905.1 204.12C906.22 203.907 907.433 203.8 908.74 203.8C910.046 203.8 911.206 203.973 912.22 204.32C913.233 204.667 914.086 205.187 914.78 205.88C915.5 206.573 916.033 207.453 916.38 208.52C916.753 209.56 916.94 210.787 916.94 212.2V223H913.54L912.14 221.2H911.94C911.593 221.76 911.006 222.267 910.18 222.72C909.353 223.173 908.34 223.4 907.14 223.4ZM908.34 221.4C909.22 221.4 909.953 221.107 910.54 220.52C911.126 219.933 911.526 219.36 911.74 218.8V213.8H911.14C909.22 213.8 907.833 214.147 906.98 214.84C906.153 215.533 905.74 216.587 905.74 218C905.74 219.12 905.966 219.973 906.42 220.56C906.9 221.12 907.54 221.4 908.34 221.4ZM922.223 223V209.4C922.223 208.2 922.063 207.24 921.743 206.52C921.423 205.773 920.663 205.4 919.463 205.4H919.063V204.2H923.023C923.93 204.2 924.637 204.32 925.143 204.56C925.677 204.773 926.09 205.147 926.383 205.68C926.863 205.253 927.517 204.84 928.343 204.44C929.197 204.013 930.223 203.8 931.423 203.8C932.01 203.8 932.543 203.867 933.023 204C933.503 204.133 933.917 204.333 934.263 204.6C934.717 204.92 935.05 205.307 935.263 205.76C935.503 206.213 935.623 206.427 935.623 206.4L933.583 207.96C933.343 207.613 932.983 207.267 932.503 206.92C932.05 206.573 931.49 206.4 930.823 206.4C929.97 206.4 929.25 206.52 928.663 206.76C928.077 207 927.61 207.293 927.263 207.64C927.317 208.12 927.357 208.507 927.383 208.8C927.41 209.093 927.423 209.347 927.423 209.56V223H922.223ZM946.071 223.4C944.204 223.4 942.577 222.973 941.191 222.12C939.804 221.267 938.737 220.107 937.991 218.64C937.244 217.147 936.871 215.467 936.871 213.6C936.871 211.467 937.257 209.68 938.031 208.24C938.804 206.773 939.857 205.667 941.191 204.92C942.524 204.173 944.017 203.8 945.671 203.8C947.324 203.8 948.817 204.133 950.151 204.8C951.484 205.467 952.537 206.4 953.311 207.6C954.084 208.8 954.471 210.2 954.471 211.8L954.311 214.32H942.271C942.271 216.96 942.671 218.84 943.471 219.96C944.297 221.053 945.364 221.6 946.671 221.6C948.057 221.6 949.177 221.28 950.031 220.64C950.911 220 951.697 219.213 952.391 218.28L953.631 219.2C953.257 219.787 952.751 220.413 952.111 221.08C951.497 221.72 950.697 222.267 949.711 222.72C948.751 223.173 947.537 223.4 946.071 223.4ZM942.271 212.52H949.071C949.071 209.88 948.751 208.067 948.111 207.08C947.497 206.093 946.684 205.6 945.671 205.6C945.084 205.6 944.524 205.813 943.991 206.24C943.484 206.667 943.071 207.387 942.751 208.4C942.431 209.387 942.271 210.76 942.271 212.52Z" fill="#D7FF97"/>
<path d="M449.056 115C448.496 115 448.056 114.912 447.736 114.736C447.432 114.544 447.216 114.224 447.088 113.776C446.96 113.312 446.896 112.68 446.896 111.88V99.16H450.016V111.88C450.016 112.6 450.112 113.184 450.304 113.632C450.512 114.064 450.976 114.28 451.696 114.28H451.936V115H449.056ZM457.572 115.24C456.484 115.24 455.628 114.944 455.004 114.352C454.396 113.76 454.092 112.888 454.092 111.736V104.8H452.652V103.72H454.092V101.56L455.292 100.12H457.212V103.72H459.852V104.8H457.212V111.88C457.212 112.776 457.316 113.384 457.524 113.704C457.748 114.008 458.06 114.16 458.46 114.16C458.876 114.16 459.244 114.088 459.564 113.944C459.884 113.8 460.148 113.656 460.356 113.512L460.692 114.184C460.372 114.472 459.956 114.72 459.444 114.928C458.932 115.136 458.308 115.24 457.572 115.24ZM468.529 115V106.84C468.529 106.12 468.425 105.544 468.217 105.112C468.025 104.664 467.569 104.44 466.849 104.44H466.609V103.72H469.489C470.049 103.72 470.481 103.816 470.785 104.008C471.105 104.2 471.329 104.52 471.457 104.968C471.585 105.416 471.649 106.04 471.649 106.84V115H468.529ZM470.089 102.424C469.481 102.424 469.025 102.24 468.721 101.872C468.433 101.504 468.289 101.08 468.289 100.6C468.289 100.184 468.417 99.856 468.673 99.616C468.929 99.376 469.241 99.256 469.609 99.256C470.217 99.256 470.665 99.44 470.953 99.808C471.257 100.176 471.409 100.6 471.409 101.08C471.409 101.496 471.281 101.824 471.025 102.064C470.769 102.304 470.457 102.424 470.089 102.424ZM478.527 115.24C477.535 115.24 476.719 115.152 476.079 114.976C475.455 114.8 474.983 114.56 474.663 114.256C474.375 113.984 474.207 113.592 474.159 113.08C474.111 112.568 474.087 112.008 474.087 111.4H474.927C475.055 112.168 475.367 112.824 475.863 113.368C476.359 113.896 477.087 114.16 478.047 114.16C478.943 114.16 479.567 114.008 479.919 113.704C480.271 113.384 480.447 112.992 480.447 112.528C480.447 112.064 480.239 111.696 479.823 111.424C479.407 111.136 478.895 110.856 478.287 110.584L477.039 110.056C476.079 109.64 475.327 109.168 474.783 108.64C474.239 108.112 473.967 107.456 473.967 106.672C473.967 105.632 474.399 104.84 475.263 104.296C476.127 103.752 477.215 103.48 478.527 103.48C479.519 103.48 480.327 103.568 480.951 103.744C481.591 103.92 482.071 104.16 482.391 104.464C482.679 104.736 482.847 105.128 482.895 105.64C482.943 106.152 482.967 106.712 482.967 107.32H482.127C481.999 106.552 481.687 105.904 481.191 105.376C480.695 104.832 479.967 104.56 479.007 104.56C478.287 104.56 477.767 104.72 477.447 105.04C477.127 105.344 476.967 105.728 476.967 106.192C476.967 106.624 477.119 106.976 477.423 107.248C477.727 107.504 478.143 107.744 478.671 107.968L480.111 108.568C481.215 109.032 482.047 109.52 482.607 110.032C483.167 110.528 483.447 111.2 483.447 112.048C483.447 113.088 482.983 113.88 482.055 114.424C481.127 114.968 479.951 115.24 478.527 115.24ZM495.682 115.24C494.594 115.24 493.738 114.944 493.114 114.352C492.506 113.76 492.202 112.888 492.202 111.736V104.8H490.762V103.72H492.202V101.56L493.402 100.12H495.322V103.72H497.962V104.8H495.322V111.88C495.322 112.776 495.426 113.384 495.634 113.704C495.858 114.008 496.17 114.16 496.57 114.16C496.986 114.16 497.354 114.088 497.674 113.944C497.994 113.8 498.258 113.656 498.466 113.512L498.802 114.184C498.482 114.472 498.066 114.72 497.554 114.928C497.042 115.136 496.418 115.24 495.682 115.24ZM500.182 115V102.28C500.182 101.56 500.078 100.984 499.87 100.552C499.678 100.104 499.222 99.88 498.502 99.88H498.262V99.16H501.142C501.702 99.16 502.134 99.256 502.438 99.448C502.758 99.64 502.982 99.96 503.11 100.408C503.238 100.856 503.302 101.48 503.302 102.28V104.392C503.574 104.184 503.942 103.984 504.406 103.792C504.886 103.584 505.398 103.48 505.942 103.48C506.486 103.48 507.022 103.544 507.55 103.672C508.094 103.8 508.59 104.032 509.038 104.368C509.486 104.688 509.838 105.136 510.094 105.712C510.366 106.272 510.502 106.992 510.502 107.872V115H507.382V107.992C507.382 107.16 507.278 106.504 507.07 106.024C506.878 105.544 506.614 105.2 506.278 104.992C505.958 104.784 505.606 104.68 505.222 104.68C504.806 104.68 504.422 104.784 504.07 104.992C503.734 105.2 503.478 105.376 503.302 105.52V115H500.182ZM513.693 115V106.84C513.693 106.12 513.589 105.544 513.381 105.112C513.189 104.664 512.733 104.44 512.013 104.44H511.773V103.72H514.653C515.213 103.72 515.645 103.816 515.949 104.008C516.269 104.2 516.493 104.52 516.621 104.968C516.749 105.416 516.813 106.04 516.813 106.84V115H513.693ZM515.253 102.424C514.645 102.424 514.189 102.24 513.885 101.872C513.597 101.504 513.453 101.08 513.453 100.6C513.453 100.184 513.581 99.856 513.837 99.616C514.093 99.376 514.405 99.256 514.773 99.256C515.381 99.256 515.829 99.44 516.117 99.808C516.421 100.176 516.573 100.6 516.573 101.08C516.573 101.496 516.445 101.824 516.189 102.064C515.933 102.304 515.621 102.424 515.253 102.424ZM523.691 115.24C522.699 115.24 521.883 115.152 521.243 114.976C520.619 114.8 520.147 114.56 519.827 114.256C519.539 113.984 519.371 113.592 519.323 113.08C519.275 112.568 519.251 112.008 519.251 111.4H520.091C520.219 112.168 520.531 112.824 521.027 113.368C521.523 113.896 522.251 114.16 523.211 114.16C524.107 114.16 524.731 114.008 525.083 113.704C525.435 113.384 525.611 112.992 525.611 112.528C525.611 112.064 525.403 111.696 524.987 111.424C524.571 111.136 524.059 110.856 523.451 110.584L522.203 110.056C521.243 109.64 520.491 109.168 519.947 108.64C519.403 108.112 519.131 107.456 519.131 106.672C519.131 105.632 519.563 104.84 520.427 104.296C521.291 103.752 522.379 103.48 523.691 103.48C524.683 103.48 525.491 103.568 526.115 103.744C526.755 103.92 527.235 104.16 527.555 104.464C527.843 104.736 528.011 105.128 528.059 105.64C528.107 106.152 528.131 106.712 528.131 107.32H527.291C527.163 106.552 526.851 105.904 526.355 105.376C525.859 104.832 525.131 104.56 524.171 104.56C523.451 104.56 522.931 104.72 522.611 105.04C522.291 105.344 522.131 105.728 522.131 106.192C522.131 106.624 522.283 106.976 522.587 107.248C522.891 107.504 523.307 107.744 523.835 107.968L525.275 108.568C526.379 109.032 527.211 109.52 527.771 110.032C528.331 110.528 528.611 111.2 528.611 112.048C528.611 113.088 528.147 113.88 527.219 114.424C526.291 114.968 525.115 115.24 523.691 115.24ZM540.918 115.24C539.926 115.24 539.11 115.152 538.47 114.976C537.846 114.8 537.374 114.56 537.054 114.256C536.766 113.984 536.598 113.592 536.55 113.08C536.502 112.568 536.478 112.008 536.478 111.4H537.318C537.446 112.168 537.758 112.824 538.254 113.368C538.75 113.896 539.478 114.16 540.438 114.16C541.334 114.16 541.958 114.008 542.31 113.704C542.662 113.384 542.838 112.992 542.838 112.528C542.838 112.064 542.63 111.696 542.214 111.424C541.798 111.136 541.286 110.856 540.678 110.584L539.43 110.056C538.47 109.64 537.718 109.168 537.174 108.64C536.63 108.112 536.358 107.456 536.358 106.672C536.358 105.632 536.79 104.84 537.654 104.296C538.518 103.752 539.606 103.48 540.918 103.48C541.91 103.48 542.718 103.568 543.342 103.744C543.982 103.92 544.462 104.16 544.782 104.464C545.07 104.736 545.238 105.128 545.286 105.64C545.334 106.152 545.358 106.712 545.358 107.32H544.518C544.39 106.552 544.078 105.904 543.582 105.376C543.086 104.832 542.358 104.56 541.398 104.56C540.678 104.56 540.158 104.72 539.838 105.04C539.518 105.344 539.358 105.728 539.358 106.192C539.358 106.624 539.51 106.976 539.814 107.248C540.118 107.504 540.534 107.744 541.062 107.968L542.502 108.568C543.606 109.032 544.438 109.52 544.998 110.032C545.558 110.528 545.838 111.2 545.838 112.048C545.838 113.088 545.374 113.88 544.446 114.424C543.518 114.968 542.342 115.24 540.918 115.24ZM548.544 115V106.84C548.544 106.12 548.44 105.544 548.232 105.112C548.04 104.664 547.584 104.44 546.864 104.44H546.624V103.72H549.504C550.064 103.72 550.496 103.816 550.8 104.008C551.12 104.2 551.344 104.52 551.472 104.968C551.6 105.416 551.664 106.04 551.664 106.84V115H548.544ZM550.104 102.424C549.496 102.424 549.04 102.24 548.736 101.872C548.448 101.504 548.304 101.08 548.304 100.6C548.304 100.184 548.432 99.856 548.688 99.616C548.944 99.376 549.256 99.256 549.624 99.256C550.232 99.256 550.68 99.44 550.968 99.808C551.272 100.176 551.424 100.6 551.424 101.08C551.424 101.496 551.296 101.824 551.04 102.064C550.784 102.304 550.472 102.424 550.104 102.424ZM554.967 115V106.84C554.967 106.12 554.871 105.544 554.679 105.112C554.487 104.664 554.031 104.44 553.311 104.44H553.071V103.72H555.447C555.927 103.72 556.343 103.792 556.695 103.936C557.047 104.064 557.311 104.296 557.487 104.632H557.583C557.871 104.376 558.263 104.12 558.759 103.864C559.271 103.608 559.887 103.48 560.607 103.48C561.215 103.48 561.743 103.568 562.191 103.744C562.639 103.904 563.007 104.096 563.295 104.32C563.599 104.528 563.807 104.704 563.919 104.848C564.239 104.496 564.655 104.184 565.167 103.912C565.679 103.624 566.399 103.48 567.327 103.48C568.223 103.48 568.983 103.632 569.607 103.936C570.231 104.24 570.703 104.72 571.023 105.376C571.359 106.016 571.527 106.856 571.527 107.896V115H568.407V107.872C568.407 106.704 568.223 105.88 567.855 105.4C567.487 104.92 567.031 104.68 566.487 104.68C566.039 104.68 565.631 104.768 565.263 104.944C564.911 105.12 564.631 105.336 564.423 105.592C564.551 105.832 564.647 106.16 564.711 106.576C564.775 106.976 564.807 107.416 564.807 107.896V115H561.687V107.872C561.687 106.704 561.503 105.88 561.135 105.4C560.767 104.92 560.311 104.68 559.767 104.68C559.463 104.68 559.151 104.768 558.831 104.944C558.527 105.104 558.279 105.272 558.087 105.448V115H554.967ZM574.795 119.56V106.84C574.795 106.12 574.699 105.544 574.507 105.112C574.315 104.664 573.859 104.44 573.139 104.44H572.899V103.72H575.275C575.819 103.72 576.243 103.792 576.547 103.936C576.867 104.08 577.115 104.344 577.291 104.728C577.579 104.472 577.987 104.2 578.515 103.912C579.043 103.624 579.723 103.48 580.555 103.48C581.675 103.48 582.603 103.744 583.339 104.272C584.091 104.784 584.651 105.488 585.019 106.384C585.403 107.264 585.595 108.256 585.595 109.36C585.595 110.448 585.403 111.44 585.019 112.336C584.651 113.232 584.083 113.944 583.315 114.472C582.563 114.984 581.603 115.24 580.435 115.24C579.907 115.24 579.411 115.16 578.947 115C578.499 114.856 578.155 114.696 577.915 114.52V119.56H574.795ZM579.955 114.16C580.563 114.16 581.035 113.952 581.371 113.536C581.723 113.12 581.971 112.552 582.115 111.832C582.275 111.096 582.355 110.272 582.355 109.36C582.355 108.432 582.275 107.608 582.115 106.888C581.971 106.168 581.731 105.6 581.395 105.184C581.075 104.768 580.635 104.56 580.075 104.56C579.531 104.56 579.091 104.648 578.755 104.824C578.419 105 578.139 105.184 577.915 105.376V113.44C578.107 113.6 578.395 113.76 578.779 113.92C579.163 114.08 579.555 114.16 579.955 114.16ZM588.028 115V102.28C588.028 101.56 587.924 100.984 587.716 100.552C587.524 100.104 587.068 99.88 586.348 99.88H586.108V99.16H588.988C589.548 99.16 589.98 99.256 590.284 99.448C590.604 99.64 590.828 99.96 590.956 100.408C591.084 100.856 591.148 101.48 591.148 102.28V115H588.028ZM599.088 115.24C597.968 115.24 596.992 114.984 596.16 114.472C595.328 113.96 594.688 113.264 594.24 112.384C593.792 111.488 593.568 110.48 593.568 109.36C593.568 108.08 593.8 107.008 594.264 106.144C594.728 105.264 595.36 104.6 596.16 104.152C596.96 103.704 597.856 103.48 598.848 103.48C599.84 103.48 600.736 103.68 601.536 104.08C602.336 104.48 602.968 105.04 603.432 105.76C603.896 106.48 604.128 107.32 604.128 108.28L604.032 109.792H596.808C596.808 111.376 597.048 112.504 597.528 113.176C598.024 113.832 598.664 114.16 599.448 114.16C600.28 114.16 600.952 113.968 601.464 113.584C601.992 113.2 602.464 112.728 602.88 112.168L603.624 112.72C603.4 113.072 603.096 113.448 602.712 113.848C602.344 114.232 601.864 114.56 601.272 114.832C600.696 115.104 599.968 115.24 599.088 115.24ZM596.808 108.712H600.888C600.888 107.128 600.696 106.04 600.312 105.448C599.944 104.856 599.456 104.56 598.848 104.56C598.496 104.56 598.16 104.688 597.84 104.944C597.536 105.2 597.288 105.632 597.096 106.24C596.904 106.832 596.808 107.656 596.808 108.712ZM607.747 106.864C607.283 106.864 606.923 106.728 606.667 106.456C606.411 106.184 606.283 105.832 606.283 105.4C606.283 104.968 606.411 104.616 606.667 104.344C606.923 104.072 607.283 103.936 607.747 103.936C608.211 103.936 608.571 104.072 608.827 104.344C609.083 104.616 609.211 104.968 609.211 105.4C609.211 105.832 609.083 106.184 608.827 106.456C608.571 106.728 608.211 106.864 607.747 106.864ZM607.747 115.336C607.283 115.336 606.923 115.2 606.667 114.928C606.411 114.656 606.283 114.304 606.283 113.872C606.283 113.44 606.411 113.088 606.667 112.816C606.923 112.544 607.283 112.408 607.747 112.408C608.211 112.408 608.571 112.544 608.827 112.816C609.083 113.088 609.211 113.44 609.211 113.872C609.211 114.304 609.083 114.656 608.827 114.928C608.571 115.2 608.211 115.336 607.747 115.336Z" fill="white"/>
<path d="M128.175 231.818V258H123.393L112.003 241.521H111.811V258H106.276V231.818H111.134L122.435 248.284H122.665V231.818H128.175ZM132.748 258V231.818H150.39V236.382H138.284V242.621H149.483V247.185H138.284V253.436H150.441V258H132.748ZM160.685 258L153.193 231.818H159.24L163.574 250.01H163.791L168.572 231.818H173.75L178.518 250.048H178.749L183.082 231.818H189.129L181.638 258H176.243L171.257 240.882H171.053L166.08 258H160.685ZM200.424 231.818H207.251L214.461 249.409H214.768L221.978 231.818H228.805V258H223.435V240.959H223.218L216.442 257.872H212.786L206.011 240.895H205.793V258H200.424V231.818ZM249.537 231.818H255.073V248.821C255.073 250.73 254.617 252.401 253.705 253.832C252.801 255.264 251.536 256.381 249.908 257.182C248.28 257.974 246.384 258.371 244.219 258.371C242.046 258.371 240.145 257.974 238.517 257.182C236.89 256.381 235.624 255.264 234.721 253.832C233.817 252.401 233.365 250.73 233.365 248.821V231.818H238.901V248.348C238.901 249.345 239.118 250.232 239.553 251.007C239.996 251.783 240.618 252.392 241.419 252.835C242.221 253.278 243.154 253.5 244.219 253.5C245.293 253.5 246.226 253.278 247.019 252.835C247.82 252.392 248.438 251.783 248.873 251.007C249.316 250.232 249.537 249.345 249.537 248.348V231.818ZM273.83 239.348C273.728 238.317 273.289 237.516 272.513 236.945C271.738 236.374 270.685 236.088 269.356 236.088C268.452 236.088 267.69 236.216 267.067 236.472C266.445 236.719 265.968 237.064 265.636 237.507C265.312 237.95 265.15 238.453 265.15 239.016C265.133 239.484 265.231 239.893 265.444 240.243C265.665 240.592 265.968 240.895 266.352 241.151C266.735 241.398 267.178 241.615 267.681 241.803C268.184 241.982 268.721 242.135 269.292 242.263L271.644 242.825C272.786 243.081 273.835 243.422 274.789 243.848C275.744 244.274 276.57 244.798 277.269 245.42C277.968 246.043 278.509 246.776 278.893 247.619C279.285 248.463 279.485 249.43 279.494 250.521C279.485 252.124 279.076 253.513 278.266 254.689C277.465 255.857 276.306 256.764 274.789 257.412C273.281 258.051 271.461 258.371 269.33 258.371C267.217 258.371 265.376 258.047 263.808 257.399C262.248 256.751 261.029 255.793 260.151 254.523C259.282 253.244 258.826 251.663 258.783 249.78H264.14C264.2 250.658 264.451 251.391 264.894 251.979C265.346 252.558 265.947 252.997 266.697 253.295C267.455 253.585 268.312 253.73 269.266 253.73C270.204 253.73 271.018 253.594 271.708 253.321C272.407 253.048 272.948 252.669 273.332 252.183C273.715 251.697 273.907 251.139 273.907 250.509C273.907 249.92 273.732 249.426 273.383 249.026C273.042 248.625 272.539 248.284 271.874 248.003C271.218 247.722 270.413 247.466 269.458 247.236L266.607 246.52C264.4 245.983 262.657 245.143 261.379 244.001C260.1 242.859 259.465 241.321 259.474 239.386C259.465 237.801 259.887 236.416 260.739 235.232C261.6 234.047 262.781 233.122 264.281 232.457C265.781 231.793 267.485 231.46 269.394 231.46C271.337 231.46 273.033 231.793 274.482 232.457C275.94 233.122 277.073 234.047 277.883 235.232C278.692 236.416 279.11 237.788 279.136 239.348H273.83ZM288.752 231.818V258H283.217V231.818H288.752ZM316.408 240.984H310.808C310.706 240.26 310.497 239.616 310.182 239.054C309.866 238.483 309.462 237.997 308.967 237.597C308.473 237.196 307.902 236.889 307.254 236.676C306.615 236.463 305.92 236.357 305.17 236.357C303.815 236.357 302.635 236.693 301.629 237.366C300.624 238.031 299.844 239.003 299.29 240.281C298.736 241.551 298.459 243.094 298.459 244.909C298.459 246.776 298.736 248.344 299.29 249.614C299.852 250.884 300.636 251.842 301.642 252.49C302.648 253.138 303.811 253.462 305.132 253.462C305.874 253.462 306.56 253.364 307.19 253.168C307.83 252.972 308.396 252.686 308.891 252.311C309.385 251.928 309.794 251.463 310.118 250.918C310.45 250.372 310.68 249.75 310.808 249.051L316.408 249.077C316.263 250.278 315.901 251.438 315.321 252.554C314.75 253.662 313.979 254.655 313.007 255.533C312.044 256.402 310.893 257.092 309.555 257.604C308.226 258.107 306.722 258.358 305.043 258.358C302.707 258.358 300.619 257.83 298.778 256.773C296.946 255.716 295.497 254.186 294.432 252.183C293.375 250.18 292.847 247.756 292.847 244.909C292.847 242.054 293.384 239.625 294.457 237.622C295.531 235.619 296.989 234.094 298.83 233.045C300.67 231.989 302.741 231.46 305.043 231.46C306.56 231.46 307.966 231.673 309.261 232.099C310.565 232.526 311.72 233.148 312.726 233.966C313.732 234.776 314.55 235.768 315.18 236.945C315.82 238.121 316.229 239.467 316.408 240.984Z" fill="white"/>
<path d="M407.278 236.382V231.818H428.781V236.382H420.766V258H415.294V236.382H407.278ZM455.187 244.909C455.187 247.764 454.646 250.193 453.563 252.196C452.489 254.199 451.023 255.729 449.165 256.786C447.316 257.834 445.237 258.358 442.927 258.358C440.6 258.358 438.512 257.83 436.663 256.773C434.813 255.716 433.352 254.186 432.278 252.183C431.204 250.18 430.667 247.756 430.667 244.909C430.667 242.054 431.204 239.625 432.278 237.622C433.352 235.619 434.813 234.094 436.663 233.045C438.512 231.989 440.6 231.46 442.927 231.46C445.237 231.46 447.316 231.989 449.165 233.045C451.023 234.094 452.489 235.619 453.563 237.622C454.646 239.625 455.187 242.054 455.187 244.909ZM449.575 244.909C449.575 243.06 449.298 241.5 448.744 240.23C448.198 238.96 447.427 237.997 446.43 237.341C445.433 236.685 444.265 236.357 442.927 236.357C441.589 236.357 440.421 236.685 439.424 237.341C438.427 237.997 437.651 238.96 437.097 240.23C436.552 241.5 436.279 243.06 436.279 244.909C436.279 246.759 436.552 248.318 437.097 249.588C437.651 250.858 438.427 251.821 439.424 252.477C440.421 253.134 441.589 253.462 442.927 253.462C444.265 253.462 445.433 253.134 446.43 252.477C447.427 251.821 448.198 250.858 448.744 249.588C449.298 248.318 449.575 246.759 449.575 244.909ZM473.513 258L466.021 231.818H472.068L476.402 250.01H476.619L481.401 231.818H486.578L491.347 250.048H491.577L495.911 231.818H501.957L494.466 258H489.071L484.085 240.882H483.881L478.908 258H473.513ZM504.92 258V231.818H510.456V242.621H521.693V231.818H527.216V258H521.693V247.185H510.456V258H504.92ZM536.292 258H530.36L539.399 231.818H546.532L555.558 258H549.626L543.068 237.801H542.863L536.292 258ZM535.922 247.709H549.933V252.03H535.922V247.709ZM554.513 236.382V231.818H576.016V236.382H568V258H562.528V236.382H554.513ZM586.355 231.818H592.555L598.525 243.094H598.781L604.751 231.818H610.951L601.402 248.744V258H595.904V248.744L586.355 231.818ZM636.452 244.909C636.452 247.764 635.911 250.193 634.829 252.196C633.755 254.199 632.289 255.729 630.431 256.786C628.582 257.834 626.502 258.358 624.192 258.358C621.866 258.358 619.778 257.83 617.928 256.773C616.079 255.716 614.617 254.186 613.543 252.183C612.469 250.18 611.933 247.756 611.933 244.909C611.933 242.054 612.469 239.625 613.543 237.622C614.617 235.619 616.079 234.094 617.928 233.045C619.778 231.989 621.866 231.46 624.192 231.46C626.502 231.46 628.582 231.989 630.431 233.045C632.289 234.094 633.755 235.619 634.829 237.622C635.911 239.625 636.452 242.054 636.452 244.909ZM630.84 244.909C630.84 243.06 630.563 241.5 630.009 240.23C629.464 238.96 628.692 237.997 627.695 237.341C626.698 236.685 625.531 236.357 624.192 236.357C622.854 236.357 621.687 236.685 620.69 237.341C619.692 237.997 618.917 238.96 618.363 240.23C617.817 241.5 617.545 243.06 617.545 244.909C617.545 246.759 617.817 248.318 618.363 249.588C618.917 250.858 619.692 251.821 620.69 252.477C621.687 253.134 622.854 253.462 624.192 253.462C625.531 253.462 626.698 253.134 627.695 252.477C628.692 251.821 629.464 250.858 630.009 249.588C630.563 248.318 630.84 246.759 630.84 244.909ZM656.725 231.818H662.26V248.821C662.26 250.73 661.804 252.401 660.892 253.832C659.989 255.264 658.723 256.381 657.096 257.182C655.468 257.974 653.571 258.371 651.407 258.371C649.233 258.371 647.333 257.974 645.705 257.182C644.077 256.381 642.811 255.264 641.908 253.832C641.005 252.401 640.553 250.73 640.553 248.821V231.818H646.088V248.348C646.088 249.345 646.306 250.232 646.74 251.007C647.184 251.783 647.806 252.392 648.607 252.835C649.408 253.278 650.341 253.5 651.407 253.5C652.48 253.5 653.414 253.278 654.206 252.835C655.007 252.392 655.625 251.783 656.06 251.007C656.503 250.232 656.725 249.345 656.725 248.348V231.818ZM675.147 258V231.818H680.682V253.436H691.907V258H675.147ZM718.613 244.909C718.613 247.764 718.071 250.193 716.989 252.196C715.915 254.199 714.449 255.729 712.591 256.786C710.742 257.834 708.662 258.358 706.353 258.358C704.026 258.358 701.938 257.83 700.088 256.773C698.239 255.716 696.777 254.186 695.703 252.183C694.63 250.18 694.093 247.756 694.093 244.909C694.093 242.054 694.63 239.625 695.703 237.622C696.777 235.619 698.239 234.094 700.088 233.045C701.938 231.989 704.026 231.46 706.353 231.46C708.662 231.46 710.742 231.989 712.591 233.045C714.449 234.094 715.915 235.619 716.989 237.622C718.071 239.625 718.613 242.054 718.613 244.909ZM713 244.909C713 243.06 712.723 241.5 712.169 240.23C711.624 238.96 710.853 237.997 709.855 237.341C708.858 236.685 707.691 236.357 706.353 236.357C705.015 236.357 703.847 236.685 702.85 237.341C701.853 237.997 701.077 238.96 700.523 240.23C699.978 241.5 699.705 243.06 699.705 244.909C699.705 246.759 699.978 248.318 700.523 249.588C701.077 250.858 701.853 251.821 702.85 252.477C703.847 253.134 705.015 253.462 706.353 253.462C707.691 253.462 708.858 253.134 709.855 252.477C710.853 251.821 711.624 250.858 712.169 249.588C712.723 248.318 713 246.759 713 244.909ZM725.967 231.818L732.295 251.71H732.538L738.879 231.818H745.015L735.989 258H728.856L719.817 231.818H725.967ZM748.166 258V231.818H765.808V236.382H753.702V242.621H764.901V247.185H753.702V253.436H765.859V258H748.166Z" fill="white"/>
</g>
<defs>
<linearGradient id="paint0_linear_807_422" x1="542" y1="0" x2="542" y2="418" gradientUnits="userSpaceOnUse">
<stop stop-color="#164DF2"/>
<stop offset="0.411458" stop-color="#486CD9" stop-opacity="0.9"/>
<stop offset="0.541667" stop-color="#5A73BF" stop-opacity="0.9"/>
<stop offset="0.984375" stop-color="#3DF2E0" stop-opacity="0.9"/>
</linearGradient>
<clipPath id="clip0_807_422">
<rect width="1084" height="418" fill="white"/>
</clipPath>
</defs>
</svg>
