<svg width="240" height="75" viewBox="0 0 240 75" fill="none" xmlns="http://www.w3.org/2000/svg">
<path d="M15.776 53.912C15.328 53.912 15.104 53.432 15.104 52.472C15.104 51.832 15.232 51.032 15.488 50.072C15.808 49.176 16.192 48.12 16.64 46.904C17.152 46.456 17.408 45.88 17.408 45.176C17.536 45.24 17.6 45.24 17.6 45.176C17.664 45.048 17.696 44.984 17.696 44.984C17.824 44.792 17.888 44.6 17.888 44.408C17.888 44.152 17.92 43.928 17.984 43.736V43.544C17.728 42.904 17.6 42.36 17.6 41.912L17.408 41.816C17.28 41.432 17.184 41.016 17.12 40.568C17.12 40.12 17.152 39.704 17.216 39.32C17.28 38.936 17.248 38.744 17.12 38.744C17.056 38.68 17.024 38.584 17.024 38.456C17.024 38.328 17.024 38.232 17.024 38.168C17.088 38.04 17.152 37.848 17.216 37.592C17.28 37.464 17.376 37.24 17.504 36.92C17.696 36.536 17.792 36.312 17.792 36.248C17.792 36.12 17.76 36.024 17.696 35.96C17.632 35.832 17.6 35.736 17.6 35.672L17.888 35.288V34.616C17.952 34.488 17.984 34.328 17.984 34.136C18.048 34.008 18.144 33.912 18.272 33.848C18.4 33.72 18.496 33.624 18.56 33.56C18.688 33.432 18.784 33.272 18.848 33.08C18.976 32.824 19.072 32.632 19.136 32.504C19.2 32.376 19.264 32.28 19.328 32.216C19.456 32.088 19.552 31.928 19.616 31.736C19.744 31.544 19.84 31.384 19.904 31.256C19.968 31.064 20.064 30.872 20.192 30.68L20.864 30.104C21.12 29.848 21.376 29.72 21.632 29.72C21.888 29.72 22.048 29.976 22.112 30.488L22.016 30.968L20.48 32.6C20.352 32.728 20.288 32.888 20.288 33.08C20.224 33.144 20.16 33.208 20.096 33.272C20.096 33.336 20.064 33.432 20 33.56C20 33.688 19.904 33.848 19.712 34.04L19.424 34.904C19.296 34.904 19.232 34.968 19.232 35.096C19.168 35.16 19.104 35.544 19.04 36.248C19.04 36.888 19.04 37.272 19.04 37.4H19.328C19.328 37.464 19.328 37.56 19.328 37.688C19.392 37.752 19.392 37.848 19.328 37.976V38.552C19.328 38.68 19.296 38.808 19.232 38.936C19.232 38.936 19.2 38.968 19.136 39.032C19.136 39.032 19.136 39.064 19.136 39.128C19.136 39.192 19.168 39.288 19.232 39.416C19.296 39.48 19.328 39.576 19.328 39.704C19.328 39.768 19.296 39.832 19.232 39.896C19.232 39.896 19.232 39.928 19.232 39.992C19.232 40.056 19.264 40.12 19.328 40.184C19.392 40.184 19.424 40.216 19.424 40.28V40.376C19.936 39.416 20.416 38.424 20.864 37.4C21.376 36.376 21.888 35.352 22.4 34.328C22.528 34.072 22.656 34.008 22.784 34.136C22.976 34.2 23.104 34.168 23.168 34.04C23.232 33.976 23.264 33.816 23.264 33.56C23.264 33.368 23.232 33.176 23.168 32.984C23.168 32.792 23.264 32.568 23.456 32.312L24.8 29.912C26.656 26.584 28.512 23.384 30.368 20.312C32.288 17.24 34.08 14.872 35.744 13.208L36.032 13.016L36.32 12.536C36.32 12.536 36.384 12.504 36.512 12.44C36.64 12.376 36.736 12.408 36.8 12.536C36.8 12.6 36.736 12.728 36.608 12.92C36.544 13.112 36.512 13.24 36.512 13.304C36.704 13.624 36.928 13.656 37.184 13.4C37.248 13.272 37.248 12.984 37.184 12.536C37.12 12.088 37.12 11.864 37.184 11.864C37.312 11.8 37.376 11.8 37.376 11.864C37.44 11.928 37.504 11.96 37.568 11.96C37.696 11.96 37.76 11.864 37.76 11.672C37.76 11.48 37.792 11.352 37.856 11.288C38.56 11.032 39.2 10.904 39.776 10.904C40.096 10.904 40.544 11.064 41.12 11.384C41.76 11.704 42.08 12.152 42.08 12.728C42.08 13.048 41.92 13.432 41.6 13.88C41.536 13.944 41.472 14.072 41.408 14.264C41.344 14.392 41.248 14.52 41.12 14.648C41.056 14.712 40.992 14.744 40.928 14.744C40.928 14.68 40.864 14.68 40.736 14.744C40.672 14.808 40.576 14.84 40.448 14.84C40.384 14.776 40.288 14.744 40.16 14.744C40.032 14.744 40 14.84 40.064 15.032C40.192 15.224 40.224 15.352 40.16 15.416C40.096 15.48 40.032 15.48 39.968 15.416C39.904 15.352 39.808 15.384 39.68 15.512C39.616 15.576 39.648 15.64 39.776 15.704C39.968 15.704 40 15.768 39.872 15.896C39.488 16.28 39.008 16.696 38.432 17.144C37.92 17.528 37.408 17.912 36.896 18.296C36.832 18.36 36.768 18.36 36.704 18.296C36.64 18.168 36.576 18.136 36.512 18.2L35.84 19.16C35.2 19.8 34.56 20.472 33.92 21.176C33.28 21.88 32.608 22.68 31.904 23.576C31.712 23.96 31.488 24.312 31.232 24.632C30.976 24.952 30.624 25.08 30.176 25.016C30.176 25.08 30.24 25.176 30.368 25.304C30.496 25.368 30.496 25.496 30.368 25.688C29.28 27.224 28.192 28.824 27.104 30.488C26.016 32.152 24.992 33.88 24.032 35.672C23.584 36.44 23.04 37.432 22.4 38.648L21.536 40.376C21.472 40.568 21.376 40.664 21.248 40.664C21.184 40.6 21.088 40.568 20.96 40.568C21.152 40.952 21.184 41.368 21.056 41.816C21.12 41.816 21.152 41.848 21.152 41.912C22.368 42.744 23.232 43.32 23.744 43.64C24.32 43.96 25.28 44.28 26.624 44.6C27.136 44.728 27.648 44.888 28.16 45.08C28.672 45.208 29.216 45.272 29.792 45.272C29.856 45.272 29.856 45.304 29.792 45.368C29.792 45.432 29.824 45.464 29.888 45.464C30.144 45.464 30.4 45.496 30.656 45.56C30.912 45.56 31.168 45.56 31.424 45.56C31.488 45.56 31.52 45.56 31.52 45.56C31.584 45.496 31.648 45.464 31.712 45.464C31.84 45.464 32.032 45.528 32.288 45.656C32.736 45.656 33.216 45.656 33.728 45.656C34.304 45.656 34.816 45.624 35.264 45.56C35.776 45.496 36.256 45.432 36.704 45.368C37.216 45.24 37.696 45.144 38.144 45.08C39.04 45.016 39.904 44.856 40.736 44.6C41.632 44.28 42.496 43.992 43.328 43.736C44.288 43.416 45.312 43.064 46.4 42.68C47.552 42.232 48.736 41.72 49.952 41.144C50.08 41.08 50.144 41.24 50.144 41.624C50.208 41.944 50.304 42.072 50.432 42.008C50.56 41.944 50.72 41.688 50.912 41.24C51.168 40.792 51.328 40.536 51.392 40.472L52.256 39.32L53.024 38.456C53.152 38.264 53.28 38.008 53.408 37.688C53.536 37.368 53.632 37.112 53.696 36.92C53.888 36.408 54.048 35.864 54.176 35.288C54.304 34.712 54.368 34.104 54.368 33.464C54.368 33.144 54.528 32.984 54.848 32.984C55.168 32.984 55.328 33.144 55.328 33.464C55.328 33.784 55.328 34.136 55.328 34.52C55.328 34.904 55.264 35.256 55.136 35.576C55.136 35.64 55.072 35.672 54.944 35.672C54.88 35.608 54.848 35.608 54.848 35.672C54.784 36.12 54.72 36.6 54.656 37.112C54.592 37.56 54.432 38.008 54.176 38.456L53.6 39.416C54.944 38.712 56.224 37.976 57.44 37.208C58.72 36.376 59.808 35.448 60.704 34.424L61.568 33.464C61.632 33.336 61.728 33.24 61.856 33.176C61.984 33.112 62.08 33.208 62.144 33.464C61.952 33.656 61.92 33.912 62.048 34.232C62.368 34.168 62.56 33.88 62.624 33.368C62.688 32.792 62.784 32.28 62.912 31.832C63.488 31.128 64.064 30.36 64.64 29.528C64.704 29.464 64.8 29.432 64.928 29.432C65.184 29.432 65.408 29.464 65.6 29.528C65.792 29.592 65.984 29.496 66.176 29.24C66.048 28.92 65.92 28.696 65.792 28.568C65.664 28.376 65.696 28.12 65.888 27.8L66.176 27.32C66.496 26.744 66.848 26.328 67.232 26.072C67.616 25.816 67.872 25.272 68 24.44C69.216 22.264 69.824 19.896 69.824 17.336C69.824 14.392 68.896 11.672 67.04 9.176C65.248 6.616 62.496 5.016 58.784 4.376C58.656 4.376 58.272 4.28 57.632 4.088C57.056 3.832 56.704 3.704 56.576 3.704C56.448 3.704 56.32 3.704 56.192 3.704C56.064 3.64 55.936 3.608 55.808 3.608C55.552 3.608 55.36 3.64 55.232 3.704C55.104 3.704 54.816 3.64 54.368 3.512C53.792 3.192 53.056 3 52.16 2.936C51.328 2.808 50.848 2.712 50.72 2.648L48.992 3.032C48.672 3.032 48.352 3.032 48.032 3.032C47.776 2.968 47.52 2.936 47.264 2.936C45.792 2.936 44.576 3.064 43.616 3.32C42.72 3.512 41.92 3.64 41.216 3.704L37.28 4.088C36.896 3.896 36.544 3.96 36.224 4.28H36.128C35.68 4.28 35.232 4.344 34.784 4.472C34.4 4.536 33.984 4.632 33.536 4.76C33.28 4.824 32.992 4.856 32.672 4.856C32.416 4.856 32.128 4.92 31.808 5.048V5.144C31.552 5.208 31.264 5.272 30.944 5.336C30.688 5.336 30.4 5.4 30.08 5.528H29.984C29.728 5.656 29.472 5.784 29.216 5.912C29.024 6.04 28.768 6.072 28.448 6.008C28.192 6.072 27.904 6.136 27.584 6.2C27.328 6.264 27.04 6.36 26.72 6.488H26.528C26.336 6.488 26.144 6.296 25.952 5.912C25.76 5.528 25.664 5.272 25.664 5.144C25.6 5.528 25.504 5.944 25.376 6.392C25.312 6.84 25.088 7.064 24.704 7.064V7.16C24.256 7.224 23.84 7.352 23.456 7.544C23.072 7.736 22.656 7.896 22.208 8.024C21.952 8.088 21.696 8.12 21.44 8.12C21.184 8.056 20.896 8.024 20.576 8.024C20.448 8.024 20.32 8.056 20.192 8.12C20.064 8.12 19.936 8.152 19.808 8.216C19.616 8.28 19.488 8.408 19.424 8.6C19.424 8.792 19.36 8.952 19.232 9.08C18.976 9.336 18.656 9.528 18.272 9.656C17.888 9.784 17.568 9.912 17.312 10.04C17.184 10.104 16.992 10.04 16.736 9.848C16.544 9.656 16.384 9.624 16.256 9.752C16.192 9.816 16.128 9.976 16.064 10.232C16.064 10.488 16 10.648 15.872 10.712H15.776L13.472 11.768C13.152 11.896 12.768 12.088 12.32 12.344C11.872 12.6 11.488 12.76 11.168 12.824C11.104 12.824 11.072 12.696 11.072 12.44C11.072 12.184 11.008 12.12 10.88 12.248C10.56 12.376 10.208 12.728 9.824 13.304C9.504 13.816 9.184 14.168 8.864 14.36C8.544 14.616 8.224 14.744 7.904 14.744C7.584 14.744 7.296 14.872 7.04 15.128C6.848 15.256 6.656 15.544 6.464 15.992C6.336 16.376 6.176 16.664 5.984 16.856L4.64 18.68C4.512 18.808 4.384 18.936 4.256 19.064C4.128 19.192 4.064 19.352 4.064 19.544C3.68 20.184 3.488 20.92 3.488 21.752C3.488 23.16 3.968 24.184 4.928 24.824C5.952 25.4 7.072 25.848 8.288 26.168H8.384C8.832 26.488 9.248 26.616 9.632 26.552C9.888 26.424 10.112 26.36 10.304 26.36C10.56 26.36 10.784 26.488 10.976 26.744L12.32 27.032C13.024 27.224 13.376 27.416 13.376 27.608C13.376 27.736 13.216 27.864 12.896 27.992C12.64 28.056 12.352 28.088 12.032 28.088C10.944 28.088 9.6 27.864 8 27.416C6.464 26.968 5.088 26.264 3.872 25.304C2.656 24.28 1.952 23.032 1.76 21.56C1.76 21.496 1.664 21.336 1.472 21.08C1.344 20.824 1.248 20.6 1.184 20.408C1.12 20.088 1.056 19.8 0.992 19.544C0.992 19.224 0.992 18.936 0.992 18.68C0.992 16.632 1.792 14.744 3.392 13.016C3.712 12.696 4 12.472 4.256 12.344C4.512 12.216 4.832 12.024 5.216 11.768C5.536 11.512 5.696 11.32 5.696 11.192C5.696 11 5.888 10.776 6.272 10.52C6.784 10.136 7.456 9.752 8.288 9.368C9.12 8.92 9.792 8.568 10.304 8.312V8.216H10.496C10.752 8.216 11.008 8.088 11.264 7.832C12.416 7.256 13.632 6.744 14.912 6.296C16.256 5.784 17.6 5.304 18.944 4.856C19.328 4.664 19.68 4.568 20 4.568C20.32 4.568 20.576 4.664 20.768 4.856C20.768 4.728 20.768 4.632 20.768 4.568C20.768 4.44 20.8 4.344 20.864 4.28V4.184C22.336 3.736 23.808 3.288 25.28 2.84C26.752 2.328 28.192 2.072 29.6 2.072H29.696C30.08 2.072 30.368 2.008 30.56 1.88L31.136 1.784H31.232C31.616 1.912 31.968 1.848 32.288 1.592C33.888 1.272 35.424 1.08 36.896 1.016C38.368 0.951998 39.616 0.887998 40.64 0.823997C40.832 0.887998 41.024 0.919998 41.216 0.919998C41.408 0.855997 41.568 0.823997 41.696 0.823997L42.656 0.727998C42.848 0.727998 43.04 0.759997 43.232 0.823997C43.488 0.823997 43.712 0.791997 43.904 0.727998L49.28 0.631999H49.376C49.568 0.631999 49.728 0.727999 49.856 0.919998C50.048 1.048 50.24 0.983998 50.432 0.727998C50.944 0.727998 51.712 0.823997 52.736 1.016C53.824 1.208 54.912 1.4 56 1.592C57.088 1.72 57.888 1.848 58.4 1.976C59.36 2.168 60.704 2.616 62.432 3.32C64.224 3.96 66.016 4.952 67.808 6.296C69.6 7.576 71.04 9.304 72.128 11.48C73.28 13.592 73.696 16.248 73.376 19.448C73.312 20.6 73.056 21.688 72.608 22.712C72.16 23.736 71.68 24.792 71.168 25.88L70.208 27.992C70.144 28.056 70.048 28.152 69.92 28.28C69.792 28.344 69.664 28.44 69.536 28.568C69.472 28.76 69.376 28.92 69.248 29.048C69.12 29.112 68.992 29.24 68.864 29.432C68.608 29.816 68.32 30.2 68 30.584C67.68 30.904 67.36 31.288 67.04 31.736L66.848 32.024C65.952 33.432 64.832 34.712 63.488 35.864C62.144 36.952 60.8 37.944 59.456 38.84V38.936C59.328 39 59.168 39.096 58.976 39.224C58.848 39.288 58.72 39.384 58.592 39.512L58.496 39.608H58.4C58.272 39.672 58.112 39.736 57.92 39.8C57.728 39.864 57.568 40.024 57.44 40.28C57.184 40.472 56.928 40.568 56.672 40.568C55.84 41.016 55.072 41.4 54.368 41.72C53.664 41.976 53.056 42.232 52.544 42.488C52.544 42.616 52.448 42.808 52.256 43.064C52.064 43.32 51.904 43.512 51.776 43.64C50.688 44.536 49.952 45.272 49.568 45.848C49.184 46.424 48.704 46.872 48.128 47.192C48.064 47.256 47.968 47.288 47.84 47.288C47.584 47.288 47.392 47.384 47.264 47.576C47.136 47.768 47.008 47.96 46.88 48.152C46.56 48.472 45.92 48.792 44.96 49.112C44.064 49.432 43.392 49.752 42.944 50.072C42.752 50.136 42.528 50.2 42.272 50.264C42.08 50.392 41.984 50.456 41.984 50.456H41.504C41.44 50.456 41.312 50.52 41.12 50.648C40.928 50.84 40.768 50.968 40.64 51.032C40.512 51.096 40.384 51.128 40.256 51.128C40.128 51.128 40.032 51.192 39.968 51.32C39.648 51.32 39.296 51.384 38.912 51.512C38.848 51.512 38.528 51.512 37.952 51.512C37.376 51.576 37.024 51.64 36.896 51.704C36.832 51.768 36.608 51.864 36.224 51.992C35.84 52.12 35.584 52.184 35.456 52.184C35.392 52.184 35.328 52.152 35.264 52.088C35.2 52.088 35.104 52.12 34.976 52.184C34.912 52.312 34.816 52.376 34.688 52.376C34.624 52.376 34.496 52.344 34.304 52.28C34.176 52.28 34.048 52.28 33.92 52.28C33.856 52.216 33.728 52.248 33.536 52.376C33.408 52.504 33.28 52.568 33.152 52.568C33.088 52.568 33.024 52.536 32.96 52.472C32.96 52.472 32.928 52.472 32.864 52.472C32.736 52.472 32.608 52.504 32.48 52.568C32.352 52.632 32.224 52.664 32.096 52.664C31.648 52.664 31.232 52.632 30.848 52.568C30.464 52.504 30.08 52.472 29.696 52.472C29.632 52.472 29.44 52.376 29.12 52.184C28.864 51.992 28.704 51.896 28.64 51.896C28.192 51.896 27.744 51.864 27.296 51.8C26.912 51.8 26.528 51.768 26.144 51.704C26.08 51.704 26.016 51.64 25.952 51.512C25.952 51.448 25.888 51.416 25.76 51.416H25.568C25.504 51.416 25.344 51.352 25.088 51.224C24.896 51.096 24.768 51 24.704 50.936L24.608 50.84C24.352 50.776 24.192 50.68 24.128 50.552C24.128 50.424 24.064 50.36 23.936 50.36C23.872 50.36 23.84 50.36 23.84 50.36C23.84 50.424 23.808 50.456 23.744 50.456C23.616 50.456 23.552 50.392 23.552 50.264C23.36 50.136 23.04 49.976 22.592 49.784C22.208 49.592 21.952 49.368 21.824 49.112C21.568 49.048 21.408 48.984 21.344 48.92C21.344 48.856 21.28 48.728 21.152 48.536L20.768 48.344L19.808 47.48C19.808 47.288 19.776 47.192 19.712 47.192L19.424 47C19.424 46.744 19.328 46.616 19.136 46.616C19.008 46.232 18.944 46.04 18.944 46.04C18.368 47.32 17.856 48.568 17.408 49.784C17.024 51 16.672 52.12 16.352 53.144C16.224 53.656 16.032 53.912 15.776 53.912ZM32.576 51.032C32.704 51.032 32.8 51 32.864 50.936C32.992 50.872 33.088 50.808 33.152 50.744H33.536C33.984 50.488 34.208 50.488 34.208 50.744C34.208 51 34.368 51 34.688 50.744H35.168C35.232 50.552 35.328 50.456 35.456 50.456C35.648 50.456 35.776 50.424 35.84 50.36C35.968 50.36 36.032 50.296 36.032 50.168C36.096 50.104 36.224 50.072 36.416 50.072C36.48 50.072 36.576 50.136 36.704 50.264C36.96 50.264 37.472 50.136 38.24 49.88C39.072 49.624 39.52 49.496 39.584 49.496C39.648 49.56 39.744 49.496 39.872 49.304C40.064 49.112 40.192 49.048 40.256 49.112C40.256 49.048 40.352 48.984 40.544 48.92C40.736 48.92 40.864 48.888 40.928 48.824C41.312 48.632 41.632 48.536 41.888 48.536C41.952 48.472 42.112 48.344 42.368 48.152C42.688 48.024 42.848 47.928 42.848 47.864C42.976 47.736 43.168 47.64 43.424 47.576C43.68 47.512 43.84 47.448 43.904 47.384C44.096 47.384 44.736 47.064 45.824 46.424C46.976 45.72 48.032 44.888 48.992 43.928C47.904 44.312 46.848 44.632 45.824 44.888C44.864 45.08 44.352 45.176 44.288 45.176C44.16 45.304 44.064 45.368 44 45.368C43.744 45.24 43.616 45.176 43.616 45.176L43.52 45.272C43.456 45.272 43.392 45.304 43.328 45.368C43.264 45.432 43.136 45.464 42.944 45.464C42.88 45.4 42.688 45.464 42.368 45.656C42.112 45.784 41.952 45.848 41.888 45.848C41.824 45.848 41.728 45.88 41.6 45.944C41.536 45.944 41.44 45.912 41.312 45.848C41.056 46.104 40.384 46.296 39.296 46.424C38.272 46.488 37.6 46.52 37.28 46.52H37.184C37.12 46.456 37.024 46.456 36.896 46.52C36.832 46.52 36.736 46.52 36.608 46.52C36.608 46.584 36.576 46.648 36.512 46.712H35.936C35.68 46.712 35.424 46.744 35.168 46.808C34.976 46.872 34.752 46.904 34.496 46.904L34.4 46.808C34.336 46.808 34.24 46.84 34.112 46.904C33.984 46.968 33.888 47 33.824 47C33.76 47 33.696 46.968 33.632 46.904C33.632 46.776 33.568 46.712 33.44 46.712C33.376 46.712 33.28 46.776 33.152 46.904C33.088 46.968 33.024 46.968 32.96 46.904H32.576C32.384 46.904 32.288 46.904 32.288 46.904C32.224 46.904 32.16 46.936 32.096 47C32.096 47 32.064 47 32 47C32 47 31.936 46.936 31.808 46.808C31.744 46.808 31.616 46.872 31.424 47C31.296 47.064 31.168 47.064 31.04 47H30.848C30.72 46.872 30.656 46.808 30.656 46.808C30.592 46.808 30.56 46.84 30.56 46.904H29.696C29.312 46.904 28.928 46.776 28.544 46.52C28.16 46.264 27.808 46.136 27.488 46.136C27.424 46.136 27.36 46.168 27.296 46.232C27.296 46.232 27.264 46.232 27.2 46.232C27.136 46.232 27.072 46.232 27.008 46.232C27.008 46.168 26.976 46.136 26.912 46.136C26.912 46.136 26.88 46.136 26.816 46.136C26.816 46.136 26.784 46.168 26.72 46.232C26.72 46.168 26.688 46.136 26.624 46.136C26.624 46.072 26.624 46.04 26.624 46.04L25.76 45.848C25.76 45.656 25.696 45.56 25.568 45.56C25.504 45.368 25.088 45.176 24.32 44.984C23.552 44.792 23.104 44.664 22.976 44.6C22.912 44.6 22.784 44.536 22.592 44.408C22.464 44.28 22.4 44.248 22.4 44.312H22.304C22.112 44.312 21.856 44.184 21.536 43.928C21.28 43.608 21.024 43.416 20.768 43.352C20.576 43.16 20.48 42.968 20.48 42.776H20.384L20.288 42.872L20.096 43.448C20.096 43.512 20.128 43.64 20.192 43.832C20.256 44.024 20.256 44.184 20.192 44.312C20.32 44.44 20.384 44.6 20.384 44.792C20.384 44.92 20.448 45.016 20.576 45.08C20.64 45.272 20.704 45.464 20.768 45.656C20.896 45.848 20.992 46.04 21.056 46.232C21.056 46.296 21.216 46.424 21.536 46.616C21.856 46.744 22.016 46.872 22.016 47C22.08 47.064 22.144 47.128 22.208 47.192C22.336 47.256 22.4 47.352 22.4 47.48C22.464 47.544 22.528 47.64 22.592 47.768C22.656 47.896 22.688 48.024 22.688 48.152C22.816 48.152 22.912 48.184 22.976 48.248C23.04 48.376 23.2 48.568 23.456 48.824C23.712 49.144 23.904 49.336 24.032 49.4C24.096 49.4 24.128 49.368 24.128 49.304C24.128 49.304 24.16 49.304 24.224 49.304C24.352 49.368 24.512 49.496 24.704 49.688C24.896 49.944 25.024 50.072 25.088 50.072C25.216 50.072 25.28 50.072 25.28 50.072C25.792 50.136 26.304 50.2 26.816 50.264C27.328 50.392 27.84 50.488 28.352 50.552C28.416 50.552 28.512 50.584 28.64 50.648C28.768 50.776 28.928 50.84 29.12 50.84C29.632 50.904 30.24 50.936 30.944 50.936C31.712 50.936 32.224 50.936 32.48 50.936L32.576 51.032ZM77.4208 47.192C75.8208 47.192 74.4128 46.744 73.1968 45.848C71.9808 44.952 71.3727 43.416 71.3727 41.24C71.3727 40.408 71.4688 39.576 71.6608 38.744C71.8528 37.848 72.0768 36.984 72.3328 36.152C72.4608 35.32 72.6528 34.584 72.9088 33.944C72.9728 33.688 73.0048 33.56 73.0048 33.56C73.0688 33.496 73.2288 33.4 73.4848 33.272L74.2528 32.12V31.736C74.1888 31.736 74.1568 31.736 74.1568 31.736C74.1568 31.672 74.1568 31.64 74.1568 31.64C74.1568 31.448 74.3168 31.224 74.6367 30.968C74.9568 30.712 75.1168 30.584 75.1168 30.584C75.1808 30.264 75.2768 30.104 75.4048 30.104C75.5328 30.104 75.6928 30.008 75.8848 29.816H76.9408V29.624C76.9408 29.304 76.7808 29.176 76.4608 29.24C76.2048 29.24 76.0768 29.208 76.0768 29.144C76.0768 29.08 76.1728 28.952 76.3648 28.76C76.6208 28.504 76.7808 28.344 76.8448 28.28C77.0368 28.024 77.1968 27.8 77.3248 27.608C77.4528 27.352 77.6448 27.16 77.9008 27.032C79.0528 25.624 79.7568 24.728 80.0128 24.344C80.3328 23.96 80.6528 23.672 80.9728 23.48C81.1008 23.48 81.1968 23.544 81.2608 23.672C81.3888 23.736 81.3888 23.832 81.2608 23.96C81.3888 24.152 81.4848 24.184 81.5488 24.056C81.6768 23.928 81.7408 23.864 81.7408 23.864L82.1248 23.672C81.9968 23.544 81.9328 23.384 81.9328 23.192C81.9328 22.872 81.9968 22.616 82.1248 22.424C82.2528 22.168 82.4768 21.912 82.7968 21.656C83.1808 21.4 83.3728 21.24 83.3728 21.176C83.7568 21.048 84.0448 20.92 84.2368 20.792C84.4928 20.664 84.7488 20.6 85.0048 20.6C85.4528 20.6 85.9008 20.76 86.3488 21.08C87.5648 21.72 88.5888 22.36 89.4208 23C90.2528 23.64 90.6688 24.536 90.6688 25.688C90.6688 26.904 90.1568 27.96 89.1328 28.856C88.1728 29.688 86.9888 30.392 85.5807 30.968C84.1727 31.544 82.7648 32.024 81.3568 32.408C80.0128 32.728 78.9568 32.984 78.1888 33.176C77.7408 33.24 77.5168 33.432 77.5168 33.752C77.5808 34.008 77.5488 34.296 77.4208 34.616L76.7488 35.672L76.1728 37.016L75.6928 37.88C75.2448 38.264 75.0848 38.552 75.2128 38.744C75.3408 38.936 75.5648 38.904 75.8848 38.648C75.9488 38.712 75.9808 38.808 75.9808 38.936C75.9808 39.192 75.9168 39.512 75.7888 39.896C75.6608 40.216 75.5648 40.472 75.5008 40.664C75.4368 40.92 75.4368 41.048 75.5008 41.048C75.6288 40.984 75.6928 41.112 75.6928 41.432L75.7888 42.776C76.1728 43.992 77.0368 44.696 78.3808 44.888C78.5088 44.888 78.6368 44.92 78.7648 44.984C78.9568 44.984 79.1168 44.984 79.2448 44.984C80.3968 44.984 81.0048 44.888 81.0688 44.696C81.1968 44.504 81.3568 44.376 81.5488 44.312C82.1248 44.184 82.6048 44.056 82.9888 43.928C83.4368 43.8 83.8848 43.608 84.3328 43.352C85.1008 43.032 85.8368 42.616 86.5408 42.104C87.2448 41.592 87.9808 41.08 88.7488 40.568L89.7088 39.896C89.7728 39.768 89.7728 39.672 89.7088 39.608C89.6448 39.544 89.6448 39.48 89.7088 39.416C89.8368 39.352 89.9328 39.352 89.9968 39.416C90.1248 39.416 90.2208 39.384 90.2848 39.32C90.4128 39.256 90.5408 39.16 90.6688 39.032C90.7968 38.84 90.9248 38.68 91.0528 38.552C91.1808 38.424 91.2448 38.296 91.2448 38.168C91.3088 38.04 91.4048 37.912 91.5328 37.784C92.0448 37.272 92.5568 36.728 93.0688 36.152C93.6448 35.576 94.1248 35.064 94.5088 34.616C94.9568 33.976 95.3088 33.656 95.5648 33.656C95.6928 33.656 95.7568 33.72 95.7568 33.848C95.7568 34.168 95.5328 34.648 95.0848 35.288C93.9968 36.888 92.7488 38.456 91.3408 39.992C89.9328 41.464 88.3968 42.808 86.7328 44.024C85.5168 44.856 84.0768 45.592 82.4128 46.232C80.7488 46.872 79.0848 47.192 77.4208 47.192ZM78.8608 31.736C79.8208 31.672 81.0688 31.416 82.6048 30.968C84.1408 30.456 85.4208 29.784 86.4448 28.952C87.5328 28.056 88.0768 27.064 88.0768 25.976C88.0768 24.952 87.5328 23.96 86.4448 23C85.5488 23.64 84.5568 24.568 83.4688 25.784C82.4448 26.936 81.5168 28.088 80.6848 29.24C79.8528 30.328 79.2448 31.16 78.8608 31.736ZM101.678 47.384C101.614 47.384 101.518 47.32 101.39 47.192C101.262 47.128 101.166 47.096 101.102 47.096C100.846 47.16 100.622 47.192 100.43 47.192C100.238 47.192 100.046 47.192 99.854 47.192C99.79 47.192 99.726 47.16 99.662 47.096C99.662 47.032 99.63 47 99.566 47C99.502 47 99.47 47 99.47 47C99.534 47.064 99.534 47.096 99.47 47.096C99.47 47.096 99.406 47.064 99.278 47C99.15 46.936 99.054 46.904 98.99 46.904L98.894 46.808C98.766 46.808 98.67 46.776 98.606 46.712C98.606 46.648 98.574 46.616 98.51 46.616L98.414 46.712L98.318 46.616C98.19 46.552 97.998 46.488 97.742 46.424C97.55 46.296 97.39 46.2 97.262 46.136C97.134 46.136 96.974 46.04 96.782 45.848H96.59C96.462 45.656 96.238 45.528 95.918 45.464C95.918 45.4 95.886 45.336 95.822 45.272H95.726C95.598 45.08 95.502 45.016 95.438 45.08C95.374 44.952 95.278 44.856 95.15 44.792C95.086 44.664 94.99 44.568 94.862 44.504C94.862 44.248 94.798 44.12 94.67 44.12C94.67 43.992 94.542 43.8 94.286 43.544C94.094 43.288 93.966 43.064 93.902 42.872L93.806 42.776C93.55 42.52 93.358 42.104 93.23 41.528C93.166 41.272 93.102 41.176 93.038 41.24C93.038 41.304 93.006 41.144 92.942 40.76C92.942 40.696 92.942 40.6 92.942 40.472C93.006 40.28 93.006 40.152 92.942 40.088C92.942 40.024 92.91 39.992 92.846 39.992C92.846 39.928 92.846 39.864 92.846 39.8C92.782 39.736 92.75 39.704 92.75 39.704C92.814 39.64 92.846 39.608 92.846 39.608C92.846 39.48 92.814 39.416 92.75 39.416C92.75 39.352 92.75 39.288 92.75 39.224V39.032C92.75 38.712 92.814 38.488 92.942 38.36C92.942 38.232 92.974 38.136 93.038 38.072C93.102 38.008 93.134 37.944 93.134 37.88C93.134 37.752 93.198 37.688 93.326 37.688C93.454 37.688 93.518 37.656 93.518 37.592C93.518 37.464 93.55 37.4 93.614 37.4C93.742 37.336 93.838 37.272 93.902 37.208C93.902 37.144 93.934 37.08 93.998 37.016C94.126 36.952 94.19 36.888 94.19 36.824C94.51 36.632 94.862 36.536 95.246 36.536C96.014 36.536 96.398 36.728 96.398 37.112C96.398 37.24 96.206 37.464 95.822 37.784C95.758 37.976 95.726 38.104 95.726 38.168C95.79 38.168 95.758 38.232 95.63 38.36C95.694 38.552 95.726 38.808 95.726 39.128C95.662 39.128 95.63 39.224 95.63 39.416C95.694 39.544 95.726 39.608 95.726 39.608C95.726 39.672 95.758 39.864 95.822 40.184C95.95 40.504 96.046 40.696 96.11 40.76C96.11 40.76 96.174 40.92 96.302 41.24C96.43 41.496 96.494 41.656 96.494 41.72V41.912C96.622 42.104 96.686 42.232 96.686 42.296C96.75 42.296 97.006 42.424 97.454 42.68C97.518 42.744 97.646 42.776 97.838 42.776C98.158 42.968 98.382 43.128 98.51 43.256C98.702 43.384 99.15 43.512 99.854 43.64C100.11 43.704 100.206 43.768 100.142 43.832C100.142 43.832 100.27 43.832 100.526 43.832C100.526 43.832 100.526 43.864 100.526 43.928C100.526 43.928 100.558 43.928 100.622 43.928C100.75 43.864 100.878 43.864 101.006 43.928C101.134 43.928 101.262 43.896 101.39 43.832H101.774C102.222 43.832 102.702 43.768 103.214 43.64L104.654 43.256C105.102 43.192 105.518 43.064 105.902 42.872C106.286 42.68 106.638 42.488 106.958 42.296C107.022 42.296 107.214 42.2 107.534 42.008C107.854 41.752 108.238 41.496 108.686 41.24C108.622 41.048 108.59 40.792 108.59 40.472C108.59 40.28 108.686 40.184 108.878 40.184C109.07 40.12 109.198 40.024 109.262 39.896C109.07 39.768 108.814 39.704 108.494 39.704C108.238 39.704 108.142 39.608 108.206 39.416C107.95 38.008 107.566 36.728 107.054 35.576C106.606 34.424 106.062 33.144 105.422 31.736C105.358 31.544 105.23 31.224 105.038 30.776C104.846 30.328 104.718 29.976 104.654 29.72C104.654 29.656 104.718 29.656 104.846 29.72C104.974 29.72 105.006 29.688 104.942 29.624C104.878 29.304 104.814 28.984 104.75 28.664C104.75 28.344 104.718 28.056 104.654 27.8C104.59 27.672 104.654 27.576 104.846 27.512C105.038 27.448 105.102 27.352 105.038 27.224C104.974 27.096 104.846 27.064 104.654 27.128C104.462 27.192 104.334 27.16 104.27 27.032L103.982 25.88C103.982 25.56 103.918 25.368 103.79 25.304C103.726 25.24 103.79 25.112 103.982 24.92C104.11 24.856 104.174 24.76 104.174 24.632C104.174 24.44 104.206 24.312 104.27 24.248C104.59 24.056 104.718 23.832 104.654 23.576C104.59 23.256 104.654 22.968 104.846 22.712C105.038 22.456 105.198 22.232 105.326 22.04C105.454 21.784 105.646 21.624 105.902 21.56C106.094 21.432 106.158 21.464 106.094 21.656C106.03 21.848 106.03 21.944 106.094 21.944C106.414 21.944 106.542 21.784 106.478 21.464C106.414 21.144 106.51 20.856 106.766 20.6C107.214 20.216 107.886 19.896 108.782 19.64C109.678 19.384 110.35 19.224 110.798 19.16C110.926 19.16 111.022 19.16 111.086 19.16C111.214 19.096 111.31 19.064 111.374 19.064C111.694 19.064 112.014 19.096 112.334 19.16C112.718 19.224 113.07 19.288 113.39 19.352C113.646 19.416 114.03 19.672 114.542 20.12C115.054 20.504 115.438 20.6 115.694 20.408C116.27 19.896 116.878 19.448 117.518 19.064C118.222 18.68 118.67 18.52 118.862 18.584C119.374 18.648 119.822 18.808 120.206 19.064C120.59 19.256 120.718 19.896 120.59 20.984C120.526 21.368 120.366 21.688 120.11 21.944C119.918 22.136 119.726 22.392 119.534 22.712L118.862 23.672C118.606 24.12 118.286 24.568 117.902 25.016C117.582 25.464 117.294 25.752 117.038 25.88C116.782 26.008 116.526 26.232 116.27 26.552C116.078 26.808 115.822 27.064 115.502 27.32C115.182 27.576 114.83 27.768 114.446 27.896C114.126 27.96 113.902 28.024 113.774 28.088C113.582 28.152 113.294 28.184 112.91 28.184C112.59 28.12 112.494 27.992 112.622 27.8C112.75 27.736 112.782 27.672 112.718 27.608C112.654 27.48 112.622 27.384 112.622 27.32C112.622 27.192 112.686 27.096 112.814 27.032C113.006 26.968 113.134 26.872 113.198 26.744C113.262 26.68 113.422 26.456 113.678 26.072C113.998 25.688 114.126 25.464 114.062 25.4C114.062 25.208 114.126 25.048 114.254 24.92C114.254 24.792 114.254 24.696 114.254 24.632C114.254 24.504 114.318 24.408 114.446 24.344C114.702 24.28 114.83 24.184 114.83 24.056V22.904C114.83 22.648 114.798 22.392 114.734 22.136C114.734 21.88 114.67 21.656 114.542 21.464C114.03 20.824 113.198 20.504 112.046 20.504C111.214 20.504 110.414 20.696 109.646 21.08C108.814 21.464 108.11 22.104 107.534 23C107.086 23.64 106.862 24.312 106.862 25.016C106.862 25.528 106.958 26.04 107.15 26.552C107.406 27.064 107.63 27.544 107.822 27.992C108.014 28.44 108.27 28.984 108.59 29.624C108.974 30.264 109.262 30.776 109.454 31.16C109.774 31.672 110.126 32.28 110.51 32.984C110.894 33.624 111.182 34.232 111.374 34.808C111.438 34.872 111.374 34.936 111.182 35C111.054 35 111.022 35.064 111.086 35.192C111.15 35.32 111.246 35.384 111.374 35.384C111.502 35.384 111.598 35.448 111.662 35.576C111.79 35.768 111.79 35.928 111.662 36.056C111.598 36.184 111.598 36.376 111.662 36.632C111.662 36.696 111.726 36.76 111.854 36.824C111.982 36.888 112.046 36.952 112.046 37.016C112.366 37.848 112.526 38.52 112.526 39.032C113.102 38.712 113.742 38.328 114.446 37.88C115.15 37.432 115.534 37.016 115.598 36.632C115.662 36.504 115.758 36.472 115.886 36.536C116.078 36.536 116.174 36.6 116.174 36.728C116.11 37.176 115.566 37.784 114.542 38.552C113.582 39.32 112.846 39.864 112.334 40.184C112.398 40.248 112.366 40.408 112.238 40.664C112.11 40.92 112.078 41.112 112.142 41.24C112.142 41.304 112.11 41.4 112.046 41.528C111.982 41.592 111.918 41.688 111.854 41.816C111.854 42.072 111.79 42.264 111.662 42.392V42.584L111.374 42.776C111.31 42.84 111.214 43 111.086 43.256C111.022 43.448 110.926 43.608 110.798 43.736H110.51C110.382 43.864 110.318 44.024 110.318 44.216C110.19 44.408 109.902 44.632 109.454 44.888C109.006 45.08 108.718 45.272 108.59 45.464C108.59 45.464 108.558 45.464 108.494 45.464C108.43 45.464 108.334 45.528 108.206 45.656H107.918C107.854 45.656 107.79 45.72 107.726 45.848C107.662 45.912 107.598 45.976 107.534 46.04C107.342 46.04 107.246 46.104 107.246 46.232C106.99 46.232 106.798 46.264 106.67 46.328L105.71 46.52C105.454 46.776 105.23 46.904 105.038 46.904L104.942 46.808C104.814 46.936 104.718 47 104.654 47H104.27C104.206 47 104.142 47.032 104.078 47.096C104.014 47.16 103.95 47.192 103.886 47.192H103.694C103.63 47.192 103.566 47.192 103.502 47.192C103.502 47.256 103.438 47.288 103.31 47.288C103.118 47.288 102.83 47.288 102.446 47.288C102.126 47.288 101.87 47.32 101.678 47.384ZM100.718 46.52C100.718 46.52 100.782 46.52 100.91 46.52C101.102 46.456 101.23 46.424 101.294 46.424C101.614 46.424 101.902 46.456 102.158 46.52C102.414 46.52 102.67 46.52 102.926 46.52C103.054 46.52 103.118 46.456 103.118 46.328H103.31C103.502 46.136 103.598 46.104 103.598 46.232C103.662 46.36 103.758 46.36 103.886 46.232C104.014 46.232 104.078 46.2 104.078 46.136L104.462 45.944C104.526 45.944 104.558 45.944 104.558 45.944C104.558 45.88 104.59 45.848 104.654 45.848H104.846C104.974 45.848 105.102 45.784 105.23 45.656C105.358 45.528 105.422 45.464 105.422 45.464C105.422 45.464 105.518 45.368 105.71 45.176C105.71 45.176 105.742 45.176 105.806 45.176C105.87 45.112 105.934 45.08 105.998 45.08C106.126 44.952 106.254 44.888 106.382 44.888C106.382 44.824 106.446 44.76 106.574 44.696C106.702 44.568 106.766 44.504 106.766 44.504C106.83 44.44 106.894 44.408 106.958 44.408C107.086 44.344 107.15 44.28 107.15 44.216C107.278 44.216 107.534 43.992 107.918 43.544C108.302 43.096 108.558 42.552 108.686 41.912C108.686 41.784 108.494 41.88 108.11 42.2C107.726 42.456 107.534 42.584 107.534 42.584C107.342 42.648 107.15 42.776 106.958 42.968C106.766 43.096 106.606 43.16 106.478 43.16C106.414 43.16 106.318 43.224 106.19 43.352C106.126 43.416 106.062 43.448 105.998 43.448C105.934 43.448 105.902 43.48 105.902 43.544C105.902 43.544 105.838 43.512 105.71 43.448C105.646 43.576 105.454 43.704 105.134 43.832C104.814 43.96 104.59 44.024 104.462 44.024H104.174L104.078 44.12C104.078 44.12 104.046 44.152 103.982 44.216C103.918 44.216 103.854 44.216 103.79 44.216L103.118 44.312H103.022C102.958 44.312 102.894 44.344 102.83 44.408C102.574 44.408 102.286 44.44 101.966 44.504C101.646 44.568 101.454 44.6 101.39 44.6H101.294C101.294 44.536 101.262 44.504 101.198 44.504V44.6H100.718C100.526 44.6 100.302 44.568 100.046 44.504C99.854 44.376 99.694 44.312 99.566 44.312C99.502 44.312 99.47 44.344 99.47 44.408C99.47 44.408 99.438 44.408 99.374 44.408H99.182C99.118 44.408 99.086 44.376 99.086 44.312H98.606C98.606 44.12 98.542 44.088 98.414 44.216H98.318C98.062 44.216 97.838 44.12 97.646 43.928C97.518 43.736 97.294 43.64 96.974 43.64L96.686 43.352C96.686 43.416 96.654 43.48 96.59 43.544C96.59 43.544 96.59 43.576 96.59 43.64C96.59 43.64 96.622 43.704 96.686 43.832C96.814 43.896 96.878 43.96 96.878 44.024L97.07 44.408L97.454 44.888L97.646 45.08C97.71 45.144 97.742 45.176 97.742 45.176C97.806 45.176 97.87 45.24 97.934 45.368C98.062 45.368 98.126 45.464 98.126 45.656C99.214 46.232 100.078 46.52 100.718 46.52ZM122.938 47.288C122.554 47.288 122.362 47.064 122.362 46.616C122.362 46.296 122.458 45.912 122.65 45.464C123.162 44.376 123.738 42.84 124.378 40.856C125.082 38.872 125.946 37.176 126.97 35.768L131.77 25.88C131.386 25.88 131.002 25.976 130.618 26.168C130.298 26.36 130.138 26.52 130.138 26.648C130.138 26.904 129.786 27.16 129.082 27.416C128.378 27.672 127.994 27.832 127.93 27.896C126.97 28.152 126.074 28.44 125.242 28.76C124.602 29.464 123.962 30.168 123.322 30.872C122.746 31.576 122.202 32.28 121.69 32.984C121.626 33.048 121.562 33.08 121.498 33.08C120.922 33.72 120.442 34.2 120.058 34.52C119.674 34.84 119.258 35.128 118.81 35.384C118.554 35.576 118.298 35.64 118.042 35.576C117.722 35.448 117.69 35.32 117.946 35.192C118.266 35.064 118.778 34.616 119.482 33.848C120.186 33.08 120.73 32.504 121.114 32.12C121.434 31.928 121.53 31.928 121.402 32.12C121.338 32.312 121.434 32.28 121.69 32.024L124.09 28.952L124.186 28.856C123.866 28.664 123.706 28.152 123.706 27.32C123.706 26.68 123.834 26.168 124.09 25.784C124.09 25.72 124.154 25.688 124.282 25.688L126.298 25.112C126.49 25.112 126.618 25.08 126.682 25.016C126.81 24.888 126.938 24.728 127.066 24.536C127.258 24.28 127.482 23.96 127.738 23.576L128.89 22.04L129.658 20.984C129.658 20.792 129.786 20.568 130.042 20.312C130.362 19.992 130.618 19.768 130.81 19.64C131.066 19.256 131.226 18.968 131.29 18.776C131.418 18.52 131.61 18.2 131.866 17.816C131.866 17.752 131.962 17.72 132.154 17.72C132.346 17.656 132.442 17.592 132.442 17.528C132.506 16.888 132.602 16.6 132.73 16.664C132.922 16.664 133.018 16.568 133.018 16.376C133.018 16.184 133.146 16.024 133.402 15.896L133.882 15.32C133.882 15.256 133.978 15.128 134.17 14.936V14.84C134.17 14.712 134.17 14.552 134.17 14.36C134.17 14.168 134.234 13.976 134.362 13.784C134.49 13.656 134.586 13.592 134.65 13.592C134.714 13.592 134.746 13.592 134.746 13.592C134.746 13.528 134.714 13.496 134.65 13.496C134.65 13.432 134.65 13.4 134.65 13.4C134.65 13.144 134.778 12.984 135.034 12.92C135.29 12.856 135.418 12.76 135.418 12.632C135.546 11.736 136.314 11.064 137.722 10.616C139.13 10.168 140.378 9.944 141.466 9.944C142.554 9.944 143.098 10.104 143.098 10.424C143.098 10.552 142.906 10.776 142.522 11.096C142.33 11.16 142.01 11.448 141.562 11.96C141.114 12.408 140.698 12.952 140.314 13.592L139.546 14.744C139.482 14.872 139.386 15.032 139.258 15.224C139.194 15.352 139.098 15.48 138.97 15.608C138.522 16.376 137.914 17.464 137.146 18.872C136.442 20.216 135.674 21.72 134.842 23.384L137.338 23.096C137.53 23.096 137.594 23.128 137.53 23.192C137.53 23.256 137.626 23.256 137.818 23.192C138.138 23.192 138.362 23.16 138.49 23.096C138.618 22.968 138.842 22.872 139.162 22.808C139.674 22.744 140.25 22.712 140.89 22.712C141.594 22.648 142.138 22.616 142.522 22.616C142.778 22.616 143.098 22.616 143.482 22.616C143.866 22.616 144.154 22.648 144.346 22.712C144.474 22.712 144.506 22.776 144.442 22.904C144.442 22.968 144.474 23 144.538 23C144.666 23 144.762 22.968 144.826 22.904C144.954 22.84 145.082 22.808 145.21 22.808C145.274 22.744 145.37 22.744 145.498 22.808C145.69 22.808 145.818 22.808 145.882 22.808L146.842 23.096C147.226 23.16 147.418 23.384 147.418 23.768C147.482 24.152 147.322 24.28 146.938 24.152C146.682 24.024 146.458 23.96 146.266 23.96H143.866C143.418 23.96 143.002 23.96 142.618 23.96C142.234 23.96 141.85 23.992 141.466 24.056C141.338 24.12 141.274 24.056 141.274 23.864C141.338 23.672 141.306 23.576 141.178 23.576C141.114 23.576 141.018 23.672 140.89 23.864C140.762 23.992 140.666 24.056 140.602 24.056L140.122 24.344C139.098 24.6 138.01 24.888 136.858 25.208C135.706 25.464 134.586 25.752 133.498 26.072C132.538 28.056 131.61 29.944 130.714 31.736C129.882 33.464 129.242 34.808 128.794 35.768C128.666 36.152 128.602 36.376 128.602 36.44C128.602 36.952 128.89 37.208 129.466 37.208C129.85 37.208 130.234 37.112 130.618 36.92L131.578 36.536C133.114 35.128 134.714 33.944 136.378 32.984C136.442 32.984 136.474 32.984 136.474 32.984C136.538 32.92 136.602 32.888 136.666 32.888C136.858 32.888 136.986 33.016 137.05 33.272C137.114 33.464 137.05 33.624 136.858 33.752C135.002 34.776 133.274 36.088 131.674 37.688C131.61 37.816 131.546 37.944 131.482 38.072C131.418 38.2 131.322 38.328 131.194 38.456C131.066 38.584 130.874 38.808 130.618 39.128C130.426 39.448 130.33 39.64 130.33 39.704C130.266 39.896 130.17 39.96 130.042 39.896C129.978 39.832 129.786 39.928 129.466 40.184C129.402 40.248 129.338 40.376 129.274 40.568C129.274 40.76 129.242 40.92 129.178 41.048C129.05 41.24 128.922 41.4 128.794 41.528C128.666 41.592 128.602 41.656 128.602 41.72C128.538 41.976 128.41 42.136 128.218 42.2C128.09 42.2 127.962 42.264 127.834 42.392C127.77 42.392 127.738 42.424 127.738 42.488C127.738 43.064 127.674 43.32 127.546 43.256C127.418 43.192 127.322 43.256 127.258 43.448C127.002 43.704 126.81 43.832 126.682 43.832C126.298 43.96 126.138 44.056 126.202 44.12C126.33 44.184 126.426 44.248 126.49 44.312C126.618 44.312 126.522 44.408 126.202 44.6C126.074 44.664 125.946 44.856 125.818 45.176C125.69 45.432 125.562 45.624 125.434 45.752C125.242 45.88 125.05 45.976 124.858 46.04C124.666 46.104 124.506 46.232 124.378 46.424C123.802 47 123.322 47.288 122.938 47.288ZM128.41 24.728C128.666 24.664 128.89 24.6 129.082 24.536C129.338 24.472 129.594 24.376 129.85 24.248L132.73 23.768C133.498 22.232 134.17 20.856 134.746 19.64C135.322 18.36 135.738 17.432 135.994 16.856C135.994 16.856 135.93 16.824 135.802 16.76C135.738 16.632 135.706 16.504 135.706 16.376C135.578 16.312 135.418 16.216 135.226 16.088C135.098 15.96 134.97 15.864 134.842 15.8L133.978 16.664L132.922 18.104C132.922 18.168 132.826 18.232 132.634 18.296C132.506 18.296 132.442 18.328 132.442 18.392C132.442 18.584 132.346 18.776 132.154 18.968C132.026 19.16 131.898 19.224 131.77 19.16L131.386 20.12C131.386 20.312 131.29 20.472 131.098 20.6L130.426 21.464C130.426 21.528 130.394 21.592 130.33 21.656C130.33 21.656 130.33 21.72 130.33 21.848C130.266 21.976 130.17 22.136 130.042 22.328C129.914 22.52 129.754 22.712 129.562 22.904C129.498 22.904 129.466 22.936 129.466 23C129.466 23 129.434 23 129.37 23L129.082 23.576C128.826 23.704 128.666 23.768 128.602 23.768L128.506 23.96C128.506 24.344 128.474 24.6 128.41 24.728ZM156.016 17.048C155.824 17.048 155.632 16.984 155.44 16.856C155.312 16.728 155.12 16.568 154.864 16.376C154.736 16.312 154.576 16.248 154.384 16.184C154.256 16.056 154.192 15.864 154.192 15.608C154.128 15.544 154 15.512 153.808 15.512C153.488 15.512 153.328 15.288 153.328 14.84C153.328 14.328 153.584 13.976 154.096 13.784L154.576 13.4V13.496L154.96 13.016H155.152C155.536 13.016 155.792 12.824 155.92 12.44C156.112 12.056 156.496 11.8 157.072 11.672C157.456 11.544 157.776 11.576 158.032 11.768C158.288 11.96 158.608 12.056 158.992 12.056C159.376 12.056 159.792 11.928 160.24 11.672L161.68 11.384C161.872 11.384 161.968 11.448 161.968 11.576C161.968 11.704 161.776 11.864 161.392 12.056C161.072 12.248 160.848 12.408 160.72 12.536L160.624 12.632L160.528 12.824L160.144 13.304C159.76 13.752 159.312 14.296 158.8 14.936C158.352 15.512 157.872 15.992 157.36 16.376C156.784 16.824 156.336 17.048 156.016 17.048ZM141.424 47.288C141.04 47.288 140.848 47.064 140.848 46.616C140.848 46.296 140.944 45.912 141.136 45.464C141.648 44.376 142.224 42.84 142.864 40.856C143.568 38.872 144.432 37.176 145.456 35.768C146.16 34.36 146.8 32.984 147.376 31.64C148.016 30.232 148.624 28.824 149.2 27.416C149.2 27.416 149.136 27.384 149.008 27.32C148.944 27.192 148.912 27.064 148.912 26.936C148.528 26.68 148.112 26.328 147.664 25.88C147.28 25.368 147.248 24.856 147.568 24.344C147.696 24.216 147.792 24.152 147.856 24.152C147.92 24.152 147.952 24.152 147.952 24.152C147.952 24.088 147.92 24.056 147.856 24.056C147.856 23.992 147.856 23.96 147.856 23.96C147.856 23.704 147.984 23.544 148.24 23.48C148.496 23.416 148.624 23.32 148.624 23.192C148.752 22.296 149.52 21.624 150.928 21.176C152.336 20.728 153.584 20.504 154.672 20.504C155.76 20.504 156.304 20.664 156.304 20.984C156.304 21.112 156.112 21.336 155.728 21.656C155.536 21.784 155.216 22.072 154.768 22.52C154.32 22.968 153.904 23.512 153.52 24.152L152.752 25.304C152.688 25.432 152.592 25.592 152.464 25.784C152.4 25.912 152.304 26.04 152.176 26.168C151.152 28.024 150.32 29.592 149.68 30.872C149.04 32.152 148.272 33.784 147.376 35.768C147.248 36.152 147.184 36.408 147.184 36.536C147.184 36.984 147.44 37.208 147.952 37.208C148.336 37.208 148.72 37.112 149.104 36.92L150.064 36.536C151.6 35.128 153.2 33.944 154.864 32.984C154.928 32.984 154.96 32.984 154.96 32.984C155.024 32.92 155.088 32.888 155.152 32.888C155.344 32.888 155.472 33.016 155.536 33.272C155.6 33.464 155.536 33.624 155.344 33.752C153.488 34.776 151.76 36.088 150.16 37.688C150.096 37.816 150.032 37.944 149.968 38.072C149.904 38.2 149.808 38.328 149.68 38.456C149.552 38.584 149.36 38.808 149.104 39.128C148.912 39.448 148.816 39.64 148.816 39.704C148.752 39.896 148.656 39.96 148.528 39.896C148.464 39.832 148.272 39.928 147.952 40.184C147.888 40.248 147.824 40.376 147.76 40.568C147.76 40.76 147.728 40.92 147.664 41.048C147.6 41.24 147.472 41.4 147.28 41.528C147.152 41.592 147.088 41.656 147.088 41.72C147.024 41.976 146.896 42.136 146.704 42.2C146.576 42.2 146.448 42.264 146.32 42.392C146.256 42.456 146.256 42.552 146.32 42.68C146.384 42.808 146.352 42.936 146.224 43.064C146.16 43.256 146.096 43.352 146.032 43.352C145.968 43.288 145.872 43.32 145.744 43.448C145.488 43.704 145.296 43.832 145.168 43.832C144.784 43.96 144.624 44.056 144.688 44.12C144.816 44.184 144.912 44.248 144.976 44.312C145.104 44.312 145.008 44.408 144.688 44.6C144.56 44.664 144.432 44.856 144.304 45.176C144.176 45.432 144.048 45.624 143.92 45.752C143.728 45.88 143.536 45.976 143.344 46.04C143.216 46.104 143.056 46.232 142.864 46.424C142.288 47 141.808 47.288 141.424 47.288ZM157.264 47.288C156.88 47.288 156.688 47.064 156.688 46.616C156.688 46.296 156.784 45.912 156.976 45.464C157.488 44.376 158.096 42.84 158.8 40.856C159.504 38.872 160.368 37.176 161.392 35.768L165.136 27.416C165.136 27.416 165.072 27.384 164.944 27.32C164.816 27.192 164.752 27.064 164.752 26.936C164.368 26.68 163.952 26.328 163.504 25.88C163.12 25.368 163.088 24.856 163.408 24.344C163.536 24.216 163.632 24.152 163.696 24.152C163.76 24.152 163.792 24.152 163.792 24.152V23.96C163.792 23.704 163.888 23.544 164.08 23.48C164.336 23.416 164.496 23.32 164.56 23.192C164.688 22.296 165.424 21.624 166.768 21.176C168.176 20.728 169.424 20.504 170.512 20.504C171.6 20.504 172.144 20.664 172.144 20.984C172.144 21.176 171.952 21.4 171.568 21.656C171.44 21.784 171.12 22.072 170.608 22.52C170.16 22.968 169.744 23.512 169.359 24.152L168.688 25.304L168.016 26.168C166.992 28.024 166.16 29.592 165.52 30.872C164.88 32.152 164.112 33.784 163.216 35.768C163.024 36.152 162.928 36.472 162.928 36.728C162.928 37.048 163.056 37.208 163.312 37.208C163.44 37.208 163.568 37.176 163.696 37.112C163.888 36.984 164.08 36.888 164.272 36.824C164.784 36.504 165.2 36.216 165.52 35.96C165.904 35.64 166.32 35.32 166.768 35C166.96 34.808 167.12 34.808 167.248 35C167.376 35.128 167.376 35.32 167.248 35.576C166.992 36.088 166.8 36.408 166.672 36.536C166.608 36.6 166.512 36.664 166.384 36.728C166.256 36.792 165.968 37.08 165.52 37.592L165.136 38.36C165.008 38.488 164.848 38.744 164.656 39.128C164.528 39.448 164.464 39.64 164.464 39.704C164.464 39.832 164.4 39.896 164.272 39.896C164.144 39.832 163.952 39.928 163.696 40.184C163.632 40.248 163.6 40.376 163.6 40.568C163.664 40.76 163.632 40.92 163.504 41.048C163.44 41.24 163.344 41.4 163.216 41.528C163.088 41.592 163.023 41.656 163.023 41.72C162.96 41.976 162.832 42.136 162.64 42.2C162.512 42.2 162.384 42.264 162.256 42.392C162.192 42.392 162.16 42.456 162.16 42.584C162.16 43.096 162.096 43.32 161.968 43.256C161.84 43.192 161.712 43.256 161.584 43.448C161.456 43.704 161.296 43.832 161.104 43.832C160.72 43.96 160.56 44.056 160.624 44.12C160.688 44.184 160.784 44.248 160.912 44.312C161.04 44.312 160.944 44.408 160.624 44.6C160.432 44.664 160.272 44.856 160.144 45.176C160.016 45.432 159.888 45.624 159.76 45.752C159.632 45.88 159.472 45.976 159.28 46.04C159.088 46.104 158.928 46.232 158.8 46.424C158.224 47 157.712 47.288 157.264 47.288ZM185.872 46.52C185.616 46.52 185.392 46.52 185.2 46.52C185.008 46.456 184.816 46.392 184.624 46.328C183.984 46.2 183.408 46.008 182.896 45.752C182.448 45.496 182.064 45.016 181.744 44.312C181.68 43.992 181.52 43.576 181.264 43.064C181.072 42.552 180.944 42.072 180.88 41.624C180.816 41.304 180.784 40.92 180.784 40.472C180.72 40.152 180.688 39.736 180.688 39.224C180.56 38.584 180.496 38.008 180.496 37.496C180.56 36.984 180.592 36.376 180.592 35.672C180.592 34.968 180.624 34.456 180.688 34.136C180.816 33.56 180.88 33.272 180.88 33.272C180.88 33.208 180.88 32.888 180.88 32.312C180.944 31.544 180.976 30.744 180.976 29.912C180.976 29.08 181.008 28.408 181.072 27.896C181.264 25.976 180.88 25.016 179.92 25.016C179.536 25.016 179.024 25.176 178.384 25.496C178.32 25.688 178.192 25.816 178 25.88C177.872 25.88 177.68 25.944 177.424 26.072L176.944 26.36C176.944 26.424 176.88 26.456 176.752 26.456C176.624 26.392 176.56 26.424 176.56 26.552C176.624 26.808 176.592 26.968 176.464 27.032C176.4 27.096 176.304 27.064 176.176 26.936L175.12 27.704C175.12 27.768 175.024 27.896 174.832 28.088L174.736 28.184C174.48 28.44 174.256 28.568 174.064 28.568L173.776 28.856C173.776 28.92 173.712 29.048 173.584 29.24C173.52 29.368 173.36 29.4 173.104 29.336L172.624 29.816C172.368 30.2 172.144 30.424 171.952 30.488C171.824 30.552 171.664 30.616 171.472 30.68L170.704 31.64L170.32 31.736C170.32 31.992 170.032 32.376 169.456 32.888C168.944 33.4 168.592 33.752 168.4 33.944C168.208 34.136 168.016 34.232 167.824 34.232C167.696 34.232 167.632 34.168 167.632 34.04C167.632 33.976 167.792 33.72 168.112 33.272C168.368 33.016 168.752 32.536 169.264 31.832C169.84 31.128 170.16 30.808 170.224 30.872C170.544 30.552 170.768 30.232 170.896 29.912C171.024 29.528 171.248 29.208 171.568 28.952C171.568 29.016 171.568 29.08 171.568 29.144C171.632 29.144 171.664 29.144 171.664 29.144C171.792 29.144 171.952 28.984 172.144 28.664C172.336 28.28 172.464 28.12 172.528 28.184L174.16 26.744C174.16 26.68 174.32 26.552 174.64 26.36C174.896 26.232 175.056 26.168 175.12 26.168C175.184 26.168 175.344 25.976 175.6 25.592L176.272 25.112C176.336 24.984 176.4 25.016 176.464 25.208C176.592 25.336 176.688 25.368 176.752 25.304L177.04 24.632C177.168 24.44 177.36 24.28 177.616 24.152C177.936 23.96 178.256 23.768 178.576 23.576C179.344 22.808 179.92 22.424 180.304 22.424H180.688C181.52 22.104 182.288 21.944 182.992 21.944C184.016 21.944 184.816 22.328 185.392 23.096C185.52 23.288 185.648 23.64 185.776 24.152C185.904 24.216 185.936 24.312 185.872 24.44C185.872 24.504 185.904 24.6 185.968 24.728C186.032 24.856 186.16 25.016 186.352 25.208C186.544 25.336 186.64 25.496 186.64 25.688V25.88C186.64 26.136 186.48 26.36 186.16 26.552C186.48 26.808 186.608 26.968 186.544 27.032C186.544 27.032 186.512 27.128 186.448 27.32L186.256 28.664C186.192 29.112 186.096 29.464 185.968 29.72C185.84 29.912 185.712 30.264 185.584 30.776C185.84 31.16 185.84 31.416 185.584 31.544H185.392L185.296 31.928C185.296 32.056 185.36 32.184 185.488 32.312L185.2 32.888C185.264 32.824 185.296 32.824 185.296 32.888C185.36 32.888 185.392 32.888 185.392 32.888C185.328 33.016 185.232 33.272 185.104 33.656C184.976 33.976 184.88 34.232 184.816 34.424C184.752 34.744 184.624 34.904 184.432 34.904C184.24 34.904 184.176 35.064 184.24 35.384C184.304 35.448 184.336 35.672 184.336 36.056C184.4 36.376 184.368 36.536 184.24 36.536L184.048 37.688V37.976C184.048 38.296 183.984 38.616 183.856 38.936C183.792 39.256 183.728 39.576 183.664 39.896C183.6 40.216 183.536 40.568 183.472 40.952C183.472 41.272 183.472 41.592 183.472 41.912C183.472 42.168 183.472 42.456 183.472 42.776C183.536 43.032 183.6 43.288 183.664 43.544C183.664 43.608 183.76 43.8 183.952 44.12C184.144 44.44 184.24 44.632 184.24 44.696L184.528 44.984C184.656 45.048 184.848 45.048 185.104 44.984C185.424 44.92 185.648 44.952 185.776 45.08C186.352 45.144 187.088 44.856 187.984 44.216C188.944 43.512 189.808 42.744 190.576 41.912C190.768 41.72 190.96 41.624 191.152 41.624C191.28 41.624 191.376 41.72 191.44 41.912C191.504 42.104 191.44 42.36 191.248 42.68C190.224 44.152 189.264 45.176 188.368 45.752C187.472 46.264 186.64 46.52 185.872 46.52ZM183.284 74.264C182.324 74.264 181.492 74.168 180.788 73.976C180.34 73.848 179.892 73.688 179.444 73.496C178.996 73.304 178.516 73.08 178.004 72.824L177.812 72.728C177.556 72.6 177.268 72.408 176.948 72.152C176.628 71.96 176.308 71.8 175.988 71.672C175.732 71.608 175.38 71.416 174.932 71.096C174.612 70.84 174.42 70.584 174.356 70.328C174.228 70.072 174.26 69.912 174.452 69.848C174.516 69.848 174.612 69.88 174.74 69.944C174.868 70.072 174.996 70.168 175.124 70.232C175.252 70.296 175.412 70.392 175.604 70.52C175.732 70.648 175.86 70.744 175.988 70.808C176.308 70.936 176.596 71.032 176.852 71.096C177.044 71.224 177.268 71.352 177.524 71.48C178.1 71.736 178.516 71.896 178.772 71.96C179.028 72.024 179.412 72.088 179.924 72.152L181.172 72.248C184.564 72.504 187.412 71.864 189.716 70.328C191.956 68.792 193.844 67.16 195.38 65.432C195.572 64.92 195.764 64.44 195.956 63.992C196.212 63.608 196.468 63.288 196.724 63.032C196.788 62.968 196.852 63 196.916 63.128C197.044 63.32 197.14 63.384 197.204 63.32C197.332 63.128 197.396 62.808 197.396 62.36C197.46 61.976 197.588 61.688 197.78 61.496C197.844 61.432 197.908 61.496 197.972 61.688C198.1 61.88 198.196 61.944 198.26 61.88C198.388 61.752 198.452 61.496 198.452 61.112C198.516 60.728 198.58 60.504 198.644 60.44C199.284 59.544 199.86 58.712 200.372 57.944C200.884 57.176 201.46 56.248 202.1 55.16C202.676 54.264 203.348 53.112 204.116 51.704C204.948 50.36 205.684 49.112 206.324 47.96C206.964 46.936 207.444 45.848 207.764 44.696L208.052 43.64C208.372 42.424 209.012 40.76 209.972 38.648C210.996 36.472 212.18 34.136 213.524 31.64C214.932 29.08 216.34 26.648 217.748 24.344C218.068 23.96 218.324 23.64 218.516 23.384C218.708 23.128 218.996 22.808 219.38 22.424C219.508 22.36 219.764 22.072 220.148 21.56C220.532 21.048 220.916 20.536 221.3 20.024C221.748 19.448 222.004 19.128 222.068 19.064C223.924 17.528 225.972 16.312 228.212 15.416C230.516 14.456 232.308 13.976 233.588 13.976C234.1 13.976 234.452 13.976 234.644 13.976C234.9 13.912 235.22 13.912 235.604 13.976L236.276 14.072C236.532 14.136 236.756 14.232 236.948 14.36C237.204 14.424 237.46 14.488 237.716 14.552C237.844 14.616 238.004 14.712 238.196 14.84C238.388 14.968 238.548 15.064 238.676 15.128C238.932 15.32 239.06 15.544 239.06 15.8C239.06 15.992 238.996 16.12 238.868 16.184C238.804 16.248 238.708 16.248 238.58 16.184C238.516 16.056 238.42 15.992 238.292 15.992C238.164 15.992 238.036 15.96 237.908 15.896C237.78 15.832 237.652 15.768 237.524 15.704C237.268 15.704 237.044 15.672 236.852 15.608C236.66 15.544 236.468 15.48 236.276 15.416C236.02 15.352 235.796 15.32 235.604 15.32C235.412 15.32 235.252 15.32 235.124 15.32C234.868 15.32 234.612 15.352 234.356 15.416C234.292 15.416 234.1 15.448 233.78 15.512C233.524 15.512 233.332 15.544 233.204 15.608C230.26 16.312 227.86 17.656 226.004 19.64C224.148 21.624 222.484 23.64 221.012 25.688C220.756 26.008 220.404 26.424 219.956 26.936C219.572 27.384 219.316 27.672 219.188 27.8C219.124 27.928 218.836 28.376 218.324 29.144C217.812 29.848 217.3 30.584 216.788 31.352C216.34 32.056 216.084 32.44 216.02 32.504C215.956 32.568 215.828 32.6 215.636 32.6C215.508 32.6 215.412 32.632 215.348 32.696L213.044 37.304L212.084 39.128L210.836 41.624C210.196 42.84 209.62 44.088 209.108 45.368C208.596 46.584 208.18 47.768 207.86 48.92C207.668 49.368 207.572 49.88 207.572 50.456C207.572 51.032 207.412 51.384 207.092 51.512C206.9 51.576 206.74 51.48 206.612 51.224C206.484 50.968 206.42 51.192 206.42 51.896C206.548 51.96 206.548 52.088 206.42 52.28C206.356 52.472 206.324 52.632 206.324 52.76C206.388 52.888 206.42 53.08 206.42 53.336C206.42 53.656 206.292 53.944 206.036 54.2C205.844 54.456 205.684 54.744 205.556 55.064C205.428 55.32 205.268 55.384 205.076 55.256C204.884 55.192 204.724 55.16 204.596 55.16L204.5 55.352C204.5 55.544 204.596 55.992 204.788 56.696C204.788 57.08 204.596 57.272 204.212 57.272H203.924C203.86 58.616 203.604 59.416 203.156 59.672L202.484 60.152L202.292 60.536C201.908 61.304 201.62 61.656 201.428 61.592L201.14 62.36C201.076 62.552 200.916 62.712 200.66 62.84C200.468 62.968 200.308 63.128 200.18 63.32C200.18 63.384 200.148 63.416 200.084 63.416C200.084 63.416 200.084 63.448 200.084 63.512C200.084 64.28 199.732 65.048 199.028 65.816C198.388 66.584 197.716 67.256 197.012 67.832C196.884 68.088 196.724 68.344 196.532 68.6C196.34 68.856 196.116 69.08 195.86 69.272C195.54 69.592 195.156 69.784 194.708 69.848C194.324 69.912 193.94 70.104 193.556 70.424C193.428 70.488 193.364 70.648 193.364 70.904C193.428 71.224 193.396 71.416 193.268 71.48C191.86 72.376 190.228 73.048 188.372 73.496C186.516 74.008 184.82 74.264 183.284 74.264ZM199.316 46.904C198.484 46.904 197.78 46.424 197.204 45.464C196.628 44.44 196.468 43.672 196.724 43.16C196.788 43.032 196.852 42.872 196.916 42.68C197.044 42.424 197.14 42.264 197.204 42.2C197.332 42.072 197.396 42.04 197.396 42.104C197.46 42.104 197.524 42.072 197.588 42.008C197.652 41.88 197.62 41.784 197.492 41.72C197.428 41.592 197.428 41.496 197.492 41.432L198.644 37.112C198.644 37.048 198.676 36.984 198.74 36.92C198.804 36.856 198.836 36.792 198.836 36.728L199.028 35C199.028 34.936 199.092 34.936 199.22 35C199.348 35 199.444 34.968 199.508 34.904C199.636 34.584 199.604 34.424 199.412 34.424C199.22 34.424 199.124 34.392 199.124 34.328C199.188 33.816 199.284 33.464 199.412 33.272C199.54 33.08 199.636 32.76 199.7 32.312L199.988 30.68C199.988 30.744 200.02 31 200.084 31.448C200.148 31.832 200.308 32.024 200.564 32.024C200.884 32.024 200.98 31.96 200.852 31.832C200.724 31.704 200.628 31.544 200.564 31.352C200.5 31.032 200.564 30.776 200.756 30.584C200.82 30.52 200.948 30.648 201.14 30.968C201.332 31.224 201.428 31.352 201.428 31.352C201.492 31.224 201.524 31.064 201.524 30.872C201.524 30.68 201.46 30.552 201.332 30.488C201.076 30.296 200.788 30.168 200.468 30.104C200.212 29.976 200.084 29.848 200.084 29.72C200.084 29.528 200.116 29.336 200.18 29.144C200.18 29.08 200.212 29.016 200.276 28.952C200.34 28.888 200.372 28.824 200.372 28.76C200.372 28.632 200.308 28.568 200.18 28.568C200.116 28.568 200.084 28.536 200.084 28.472V27.512C200.084 27.32 200.084 27.128 200.084 26.936C200.084 26.68 200.02 26.424 199.892 26.168C199.7 25.72 199.412 25.336 199.028 25.016C198.644 24.696 198.164 24.536 197.588 24.536H197.492L197.3 24.728H197.108C196.66 25.048 196.148 25.368 195.572 25.688C195.06 25.944 194.612 26.136 194.228 26.264L194.036 26.36C193.972 26.424 193.876 26.456 193.748 26.456C193.492 26.456 193.3 26.328 193.172 26.072C193.108 25.816 193.204 25.656 193.46 25.592C193.972 25.272 194.516 25.016 195.092 24.824C195.668 24.632 196.18 24.344 196.628 23.96C196.756 23.64 197.076 23.384 197.588 23.192C197.716 23.064 197.812 23.032 197.876 23.096C197.94 23.16 198.004 23.192 198.068 23.192C198.388 23.192 198.58 23.096 198.644 22.904C198.772 22.648 198.868 22.584 198.932 22.712H199.892C201.3 22.712 202.388 23.288 203.156 24.44C203.924 25.528 204.276 27 204.212 28.856C204.212 28.92 204.116 29.016 203.924 29.144C203.796 29.208 203.732 29.304 203.732 29.432C203.732 29.496 203.796 29.528 203.924 29.528C204.116 29.464 204.212 29.496 204.212 29.624V30.008C204.212 30.584 204.18 30.904 204.116 30.968C203.988 32.376 203.668 33.848 203.156 35.384C202.708 36.856 202.228 38.296 201.716 39.704C201.524 39.704 201.396 39.8 201.332 39.992C201.268 40.184 201.172 40.28 201.044 40.28C200.852 40.28 200.66 40.216 200.468 40.088C200.34 39.896 200.276 39.896 200.276 40.088C200.276 40.344 200.404 40.536 200.66 40.664C200.916 40.728 201.076 40.792 201.14 40.856C201.204 40.92 201.332 40.952 201.524 40.952C201.716 40.952 201.908 40.888 202.1 40.76C202.292 40.632 202.484 40.504 202.676 40.376C202.996 40.12 203.412 39.768 203.924 39.32C204.5 38.808 205.012 38.36 205.46 37.976C205.908 37.528 206.132 37.304 206.132 37.304C206.004 37.176 206.1 37.048 206.42 36.92L206.9 36.344C206.964 36.024 207.156 35.672 207.476 35.288C207.796 34.904 208.084 34.68 208.34 34.616L208.532 34.232C208.596 34.232 208.66 34.264 208.724 34.328C208.788 34.328 208.852 34.296 208.916 34.232C208.98 34.232 208.98 34.168 208.916 34.04C208.916 33.912 208.948 33.848 209.012 33.848L209.492 33.176C209.62 32.792 209.748 32.568 209.876 32.504C209.812 32.312 209.876 32.184 210.068 32.12C210.196 32.12 210.324 32.152 210.452 32.216C210.644 32.216 210.74 32.088 210.74 31.832C210.74 31.704 210.772 31.544 210.836 31.352C210.9 31.096 211.06 31 211.316 31.064L211.412 30.872C211.412 30.808 211.54 30.712 211.796 30.584C212.052 30.392 212.212 30.264 212.276 30.2L212.756 29.528C212.948 29.208 213.14 29.048 213.332 29.048C213.524 28.984 213.652 28.952 213.716 28.952C213.78 28.952 213.812 29.016 213.812 29.144C213.812 29.592 213.588 30.04 213.14 30.488L212.372 31.352C212.308 31.416 212.244 31.448 212.18 31.448C212.116 31.448 212.052 31.512 211.988 31.64C211.924 31.704 211.86 31.8 211.796 31.928C211.732 32.056 211.668 32.184 211.604 32.312L210.836 33.176L205.652 39.32C205.076 39.96 204.692 40.376 204.5 40.568C204.372 40.76 204.18 41.048 203.924 41.432C203.86 41.496 203.764 41.496 203.636 41.432C203.508 41.368 203.38 41.4 203.252 41.528L203.156 42.104L202.676 42.584C202.612 42.648 202.644 42.68 202.772 42.68C202.964 42.68 203.028 42.712 202.964 42.776L201.62 45.08C200.916 46.296 200.148 46.904 199.316 46.904Z" fill="#00A8BD"/>
</svg>
