<svg width="134" height="138" viewBox="0 0 134 138" fill="none" xmlns="http://www.w3.org/2000/svg">
<path d="M63.8958 125.449C59.1084 121.607 14.6521 78.3747 14.1551 77.9021C12.1917 75.9386 10.9554 73.9024 10.6161 72.0359C10.2646 70.0967 10.8585 68.3999 12.4341 66.8243C13.9006 65.3578 15.6944 64.5821 17.6215 64.5821C19.9728 64.5821 22.3847 65.6972 24.3966 67.7212L44.5522 87.0891C44.9037 87.4284 45.3643 87.5981 45.8127 87.5981C46.2854 87.5981 46.7459 87.4163 47.0974 87.0648C47.8004 86.3618 47.8004 85.2226 47.1096 84.5196L14.9308 51.2864C11.7069 48.0625 10.1919 43.1296 14.0218 39.2997C15.4883 37.8332 17.2821 37.0575 19.2092 37.0575C21.5605 37.0575 23.9724 38.1725 25.9843 40.1966L58.9024 72.2905C59.2538 72.6298 59.7144 72.8116 60.175 72.8116C60.6355 72.8116 61.1082 72.6298 61.4597 72.2784C62.1627 71.5754 62.1748 70.4361 61.4718 69.721L21.9362 29.1916C20.1061 27.3614 19.0032 25.1677 18.8092 23.0346C18.6274 20.8651 19.391 18.8532 21.0272 17.217C22.4937 15.7504 24.2875 14.9748 26.2146 14.9748C28.5659 14.9748 30.9778 16.0898 32.9897 18.1017L73.3131 57.4192C73.6646 57.7585 74.1251 57.9403 74.5857 57.9403C75.0463 57.9403 75.519 57.7585 75.8704 57.4071C76.5734 56.7041 76.5855 55.5648 75.8825 54.8497L46.6005 24.7556C44.7583 22.9134 43.6553 20.7318 43.4735 18.5987C43.2917 16.4292 44.0553 14.4172 45.6915 12.781C47.158 11.3145 48.9518 10.5388 50.8789 10.5388C53.2302 10.5388 55.6421 11.6539 57.654 13.6779C68.3924 24.2224 96.426 51.7955 97.3714 52.8135C100.971 55.2982 101.698 51.5409 101.88 49.1048C102.086 46.2687 98.8379 36.3666 100.729 27.4584C103.904 15.6171 113.055 17.5563 113.261 17.6533C118.278 20.0046 117.321 23.5194 115.539 30.5854L115.358 31.9792C113.491 41.2147 126.314 68.5817 127.259 70.63C132.289 81.635 138.083 103.948 118.897 123.134C97.8683 144.162 71.8344 133.388 63.8958 125.449Z" fill="url(#paint0_radial_524_154)"/>
<path d="M90.8751 137.254C77.9794 137.254 67.0108 131.085 62.6839 126.806C58.7934 123.631 34.2382 99.9242 14.2401 80.52C13.428 79.7322 12.9553 79.2838 12.9069 79.2232C10.6404 76.9567 9.23449 74.5933 8.83453 72.3632C8.37397 69.8301 9.16177 67.5394 11.1495 65.5396C12.9675 63.7216 15.1976 62.7641 17.6216 62.7641C20.4698 62.7641 23.3301 64.0731 25.6814 66.4365L45.8128 85.7801L13.6219 52.5469C9.91321 48.8382 8.04673 42.6933 12.7372 38.015C14.5552 36.197 16.7853 35.2395 19.2093 35.2395C22.0575 35.2395 24.9178 36.5485 27.2691 38.9119L60.1629 70.9815L20.6395 30.4642C18.5306 28.3553 17.2337 25.7737 17.0034 23.2043C16.7732 20.4652 17.7185 17.9563 19.7426 15.9323C21.5606 14.1142 23.7907 13.1568 26.2147 13.1568C29.0508 13.1568 31.9111 14.4536 34.2745 16.817L74.5858 56.1223L45.3038 26.0283C43.1827 23.9072 41.8859 21.3257 41.6677 18.7562C41.4375 16.0292 42.3828 13.5204 44.4069 11.4963C46.2249 9.67831 48.455 8.72083 50.879 8.72083C53.7272 8.72083 56.5875 10.0298 58.9388 12.3932L67.6774 20.9621C83.2516 36.2333 96.2686 49.02 97.6624 50.4502C98.3411 50.9956 99.2258 51.2016 99.6016 51.0198C99.844 50.8986 100.111 50.3411 100.062 49.1654C99.9894 47.105 99.6985 44.5477 99.3955 41.8449C98.7895 36.4151 98.1593 30.7914 98.9471 27.0827C100.668 20.647 104.05 17.9199 106.571 16.7443C110.037 15.1445 113.394 15.702 114.037 16.005C120.339 18.9623 119.091 23.9072 117.37 30.7672L117.333 30.9369L117.139 32.3549C115.879 38.5604 122.351 55.7103 128.823 69.6847L128.92 69.8786C133.247 79.3322 141.04 103.584 120.194 124.431C110.607 133.994 100.232 137.254 90.8751 137.254ZM17.6216 66.4001C16.1914 66.4001 14.834 66.994 13.7189 68.1091C12.5675 69.2605 12.1675 70.3755 12.4099 71.7087C12.6766 73.1752 13.7553 74.9205 15.44 76.6173C15.4521 76.6295 15.9369 77.1021 16.7732 77.9021C45.1583 105.451 62.2961 121.825 65.0352 124.031L65.1806 124.164C71.8709 130.855 96.7291 142.732 117.612 121.849C136.846 102.615 129.611 80.1564 125.599 71.3815L125.514 71.1997C121.345 62.2066 111.867 40.3905 113.552 31.6883L113.831 29.8703C115.697 22.4528 115.806 20.9015 112.643 19.3743C111.71 19.2047 105.019 18.3926 102.462 27.9311C101.82 30.9732 102.438 36.5363 102.983 41.445C103.298 44.2204 103.589 46.8505 103.662 49.0442C103.783 52.4984 102.147 53.8195 101.153 54.3043C99.1289 55.2861 96.717 54.4498 95.2141 53.1893L95.0565 53.0438C94.3172 52.2439 76.731 34.9971 65.0958 23.58L56.3451 14.9869C53.3636 11.9932 49.5215 11.4963 46.94 14.0779C45.6795 15.3384 45.1098 16.817 45.2432 18.4532C45.3886 20.1622 46.3097 21.9438 47.849 23.483L77.1916 53.5771C78.5733 54.9831 78.5733 57.2859 77.1674 58.6918C75.822 60.0371 73.4465 60.0614 72.0648 58.7281L31.7172 19.3986C28.7356 16.4171 24.8815 15.9201 22.312 18.5017C21.0515 19.7622 20.4819 21.2408 20.6152 22.877C20.7728 24.586 21.6939 26.3797 23.221 27.8947L62.7687 68.4484C64.1626 69.8544 64.1504 72.1572 62.7445 73.5631C61.3992 74.9084 59.0237 74.9327 57.642 73.5994L24.7118 41.4934C21.7303 38.4877 17.8761 38.0029 15.3066 40.5844C12.1675 43.7235 13.8401 47.6141 16.2156 50.0017L48.4186 83.2591C49.8003 84.665 49.7882 86.9557 48.3822 88.3496C47.0248 89.707 44.6735 89.7191 43.2918 88.398L23.1362 69.0302C21.4394 67.3213 19.4881 66.4001 17.6216 66.4001Z" fill="#875334"/>
<path d="M94.4746 51.6379C87.8207 65.2245 88.6812 84.2409 98.6681 99.5C99.7953 101.56 101.722 100.554 100.741 98.4334C88.6812 72.6299 101.322 54.0377 101.322 54.0377L94.4746 51.6379Z" fill="#875334"/>
<path d="M68.3076 0.68526C71.9679 -0.272223 75.8705 -0.187383 79.6641 0.697381C83.4334 1.60638 87.2028 3.52135 90.0025 6.64832C92.7416 9.75106 94.4263 13.5204 94.996 17.4715C95.5292 21.3863 95.0323 25.4223 93.178 28.7674C92.9598 25.0102 92.3053 21.556 91.2024 18.3684C90.6327 16.7807 89.9661 15.2657 89.1541 13.8355C88.3542 12.4175 87.4088 11.0115 86.4028 9.86014C84.3546 7.49673 81.5791 5.65448 78.4642 4.22431C75.3373 2.74567 71.9315 1.65486 68.3076 0.68526Z" fill="#B0BEC5"/>
<path d="M69.3136 12.175C71.3376 10.8903 73.8707 10.6237 76.2584 11.0479C78.6703 11.4721 80.9731 12.672 82.7911 14.3324C84.597 16.0171 85.8817 18.1381 86.6816 20.3439C87.0695 21.4469 87.2634 22.6104 87.4452 23.7376C87.5058 24.9011 87.5058 26.0646 87.324 27.2281C86.4877 26.3434 85.8332 25.4586 85.2151 24.5981C84.5 23.786 83.9425 22.9255 83.3001 22.1377C82.0397 20.5742 80.8155 19.1562 79.4944 17.8957C78.137 16.6716 76.7068 15.5929 75.0464 14.6596C73.3981 13.7022 71.5437 12.9022 69.3136 12.175Z" fill="#90A4AE"/>
<path d="M0.023165 88.9678C1.73209 92.3129 3.51374 95.4156 5.58627 98.1548C7.64668 100.894 10.0101 103.221 12.7613 104.736C14.0945 105.475 15.6823 106.118 17.2336 106.602C18.7971 107.099 20.4212 107.439 22.0938 107.669C25.4389 108.081 28.9537 108.008 32.6746 107.439C29.79 109.948 25.9358 111.281 22.0089 111.572C18.0336 111.838 13.9976 110.978 10.3858 108.942C6.74979 106.869 4.08338 103.572 2.41082 100.07C0.738248 96.5428 -0.158636 92.7492 0.023165 88.9678Z" fill="#B0BEC5"/>
<path d="M11.4766 87.5497C12.6523 89.5859 13.8158 91.2221 15.0884 92.6522C16.3489 94.0824 17.7063 95.258 19.185 96.3246C20.6879 97.3548 22.3362 98.2638 24.13 99.1728C25.0269 99.6334 25.9843 99.997 26.9297 100.53C27.9114 100.954 28.9053 101.403 29.9476 102.045C28.8447 102.457 27.7175 102.7 26.5661 102.882C25.4268 102.93 24.2512 102.991 23.0876 102.833C20.7606 102.518 18.4335 101.706 16.3974 100.288C14.3976 98.8456 12.7371 96.8458 11.8281 94.5793C10.907 92.325 10.6404 89.804 11.4766 87.5497Z" fill="#90A4AE"/>
<defs>
<radialGradient id="paint0_radial_524_154" cx="0" cy="0" r="1" gradientUnits="userSpaceOnUse" gradientTransform="translate(45.1294 41.2872) rotate(-45) scale(110.302)">
<stop offset="0.3533" stop-color="#A56C43"/>
<stop offset="0.8723" stop-color="#8D5738"/>
</radialGradient>
</defs>
</svg>
