<svg width="92" height="79" viewBox="0 0 92 79" fill="none" xmlns="http://www.w3.org/2000/svg">
<path fill-rule="evenodd" clip-rule="evenodd" d="M40 78.4563L0 0.456317L0.889817 0L40.8898 78L40 78.4563ZM91 10.4563L0 1.45632L0.0984209 0.461172L91.0984 9.46117L91 10.4563ZM62 39.4563L40 75.4563L39.1467 74.9349L61.1467 38.9349L62 39.4563ZM70 29.4563L91 10.4563L91.6709 11.1979L70.6709 30.1979L70 29.4563ZM59 41.4563L3 2.45632L3.57149 1.63571L59.5715 40.6357L59 41.4563ZM70 29.4563L3 3.45632L3.36177 2.52405L70.3618 28.524L70 29.4563ZM59 66.4563L60 38.4563L60.9994 38.492L59.9994 66.492L59 66.4563ZM60 52.4563L72 25.4563L72.9138 25.8625L60.9138 52.8625L60 52.4563ZM51 57.4563L60 63.4563L59.4453 64.2884L50.4453 58.2884L51 57.4563Z" fill="#B7B8BF"/>
</svg>
